<svg xmlns="http://www.w3.org/2000/svg" xmlns:xlink="http://www.w3.org/1999/xlink" width="500" zoomAndPan="magnify" viewBox="0 0 375 374.999991" height="500" preserveAspectRatio="xMidYMid meet" version="1.0"><defs><filter x="0%" y="0%" width="100%" height="100%" id="f72500e929"><feColorMatrix values="0 0 0 0 1 0 0 0 0 1 0 0 0 0 1 0 0 0 1 0" color-interpolation-filters="sRGB"/></filter><g/><mask id="2653eadb57"><g filter="url(#f72500e929)"><rect x="-37.5" width="450" fill="#000000" y="-37.499999" height="449.999989" fill-opacity="0.2667"/></g></mask><clipPath id="1739983a7b"><path d="M 189 76 L 276.839844 76 L 276.839844 164 L 189 164 Z M 189 76 " clip-rule="nonzero"/></clipPath><clipPath id="69a7c179dd"><path d="M 0.207031 76 L 88 76 L 88 164 L 0.207031 164 Z M 0.207031 76 " clip-rule="nonzero"/></clipPath><clipPath id="61fff535fa"><path d="M 51 179 L 223 179 L 223 229.433594 L 51 229.433594 Z M 51 179 " clip-rule="nonzero"/></clipPath><clipPath id="c8febed908"><path d="M 49 0.683594 L 226 0.683594 L 226 57 L 49 57 Z M 49 0.683594 " clip-rule="nonzero"/></clipPath><clipPath id="408d0ac95a"><rect x="0" width="277" y="0" height="230"/></clipPath><clipPath id="405c190de9"><path d="M 44.769531 125.074219 L 68.308594 125.074219 L 68.308594 148.613281 L 44.769531 148.613281 Z M 44.769531 125.074219 " clip-rule="nonzero"/></clipPath><clipPath id="46f4be1c3c"><path d="M 46 125.074219 L 67 125.074219 L 67 137 L 46 137 Z M 46 125.074219 " clip-rule="nonzero"/></clipPath><mask id="d375785cc6"><g filter="url(#f72500e929)"><rect x="-37.5" width="450" fill="#000000" y="-37.499999" height="449.999989" fill-opacity="0.9569"/></g></mask><clipPath id="e0efe403db"><rect x="0" width="321" y="0" height="102"/></clipPath><clipPath id="da2d1a0c98"><path d="M 153.332031 157.25 L 222 157.25 L 222 226.25 L 153.332031 226.25 Z M 153.332031 157.25 " clip-rule="nonzero"/></clipPath></defs><g mask="url(#2653eadb57)"><g transform="matrix(1, 0, 0, 1, 51, 74)"><g clip-path="url(#408d0ac95a)"><g clip-path="url(#1739983a7b)"><path fill="#5500ff" d="M 273.523438 107.125 L 265.800781 106.335938 L 261.75 99.253906 L 264.980469 92.195312 C 265.355469 91.375 265.117188 90.402344 264.398438 89.851562 L 254.773438 82.410156 C 254.054688 81.859375 253.058594 81.867188 252.355469 82.441406 L 246.339844 87.347656 L 238.46875 85.210938 L 235.765625 77.9375 C 235.453125 77.089844 234.59375 76.574219 233.699219 76.683594 L 221.632812 78.230469 C 220.738281 78.34375 220.035156 79.0625 219.941406 79.960938 L 219.152344 87.683594 L 212.070312 91.734375 L 205.011719 88.503906 C 204.1875 88.128906 203.214844 88.367188 202.664062 89.085938 L 195.222656 98.710938 C 194.671875 99.429688 194.679688 100.425781 195.253906 101.128906 L 200.160156 107.140625 L 198.023438 115.011719 L 190.75 117.714844 C 189.902344 118.027344 189.386719 118.886719 189.496094 119.78125 L 191.042969 131.847656 C 191.15625 132.738281 191.875 133.441406 192.773438 133.539062 L 200.496094 134.328125 L 204.546875 141.410156 L 201.316406 148.464844 C 200.941406 149.289062 201.183594 150.261719 201.898438 150.8125 L 211.527344 158.25 C 212.246094 158.800781 213.242188 158.792969 213.945312 158.21875 L 219.957031 153.316406 L 227.828125 155.453125 L 230.535156 162.726562 C 230.851562 163.570312 231.707031 164.089844 232.597656 163.976562 L 244.667969 162.429688 C 244.929688 162.398438 245.167969 162.3125 245.382812 162.191406 C 245.917969 161.886719 246.285156 161.335938 246.347656 160.699219 L 247.140625 152.980469 L 254.222656 148.929688 L 261.28125 152.160156 C 262.101562 152.535156 263.074219 152.292969 263.625 151.578125 L 271.066406 141.949219 C 271.617188 141.234375 271.609375 140.238281 271.035156 139.535156 L 266.128906 133.523438 L 268.265625 125.648438 L 275.542969 122.945312 C 276.386719 122.628906 276.90625 121.773438 276.792969 120.882812 L 275.246094 108.816406 C 275.140625 107.914062 274.425781 107.210938 273.523438 107.125 Z M 244.117188 139.480469 C 233.539062 145.53125 220.054688 141.871094 214 131.289062 C 207.945312 120.714844 211.605469 107.230469 222.191406 101.175781 C 232.765625 95.121094 246.253906 98.78125 252.308594 109.367188 C 258.359375 119.941406 254.691406 133.425781 244.117188 139.480469 Z M 244.117188 139.480469 " fill-opacity="1" fill-rule="nonzero"/></g><g clip-path="url(#69a7c179dd)"><path fill="#5500ff" d="M 84.925781 109.367188 L 77.261719 108.152344 L 73.597656 100.863281 L 77.210938 94 C 77.636719 93.199219 77.445312 92.210938 76.765625 91.621094 L 67.5625 83.664062 C 66.875 83.074219 65.878906 83.03125 65.144531 83.558594 L 58.867188 88.121094 L 51.125 85.554688 L 48.824219 78.144531 C 48.554688 77.28125 47.734375 76.71875 46.832031 76.78125 L 34.691406 77.65625 C 33.792969 77.722656 33.058594 78.398438 32.914062 79.292969 L 31.703125 86.957031 L 24.410156 90.617188 L 17.542969 87.003906 C 16.746094 86.582031 15.757812 86.773438 15.167969 87.449219 L 7.207031 96.652344 C 6.617188 97.339844 6.578125 98.335938 7.105469 99.070312 L 11.667969 105.347656 L 9.097656 113.089844 L 1.6875 115.386719 C 0.828125 115.65625 0.261719 116.480469 0.324219 117.378906 L 1.203125 129.519531 C 1.265625 130.417969 1.945312 131.152344 2.835938 131.296875 L 10.5 132.507812 L 14.164062 139.796875 L 10.550781 146.664062 C 10.128906 147.460938 10.320312 148.449219 10.996094 149.039062 L 20.199219 157 C 20.886719 157.589844 21.882812 157.628906 22.617188 157.101562 L 28.894531 152.542969 L 36.640625 155.109375 L 38.9375 162.519531 C 39.207031 163.378906 40.027344 163.945312 40.929688 163.882812 L 53.070312 163.003906 C 53.332031 162.988281 53.578125 162.917969 53.804688 162.804688 C 54.351562 162.535156 54.753906 162.007812 54.855469 161.371094 L 56.066406 153.707031 L 63.359375 150.046875 L 70.226562 153.65625 C 71.023438 154.082031 72.011719 153.890625 72.601562 153.210938 L 80.5625 144.007812 C 81.152344 143.324219 81.191406 142.324219 80.664062 141.59375 L 76.105469 135.316406 L 78.671875 127.574219 L 86.082031 125.277344 C 86.941406 125.003906 87.507812 124.183594 87.445312 123.28125 L 86.566406 111.144531 C 86.496094 110.242188 85.820312 109.5 84.925781 109.367188 Z M 53.777344 140.054688 C 42.882812 145.515625 29.621094 141.113281 24.15625 130.21875 C 18.691406 119.328125 23.097656 106.0625 33.992188 100.601562 C 44.886719 95.140625 58.148438 99.539062 63.613281 110.433594 C 69.078125 121.328125 64.675781 134.589844 53.777344 140.054688 Z M 53.777344 140.054688 " fill-opacity="1" fill-rule="nonzero"/></g><path fill="#737373" d="M 196.03125 114.851562 L 185.476562 111.265625 L 182.085938 100.042969 L 188.882812 91.207031 C 189.671875 90.179688 189.648438 88.742188 188.828125 87.738281 L 177.75 74.210938 C 176.925781 73.207031 175.523438 72.90625 174.351562 73.480469 L 164.347656 78.398438 L 154.011719 72.863281 L 152.570312 61.8125 C 152.402344 60.527344 151.363281 59.523438 150.074219 59.394531 L 132.675781 57.664062 C 131.382812 57.539062 130.171875 58.320312 129.757812 59.546875 L 126.167969 70.097656 L 114.945312 73.488281 L 106.109375 66.691406 C 105.082031 65.902344 103.644531 65.925781 102.640625 66.75 L 89.113281 77.824219 C 88.109375 78.648438 87.804688 80.058594 88.378906 81.222656 L 93.300781 91.222656 L 87.765625 101.558594 L 76.710938 103 C 75.425781 103.167969 74.421875 104.207031 74.292969 105.496094 L 72.5625 122.890625 C 72.433594 124.183594 73.214844 125.394531 74.445312 125.808594 L 84.996094 129.398438 L 88.386719 140.621094 L 81.589844 149.457031 C 80.800781 150.484375 80.824219 151.917969 81.648438 152.925781 L 92.726562 166.449219 C 93.546875 167.453125 94.957031 167.757812 96.125 167.183594 L 106.125 162.261719 L 116.460938 167.796875 L 117.90625 178.851562 C 118.074219 180.132812 119.109375 181.140625 120.402344 181.265625 L 137.796875 182.996094 C 138.171875 183.039062 138.539062 182.996094 138.882812 182.894531 C 139.726562 182.636719 140.421875 181.992188 140.714844 181.125 L 144.304688 170.574219 L 155.527344 167.183594 L 164.363281 173.976562 C 165.394531 174.765625 166.828125 174.75 167.835938 173.921875 L 181.363281 162.84375 C 182.367188 162.023438 182.667969 160.613281 182.09375 159.449219 L 177.175781 149.449219 L 182.710938 139.113281 L 193.765625 137.667969 C 195.046875 137.5 196.054688 136.464844 196.179688 135.171875 L 197.910156 117.777344 C 198.03125 116.480469 197.257812 115.265625 196.03125 114.851562 Z M 144.402344 150.683594 C 127.636719 155.753906 109.9375 146.273438 104.863281 129.511719 C 99.792969 112.746094 109.277344 95.050781 126.039062 89.980469 C 142.804688 84.90625 160.503906 94.390625 165.578125 111.152344 C 170.648438 127.914062 161.175781 145.613281 144.402344 150.683594 Z M 144.402344 150.683594 " fill-opacity="1" fill-rule="nonzero"/><g clip-path="url(#61fff535fa)"><path fill="#737373" d="M 222.007812 197.78125 L 219.511719 184.105469 C 219.207031 182.4375 217.605469 181.332031 215.9375 181.632812 L 202.257812 184.128906 C 200.589844 184.433594 199.484375 186.035156 199.785156 187.703125 C 200.089844 189.371094 201.691406 190.476562 203.359375 190.175781 L 210.347656 188.898438 C 206.710938 193.246094 202.679688 197.28125 198.335938 200.925781 C 192.757812 205.597656 186.648438 209.640625 180.179688 212.925781 C 173.601562 216.277344 166.621094 218.851562 159.460938 220.589844 C 152.082031 222.378906 144.449219 223.285156 136.785156 223.285156 C 128.664062 223.285156 120.601562 222.273438 112.816406 220.273438 C 105.261719 218.324219 97.949219 215.453125 91.082031 211.722656 C 84.335938 208.054688 78.019531 203.574219 72.316406 198.390625 C 66.628906 193.222656 61.570312 187.375 57.273438 181.019531 C 56.324219 179.617188 54.417969 179.242188 53.003906 180.199219 C 51.601562 181.148438 51.226562 183.054688 52.183594 184.464844 C 56.753906 191.226562 62.136719 197.441406 68.183594 202.933594 C 74.253906 208.445312 80.96875 213.222656 88.148438 217.121094 C 95.460938 221.09375 103.246094 224.15625 111.285156 226.222656 C 119.574219 228.351562 128.148438 229.433594 136.785156 229.433594 C 144.9375 229.433594 153.054688 228.46875 160.902344 226.5625 C 168.535156 224.714844 175.953125 221.96875 182.964844 218.40625 C 189.847656 214.90625 196.347656 210.613281 202.28125 205.636719 C 206.84375 201.816406 211.070312 197.589844 214.902344 193.039062 L 215.96875 198.890625 C 216.242188 200.375 217.53125 201.410156 218.984375 201.410156 C 219.167969 201.410156 219.351562 201.394531 219.542969 201.363281 C 221.210938 201.042969 222.308594 199.449219 222.007812 197.78125 Z M 222.007812 197.78125 " fill-opacity="1" fill-rule="nonzero"/></g><g clip-path="url(#c8febed908)"><path fill="#737373" d="M 225.148438 51.691406 C 216.34375 36.46875 203.671875 23.699219 188.515625 14.761719 C 180.84375 10.238281 172.605469 6.738281 164.039062 4.371094 C 155.199219 1.929688 146.027344 0.683594 136.785156 0.683594 C 128.664062 0.683594 120.578125 1.640625 112.761719 3.53125 C 105.160156 5.367188 97.757812 8.09375 90.769531 11.625 C 83.914062 15.09375 77.429688 19.363281 71.5 24.296875 C 65.78125 29.058594 60.582031 34.457031 56.035156 40.34375 L 55.300781 33.667969 C 55.121094 31.984375 53.597656 30.765625 51.914062 30.957031 C 50.230469 31.140625 49.007812 32.664062 49.199219 34.347656 L 50.722656 48.167969 C 50.898438 49.738281 52.222656 50.902344 53.769531 50.902344 C 53.882812 50.902344 53.996094 50.894531 54.113281 50.886719 L 67.9375 49.363281 C 69.621094 49.179688 70.839844 47.65625 70.648438 45.972656 C 70.464844 44.292969 68.941406 43.070312 67.257812 43.261719 L 61.027344 43.949219 C 65.28125 38.476562 70.121094 33.460938 75.441406 29.027344 C 81.007812 24.386719 87.101562 20.382812 93.554688 17.113281 C 100.121094 13.789062 107.066406 11.234375 114.210938 9.511719 C 121.566406 7.742188 129.160156 6.839844 136.800781 6.839844 C 145.503906 6.839844 154.117188 8.003906 162.417969 10.300781 C 170.464844 12.527344 178.203125 15.8125 185.414062 20.0625 C 199.667969 28.460938 211.574219 40.464844 219.851562 54.777344 C 220.417969 55.757812 221.457031 56.308594 222.515625 56.308594 C 223.035156 56.308594 223.570312 56.171875 224.050781 55.894531 C 225.5 55.042969 226.003906 53.160156 225.148438 51.691406 Z M 225.148438 51.691406 " fill-opacity="1" fill-rule="nonzero"/></g><path fill="#737373" d="M 33.839844 58.679688 C 33.839844 59.273438 33.78125 59.863281 33.664062 60.449219 C 33.546875 61.03125 33.375 61.601562 33.148438 62.152344 C 32.921875 62.703125 32.640625 63.222656 32.308594 63.71875 C 31.980469 64.214844 31.601562 64.671875 31.179688 65.09375 C 30.757812 65.515625 30.300781 65.890625 29.804688 66.222656 C 29.308594 66.554688 28.785156 66.835938 28.234375 67.0625 C 27.6875 67.289062 27.117188 67.460938 26.535156 67.578125 C 25.949219 67.695312 25.359375 67.753906 24.761719 67.753906 C 24.167969 67.753906 23.578125 67.695312 22.992188 67.578125 C 22.40625 67.460938 21.839844 67.289062 21.289062 67.0625 C 20.738281 66.835938 20.214844 66.554688 19.71875 66.222656 C 19.222656 65.890625 18.765625 65.515625 18.34375 65.09375 C 17.921875 64.671875 17.546875 64.214844 17.214844 63.71875 C 16.886719 63.222656 16.605469 62.703125 16.378906 62.152344 C 16.148438 61.601562 15.976562 61.03125 15.859375 60.449219 C 15.746094 59.863281 15.6875 59.273438 15.6875 58.679688 C 15.6875 58.082031 15.746094 57.492188 15.859375 56.90625 C 15.976562 56.324219 16.148438 55.753906 16.378906 55.203125 C 16.605469 54.652344 16.886719 54.132812 17.214844 53.636719 C 17.546875 53.140625 17.921875 52.683594 18.34375 52.261719 C 18.765625 51.839844 19.222656 51.464844 19.71875 51.132812 C 20.214844 50.800781 20.738281 50.519531 21.289062 50.292969 C 21.839844 50.066406 22.40625 49.894531 22.992188 49.777344 C 23.578125 49.660156 24.167969 49.601562 24.761719 49.601562 C 25.359375 49.601562 25.949219 49.660156 26.535156 49.777344 C 27.117188 49.894531 27.6875 50.066406 28.234375 50.292969 C 28.785156 50.519531 29.308594 50.800781 29.804688 51.132812 C 30.300781 51.464844 30.757812 51.839844 31.179688 52.261719 C 31.601562 52.683594 31.980469 53.140625 32.308594 53.636719 C 32.640625 54.132812 32.921875 54.652344 33.148438 55.203125 C 33.375 55.753906 33.546875 56.324219 33.664062 56.90625 C 33.78125 57.492188 33.839844 58.082031 33.839844 58.679688 Z M 33.839844 58.679688 " fill-opacity="1" fill-rule="nonzero"/><path fill="#737373" d="M 33.839844 58.679688 C 33.839844 59.273438 33.78125 59.863281 33.664062 60.449219 C 33.546875 61.03125 33.375 61.601562 33.148438 62.152344 C 32.921875 62.703125 32.640625 63.222656 32.308594 63.71875 C 31.980469 64.214844 31.601562 64.671875 31.179688 65.09375 C 30.757812 65.515625 30.300781 65.890625 29.804688 66.222656 C 29.308594 66.554688 28.785156 66.835938 28.234375 67.0625 C 27.6875 67.289062 27.117188 67.460938 26.535156 67.578125 C 25.949219 67.695312 25.359375 67.753906 24.761719 67.753906 C 24.167969 67.753906 23.578125 67.695312 22.992188 67.578125 C 22.40625 67.460938 21.839844 67.289062 21.289062 67.0625 C 20.738281 66.835938 20.214844 66.554688 19.71875 66.222656 C 19.222656 65.890625 18.765625 65.515625 18.34375 65.09375 C 17.921875 64.671875 17.546875 64.214844 17.214844 63.71875 C 16.886719 63.222656 16.605469 62.703125 16.378906 62.152344 C 16.148438 61.601562 15.976562 61.03125 15.859375 60.449219 C 15.746094 59.863281 15.6875 59.273438 15.6875 58.679688 C 15.6875 58.082031 15.746094 57.492188 15.859375 56.90625 C 15.976562 56.324219 16.148438 55.753906 16.378906 55.203125 C 16.605469 54.652344 16.886719 54.132812 17.214844 53.636719 C 17.546875 53.140625 17.921875 52.683594 18.34375 52.261719 C 18.765625 51.839844 19.222656 51.464844 19.71875 51.132812 C 20.214844 50.800781 20.738281 50.519531 21.289062 50.292969 C 21.839844 50.066406 22.40625 49.894531 22.992188 49.777344 C 23.578125 49.660156 24.167969 49.601562 24.761719 49.601562 C 25.359375 49.601562 25.949219 49.660156 26.535156 49.777344 C 27.117188 49.894531 27.6875 50.066406 28.234375 50.292969 C 28.785156 50.519531 29.308594 50.800781 29.804688 51.132812 C 30.300781 51.464844 30.757812 51.839844 31.179688 52.261719 C 31.601562 52.683594 31.980469 53.140625 32.308594 53.636719 C 32.640625 54.132812 32.921875 54.652344 33.148438 55.203125 C 33.375 55.753906 33.546875 56.324219 33.664062 56.90625 C 33.78125 57.492188 33.839844 58.082031 33.839844 58.679688 Z M 33.839844 58.679688 " fill-opacity="1" fill-rule="nonzero"/><path fill="#737373" d="M 32.347656 66.175781 C 30.410156 68.136719 27.730469 69.347656 24.761719 69.347656 C 21.796875 69.347656 19.109375 68.136719 17.175781 66.175781 C 12.695312 68.789062 9.6875 73.648438 9.6875 79.203125 L 9.6875 80.25 C 9.6875 82.050781 10.910156 83.621094 12.65625 84.0625 C 20.597656 86.070312 28.925781 86.070312 36.871094 84.0625 C 38.617188 83.621094 39.835938 82.050781 39.835938 80.25 L 39.835938 79.203125 C 39.84375 73.636719 36.832031 68.78125 32.347656 66.175781 Z M 32.347656 66.175781 " fill-opacity="1" fill-rule="nonzero"/><path fill="#5500ff" d="M 191.101562 58.84375 C 191.101562 59.441406 191.042969 60.03125 190.925781 60.617188 C 190.808594 61.199219 190.636719 61.769531 190.410156 62.316406 C 190.179688 62.867188 189.902344 63.390625 189.570312 63.886719 C 189.238281 64.382812 188.863281 64.839844 188.441406 65.261719 C 188.019531 65.683594 187.5625 66.058594 187.066406 66.390625 C 186.570312 66.722656 186.046875 67 185.496094 67.230469 C 184.945312 67.457031 184.378906 67.628906 183.792969 67.746094 C 183.210938 67.863281 182.621094 67.921875 182.023438 67.921875 C 181.429688 67.921875 180.835938 67.863281 180.253906 67.746094 C 179.667969 67.628906 179.101562 67.457031 178.550781 67.230469 C 178 67 177.476562 66.722656 176.980469 66.390625 C 176.484375 66.058594 176.027344 65.683594 175.605469 65.261719 C 175.183594 64.839844 174.808594 64.382812 174.476562 63.886719 C 174.144531 63.390625 173.867188 62.867188 173.636719 62.316406 C 173.410156 61.769531 173.238281 61.199219 173.121094 60.617188 C 173.003906 60.03125 172.945312 59.441406 172.945312 58.84375 C 172.945312 58.25 173.003906 57.660156 173.121094 57.074219 C 173.238281 56.492188 173.410156 55.921875 173.636719 55.371094 C 173.867188 54.820312 174.144531 54.296875 174.476562 53.804688 C 174.808594 53.308594 175.183594 52.847656 175.605469 52.429688 C 176.027344 52.007812 176.484375 51.628906 176.980469 51.300781 C 177.476562 50.96875 178 50.6875 178.550781 50.460938 C 179.101562 50.234375 179.667969 50.058594 180.253906 49.945312 C 180.835938 49.828125 181.429688 49.769531 182.023438 49.769531 C 182.621094 49.769531 183.210938 49.828125 183.792969 49.945312 C 184.378906 50.058594 184.945312 50.234375 185.496094 50.460938 C 186.046875 50.6875 186.570312 50.96875 187.066406 51.300781 C 187.5625 51.628906 188.019531 52.007812 188.441406 52.429688 C 188.863281 52.847656 189.238281 53.308594 189.570312 53.804688 C 189.902344 54.296875 190.179688 54.820312 190.410156 55.371094 C 190.636719 55.921875 190.808594 56.492188 190.925781 57.074219 C 191.042969 57.660156 191.101562 58.25 191.101562 58.84375 Z M 191.101562 58.84375 " fill-opacity="1" fill-rule="nonzero"/><path fill="#5500ff" d="M 191.101562 58.84375 C 191.101562 59.441406 191.042969 60.03125 190.925781 60.617188 C 190.808594 61.199219 190.636719 61.769531 190.410156 62.316406 C 190.179688 62.867188 189.902344 63.390625 189.570312 63.886719 C 189.238281 64.382812 188.863281 64.839844 188.441406 65.261719 C 188.019531 65.683594 187.5625 66.058594 187.066406 66.390625 C 186.570312 66.722656 186.046875 67 185.496094 67.230469 C 184.945312 67.457031 184.378906 67.628906 183.792969 67.746094 C 183.210938 67.863281 182.621094 67.921875 182.023438 67.921875 C 181.429688 67.921875 180.835938 67.863281 180.253906 67.746094 C 179.667969 67.628906 179.101562 67.457031 178.550781 67.230469 C 178 67 177.476562 66.722656 176.980469 66.390625 C 176.484375 66.058594 176.027344 65.683594 175.605469 65.261719 C 175.183594 64.839844 174.808594 64.382812 174.476562 63.886719 C 174.144531 63.390625 173.867188 62.867188 173.636719 62.316406 C 173.410156 61.769531 173.238281 61.199219 173.121094 60.617188 C 173.003906 60.03125 172.945312 59.441406 172.945312 58.84375 C 172.945312 58.25 173.003906 57.660156 173.121094 57.074219 C 173.238281 56.492188 173.410156 55.921875 173.636719 55.371094 C 173.867188 54.820312 174.144531 54.296875 174.476562 53.804688 C 174.808594 53.308594 175.183594 52.847656 175.605469 52.429688 C 176.027344 52.007812 176.484375 51.628906 176.980469 51.300781 C 177.476562 50.96875 178 50.6875 178.550781 50.460938 C 179.101562 50.234375 179.667969 50.058594 180.253906 49.945312 C 180.835938 49.828125 181.429688 49.769531 182.023438 49.769531 C 182.621094 49.769531 183.210938 49.828125 183.792969 49.945312 C 184.378906 50.058594 184.945312 50.234375 185.496094 50.460938 C 186.046875 50.6875 186.570312 50.96875 187.066406 51.300781 C 187.5625 51.628906 188.019531 52.007812 188.441406 52.429688 C 188.863281 52.847656 189.238281 53.308594 189.570312 53.804688 C 189.902344 54.296875 190.179688 54.820312 190.410156 55.371094 C 190.636719 55.921875 190.808594 56.492188 190.925781 57.074219 C 191.042969 57.660156 191.101562 58.25 191.101562 58.84375 Z M 191.101562 58.84375 " fill-opacity="1" fill-rule="nonzero"/><path fill="#5500ff" d="M 189.617188 66.339844 C 187.679688 68.304688 185 69.515625 182.03125 69.515625 C 179.066406 69.515625 176.375 68.304688 174.445312 66.339844 C 169.964844 68.957031 166.957031 73.8125 166.957031 79.371094 L 166.957031 80.417969 C 166.957031 82.21875 168.175781 83.789062 169.925781 84.230469 C 177.867188 86.238281 186.195312 86.238281 194.140625 84.230469 C 195.886719 83.789062 197.105469 82.21875 197.105469 80.417969 L 197.105469 79.371094 C 197.105469 73.8125 194.089844 68.957031 189.617188 66.339844 Z M 189.617188 66.339844 " fill-opacity="1" fill-rule="nonzero"/><path fill="#737373" d="M 268.816406 143.140625 C 268.816406 143.734375 268.757812 144.324219 268.644531 144.910156 C 268.527344 145.492188 268.355469 146.0625 268.125 146.613281 C 267.898438 147.164062 267.617188 147.6875 267.289062 148.179688 C 266.957031 148.675781 266.582031 149.136719 266.160156 149.554688 C 265.738281 149.976562 265.277344 150.355469 264.785156 150.683594 C 264.289062 151.015625 263.765625 151.296875 263.214844 151.523438 C 262.664062 151.75 262.097656 151.925781 261.511719 152.039062 C 260.925781 152.15625 260.335938 152.214844 259.742188 152.214844 C 259.144531 152.214844 258.554688 152.15625 257.96875 152.039062 C 257.386719 151.925781 256.816406 151.75 256.265625 151.523438 C 255.71875 151.296875 255.195312 151.015625 254.699219 150.683594 C 254.203125 150.355469 253.746094 149.976562 253.324219 149.554688 C 252.902344 149.136719 252.523438 148.675781 252.195312 148.179688 C 251.863281 147.6875 251.582031 147.164062 251.355469 146.613281 C 251.128906 146.0625 250.953125 145.492188 250.839844 144.910156 C 250.722656 144.324219 250.664062 143.734375 250.664062 143.140625 C 250.664062 142.542969 250.722656 141.953125 250.839844 141.367188 C 250.953125 140.785156 251.128906 140.214844 251.355469 139.667969 C 251.582031 139.117188 251.863281 138.59375 252.195312 138.097656 C 252.523438 137.601562 252.902344 137.144531 253.324219 136.722656 C 253.746094 136.300781 254.203125 135.925781 254.699219 135.59375 C 255.195312 135.261719 255.71875 134.984375 256.265625 134.753906 C 256.816406 134.527344 257.386719 134.355469 257.96875 134.238281 C 258.554688 134.121094 259.144531 134.0625 259.742188 134.0625 C 260.335938 134.0625 260.925781 134.121094 261.511719 134.238281 C 262.097656 134.355469 262.664062 134.527344 263.214844 134.753906 C 263.765625 134.984375 264.289062 135.261719 264.785156 135.59375 C 265.277344 135.925781 265.738281 136.300781 266.160156 136.722656 C 266.582031 137.144531 266.957031 137.601562 267.289062 138.097656 C 267.617188 138.59375 267.898438 139.117188 268.125 139.667969 C 268.355469 140.214844 268.527344 140.785156 268.644531 141.367188 C 268.757812 141.953125 268.816406 142.542969 268.816406 143.140625 Z M 268.816406 143.140625 " fill-opacity="1" fill-rule="nonzero"/><path fill="#737373" d="M 268.816406 143.140625 C 268.816406 143.734375 268.757812 144.324219 268.644531 144.910156 C 268.527344 145.492188 268.355469 146.0625 268.125 146.613281 C 267.898438 147.164062 267.617188 147.6875 267.289062 148.179688 C 266.957031 148.675781 266.582031 149.136719 266.160156 149.554688 C 265.738281 149.976562 265.277344 150.355469 264.785156 150.683594 C 264.289062 151.015625 263.765625 151.296875 263.214844 151.523438 C 262.664062 151.75 262.097656 151.925781 261.511719 152.039062 C 260.925781 152.15625 260.335938 152.214844 259.742188 152.214844 C 259.144531 152.214844 258.554688 152.15625 257.96875 152.039062 C 257.386719 151.925781 256.816406 151.75 256.265625 151.523438 C 255.71875 151.296875 255.195312 151.015625 254.699219 150.683594 C 254.203125 150.355469 253.746094 149.976562 253.324219 149.554688 C 252.902344 149.136719 252.523438 148.675781 252.195312 148.179688 C 251.863281 147.6875 251.582031 147.164062 251.355469 146.613281 C 251.128906 146.0625 250.953125 145.492188 250.839844 144.910156 C 250.722656 144.324219 250.664062 143.734375 250.664062 143.140625 C 250.664062 142.542969 250.722656 141.953125 250.839844 141.367188 C 250.953125 140.785156 251.128906 140.214844 251.355469 139.667969 C 251.582031 139.117188 251.863281 138.59375 252.195312 138.097656 C 252.523438 137.601562 252.902344 137.144531 253.324219 136.722656 C 253.746094 136.300781 254.203125 135.925781 254.699219 135.59375 C 255.195312 135.261719 255.71875 134.984375 256.265625 134.753906 C 256.816406 134.527344 257.386719 134.355469 257.96875 134.238281 C 258.554688 134.121094 259.144531 134.0625 259.742188 134.0625 C 260.335938 134.0625 260.925781 134.121094 261.511719 134.238281 C 262.097656 134.355469 262.664062 134.527344 263.214844 134.753906 C 263.765625 134.984375 264.289062 135.261719 264.785156 135.59375 C 265.277344 135.925781 265.738281 136.300781 266.160156 136.722656 C 266.582031 137.144531 266.957031 137.601562 267.289062 138.097656 C 267.617188 138.59375 267.898438 139.117188 268.125 139.667969 C 268.355469 140.214844 268.527344 140.785156 268.644531 141.367188 C 268.757812 141.953125 268.816406 142.542969 268.816406 143.140625 Z M 268.816406 143.140625 " fill-opacity="1" fill-rule="nonzero"/><path fill="#737373" d="M 267.324219 150.636719 C 265.386719 152.597656 262.707031 153.808594 259.742188 153.808594 C 256.773438 153.808594 254.085938 152.597656 252.15625 150.636719 C 247.671875 153.25 244.667969 158.109375 244.667969 163.667969 L 244.667969 164.710938 C 244.667969 166.511719 245.886719 168.085938 247.632812 168.523438 C 255.578125 170.53125 263.90625 170.53125 271.847656 168.523438 C 273.59375 168.085938 274.816406 166.511719 274.816406 164.710938 L 274.816406 163.667969 C 274.824219 158.101562 271.808594 153.25 267.324219 150.636719 Z M 267.324219 150.636719 " fill-opacity="1" fill-rule="nonzero"/></g></g></g><g fill="#000000" fill-opacity="0.4"><g transform="translate(7.477094, 155.576066)"><g><path d="M 21.332031 0 L 31.824219 0 L 31.824219 -0.445312 L 18.410156 -17.421875 L 30.683594 -34.148438 L 30.683594 -34.644531 L 20.636719 -34.644531 L 11.035156 -21.183594 L 11.035156 -34.644531 L 2.574219 -34.644531 L 2.574219 0 L 11.035156 0 L 11.035156 -13.410156 Z M 21.332031 0 "/></g></g></g><g fill="#000000" fill-opacity="0.4"><g transform="translate(38.557215, 155.576066)"><g><path d="M 2.523438 -17.273438 C 2.523438 -7.078125 10.542969 0.496094 20.441406 0.496094 C 30.339844 0.496094 38.40625 -7.226562 38.40625 -17.273438 C 38.40625 -27.46875 30.339844 -35.1875 20.441406 -35.1875 C 10.542969 -35.1875 2.523438 -27.46875 2.523438 -17.273438 Z M 10.9375 -17.273438 C 10.9375 -23.855469 15.6875 -27.070312 20.441406 -27.070312 C 25.191406 -27.070312 29.894531 -23.804688 29.894531 -17.273438 C 29.894531 -10.789062 25.09375 -7.523438 20.339844 -7.523438 C 15.589844 -7.523438 10.9375 -10.738281 10.9375 -17.273438 Z M 10.9375 -17.273438 "/></g></g></g><g fill="#000000" fill-opacity="0.4"><g transform="translate(78.001259, 155.576066)"><g><path d="M 16.183594 -34.644531 L 2.425781 -34.644531 L 2.425781 0 L 16.183594 0 C 27.617188 0 33.355469 -8.613281 33.355469 -17.273438 C 33.355469 -25.933594 27.617188 -34.644531 16.183594 -34.644531 Z M 16.183594 -8.066406 L 10.839844 -8.066406 L 10.839844 -26.625 L 16.183594 -26.625 C 22.023438 -26.625 24.992188 -21.824219 24.992188 -17.273438 C 24.992188 -12.71875 22.023438 -8.066406 16.183594 -8.066406 Z M 16.183594 -8.066406 "/></g></g></g><g fill="#000000" fill-opacity="0.4"><g transform="translate(111.357951, 155.576066)"><g><path d="M 2.472656 -34.941406 L 2.472656 0 L 25.339844 0 L 25.339844 -8.167969 L 10.988281 -8.167969 L 10.988281 -13.710938 L 24.992188 -13.710938 L 24.992188 -21.925781 L 10.988281 -21.925781 L 10.988281 -26.773438 L 25.289062 -26.773438 L 25.289062 -34.941406 Z M 2.472656 -34.941406 "/></g></g></g><g fill="#5500ff" fill-opacity="1"><g transform="translate(5.289812, 153.388783)"><g><path d="M 21.332031 0 L 31.824219 0 L 31.824219 -0.445312 L 18.410156 -17.421875 L 30.683594 -34.148438 L 30.683594 -34.644531 L 20.636719 -34.644531 L 11.035156 -21.183594 L 11.035156 -34.644531 L 2.574219 -34.644531 L 2.574219 0 L 11.035156 0 L 11.035156 -13.410156 Z M 21.332031 0 "/></g></g></g><g fill="#5500ff" fill-opacity="1"><g transform="translate(36.369933, 153.388783)"><g><path d="M 2.523438 -17.273438 C 2.523438 -7.078125 10.542969 0.496094 20.441406 0.496094 C 30.339844 0.496094 38.40625 -7.226562 38.40625 -17.273438 C 38.40625 -27.46875 30.339844 -35.1875 20.441406 -35.1875 C 10.542969 -35.1875 2.523438 -27.46875 2.523438 -17.273438 Z M 10.9375 -17.273438 C 10.9375 -23.855469 15.6875 -27.070312 20.441406 -27.070312 C 25.191406 -27.070312 29.894531 -23.804688 29.894531 -17.273438 C 29.894531 -10.789062 25.09375 -7.523438 20.339844 -7.523438 C 15.589844 -7.523438 10.9375 -10.738281 10.9375 -17.273438 Z M 10.9375 -17.273438 "/></g></g></g><g fill="#5500ff" fill-opacity="1"><g transform="translate(75.813976, 153.388783)"><g><path d="M 16.183594 -34.644531 L 2.425781 -34.644531 L 2.425781 0 L 16.183594 0 C 27.617188 0 33.355469 -8.613281 33.355469 -17.273438 C 33.355469 -25.933594 27.617188 -34.644531 16.183594 -34.644531 Z M 16.183594 -8.066406 L 10.839844 -8.066406 L 10.839844 -26.625 L 16.183594 -26.625 C 22.023438 -26.625 24.992188 -21.824219 24.992188 -17.273438 C 24.992188 -12.71875 22.023438 -8.066406 16.183594 -8.066406 Z M 16.183594 -8.066406 "/></g></g></g><g fill="#5500ff" fill-opacity="1"><g transform="translate(109.170668, 153.388783)"><g><path d="M 2.472656 -34.941406 L 2.472656 0 L 25.339844 0 L 25.339844 -8.167969 L 10.988281 -8.167969 L 10.988281 -13.710938 L 24.992188 -13.710938 L 24.992188 -21.925781 L 10.988281 -21.925781 L 10.988281 -26.773438 L 25.289062 -26.773438 L 25.289062 -34.941406 Z M 2.472656 -34.941406 "/></g></g></g><g clip-path="url(#405c190de9)"><path fill="#0fe1c2" d="M 68.304688 136.84375 C 68.304688 137.617188 68.230469 138.378906 68.078125 139.136719 C 67.929688 139.894531 67.707031 140.632812 67.410156 141.347656 C 67.113281 142.058594 66.75 142.738281 66.324219 143.382812 C 65.894531 144.023438 65.40625 144.617188 64.859375 145.164062 C 64.3125 145.710938 63.71875 146.199219 63.074219 146.628906 C 62.433594 147.058594 61.753906 147.417969 61.039062 147.714844 C 60.328125 148.011719 59.589844 148.234375 58.832031 148.386719 C 58.074219 148.535156 57.308594 148.609375 56.539062 148.609375 C 55.765625 148.609375 55 148.535156 54.242188 148.386719 C 53.484375 148.234375 52.746094 148.011719 52.035156 147.714844 C 51.320312 147.417969 50.640625 147.058594 50 146.628906 C 49.355469 146.199219 48.761719 145.710938 48.214844 145.164062 C 47.667969 144.617188 47.179688 144.023438 46.753906 143.382812 C 46.324219 142.738281 45.960938 142.058594 45.664062 141.347656 C 45.367188 140.632812 45.144531 139.894531 44.996094 139.136719 C 44.84375 138.378906 44.769531 137.617188 44.769531 136.84375 C 44.769531 136.070312 44.84375 135.304688 44.996094 134.546875 C 45.144531 133.789062 45.367188 133.054688 45.664062 132.339844 C 45.960938 131.625 46.324219 130.945312 46.753906 130.304688 C 47.179688 129.660156 47.667969 129.066406 48.214844 128.519531 C 48.761719 127.972656 49.355469 127.488281 50 127.058594 C 50.640625 126.628906 51.320312 126.265625 52.035156 125.96875 C 52.746094 125.675781 53.484375 125.449219 54.242188 125.300781 C 55 125.148438 55.765625 125.074219 56.539062 125.074219 C 57.308594 125.074219 58.074219 125.148438 58.832031 125.300781 C 59.589844 125.449219 60.328125 125.675781 61.039062 125.96875 C 61.753906 126.265625 62.433594 126.628906 63.074219 127.058594 C 63.71875 127.488281 64.3125 127.972656 64.859375 128.519531 C 65.40625 129.066406 65.894531 129.660156 66.324219 130.304688 C 66.75 130.945312 67.113281 131.625 67.410156 132.339844 C 67.707031 133.054688 67.929688 133.789062 68.078125 134.546875 C 68.230469 135.304688 68.304688 136.070312 68.304688 136.84375 Z M 68.304688 136.84375 " fill-opacity="1" fill-rule="nonzero"/></g><g clip-path="url(#46f4be1c3c)"><path fill="#66fade" d="M 66.78125 131.042969 C 64.445312 134.136719 60.726562 136.132812 56.539062 136.132812 C 52.347656 136.132812 48.628906 134.136719 46.292969 131.042969 C 48.316406 127.480469 52.144531 125.074219 56.539062 125.074219 C 60.929688 125.074219 64.757812 127.480469 66.78125 131.042969 Z M 66.78125 131.042969 " fill-opacity="1" fill-rule="nonzero"/></g><path fill="#20273a" d="M 64.042969 131.460938 L 64.042969 141.652344 L 49.03125 141.652344 L 49.03125 131.460938 C 49.03125 131.128906 49.300781 130.855469 49.632812 130.855469 L 63.441406 130.855469 C 63.773438 130.855469 64.042969 131.128906 64.042969 131.460938 Z M 64.042969 131.460938 " fill-opacity="1" fill-rule="nonzero"/><path fill="#0f9be8" d="M 63.125 132.179688 L 63.125 140.125 C 63.125 140.238281 63.035156 140.328125 62.917969 140.328125 L 50.15625 140.328125 C 50.039062 140.328125 49.949219 140.238281 49.949219 140.125 L 49.949219 132.179688 C 49.949219 132.0625 50.039062 131.972656 50.15625 131.972656 L 62.917969 131.972656 C 63.035156 131.972656 63.125 132.0625 63.125 132.179688 Z M 63.125 132.179688 " fill-opacity="1" fill-rule="nonzero"/><path fill="#ffffff" d="M 65.09375 141.769531 C 65.03125 142.628906 64.320312 143.300781 63.449219 143.300781 L 49.625 143.300781 C 48.753906 143.300781 48.042969 142.628906 47.980469 141.769531 C 47.976562 141.703125 48.03125 141.648438 48.097656 141.648438 L 64.976562 141.648438 C 65.042969 141.648438 65.097656 141.703125 65.09375 141.769531 Z M 65.09375 141.769531 " fill-opacity="1" fill-rule="nonzero"/><path fill="#d0f6ff" d="M 58.703125 141.648438 C 58.703125 142.105469 58.332031 142.476562 57.875 142.476562 L 55.199219 142.476562 C 54.742188 142.476562 54.371094 142.105469 54.371094 141.648438 Z M 58.703125 141.648438 " fill-opacity="1" fill-rule="nonzero"/><path fill="#ff3445" d="M 49.957031 142.476562 C 49.957031 142.640625 49.820312 142.769531 49.660156 142.769531 C 49.496094 142.769531 49.359375 142.640625 49.359375 142.476562 C 49.359375 142.308594 49.496094 142.179688 49.660156 142.179688 C 49.820312 142.179688 49.957031 142.308594 49.957031 142.476562 Z M 49.957031 142.476562 " fill-opacity="1" fill-rule="nonzero"/><path fill="#0f9be8" d="M 50.929688 142.476562 C 50.929688 142.640625 50.792969 142.769531 50.632812 142.769531 C 50.46875 142.769531 50.332031 142.640625 50.332031 142.476562 C 50.332031 142.308594 50.46875 142.179688 50.632812 142.179688 C 50.792969 142.179688 50.929688 142.308594 50.929688 142.476562 Z M 50.929688 142.476562 " fill-opacity="1" fill-rule="nonzero"/><path fill="#fed110" d="M 51.902344 142.476562 C 51.902344 142.640625 51.765625 142.769531 51.601562 142.769531 C 51.441406 142.769531 51.304688 142.640625 51.304688 142.476562 C 51.304688 142.308594 51.441406 142.179688 51.601562 142.179688 C 51.765625 142.179688 51.902344 142.308594 51.902344 142.476562 Z M 51.902344 142.476562 " fill-opacity="1" fill-rule="nonzero"/><path fill="#000000" d="M 65.09375 144.550781 C 65.09375 144.761719 61.261719 144.933594 56.539062 144.933594 C 51.8125 144.933594 47.980469 144.761719 47.980469 144.550781 C 47.980469 144.34375 51.8125 144.175781 56.539062 144.175781 C 61.261719 144.175781 65.09375 144.34375 65.09375 144.550781 Z M 65.09375 144.550781 " fill-opacity="0.1882" fill-rule="nonzero"/><path fill="#313b5a" d="M 62.101562 137.769531 L 62.101562 140.328125 L 50.972656 140.328125 L 50.972656 137.769531 C 50.972656 136.273438 51.761719 134.886719 53.050781 134.117188 L 56.539062 132.042969 L 60.023438 134.117188 C 61.3125 134.882812 62.101562 136.273438 62.101562 137.769531 Z M 62.101562 137.769531 " fill-opacity="1" fill-rule="nonzero"/><path fill="#20273a" d="M 60.390625 134.367188 L 60.390625 140.328125 L 62.101562 140.328125 L 62.101562 137.769531 C 62.101562 136.421875 61.460938 135.164062 60.390625 134.367188 Z M 60.390625 134.367188 " fill-opacity="1" fill-rule="nonzero"/><path fill="#20273a" d="M 52.683594 134.367188 L 52.683594 140.328125 L 50.972656 140.328125 L 50.972656 137.769531 C 50.972656 136.421875 51.613281 135.164062 52.683594 134.367188 Z M 52.683594 134.367188 " fill-opacity="1" fill-rule="nonzero"/><path fill="#20273a" d="M 60.976562 132.28125 C 60.539062 133.847656 58.308594 134.730469 56.539062 134.730469 C 54.742188 134.730469 52.523438 133.847656 52.09375 132.28125 C 51.964844 131.804688 52 131.261719 52.261719 130.664062 C 53.316406 128.007812 54.695312 126.382812 56.539062 126.242188 C 58.382812 126.382812 59.757812 128.007812 60.8125 130.664062 C 61.078125 131.261719 61.113281 131.804688 60.976562 132.28125 Z M 60.976562 132.28125 " fill-opacity="1" fill-rule="nonzero"/><path fill="#313b5a" d="M 60.976562 132.28125 C 60.65625 131.882812 60.035156 131.574219 59.265625 131.355469 C 57.691406 130.914062 55.488281 130.859375 53.910156 131.25 C 53.054688 131.460938 52.382812 131.804688 52.09375 132.28125 C 51.964844 131.804688 52 131.261719 52.261719 130.664062 C 53.316406 128.007812 54.695312 126.382812 56.539062 126.242188 C 58.382812 126.382812 59.757812 128.007812 60.8125 130.664062 C 61.078125 131.261719 61.113281 131.804688 60.976562 132.28125 Z M 60.976562 132.28125 " fill-opacity="1" fill-rule="nonzero"/><path fill="#ffc0a4" d="M 59.265625 131.355469 C 59.242188 131.820312 59.035156 133.691406 57.464844 134.355469 C 56.910156 134.589844 56.285156 134.59375 55.734375 134.363281 C 53.917969 133.605469 53.910156 131.25 53.910156 131.25 C 55.488281 130.859375 57.691406 130.914062 59.265625 131.355469 Z M 59.265625 131.355469 " fill-opacity="1" fill-rule="nonzero"/><path fill="#ffffff" d="M 58.488281 137.261719 L 58.488281 137.535156 C 58.488281 137.78125 58.433594 138.023438 58.335938 138.25 L 58.335938 138.648438 C 58.335938 138.878906 58.148438 139.066406 57.917969 139.066406 L 57.535156 139.066406 L 57.535156 139.367188 C 57.535156 139.476562 57.457031 139.570312 57.351562 139.574219 C 57.238281 139.582031 57.144531 139.492188 57.144531 139.378906 L 57.144531 139.140625 C 57.144531 139.097656 57.109375 139.066406 57.066406 139.066406 C 57.023438 139.066406 56.992188 139.097656 56.992188 139.140625 L 56.992188 139.367188 C 56.992188 139.476562 56.910156 139.570312 56.804688 139.574219 C 56.691406 139.582031 56.597656 139.492188 56.597656 139.378906 L 56.597656 139.140625 C 56.597656 139.097656 56.5625 139.066406 56.523438 139.066406 C 56.480469 139.066406 56.445312 139.097656 56.445312 139.140625 L 56.445312 139.367188 C 56.445312 139.476562 56.367188 139.570312 56.261719 139.574219 C 56.148438 139.582031 56.054688 139.492188 56.054688 139.378906 L 56.054688 139.140625 C 56.054688 139.097656 56.019531 139.066406 55.976562 139.066406 C 55.933594 139.066406 55.898438 139.097656 55.898438 139.140625 L 55.898438 139.367188 C 55.898438 139.476562 55.820312 139.570312 55.714844 139.574219 C 55.601562 139.582031 55.507812 139.492188 55.507812 139.378906 L 55.507812 139.066406 L 55.125 139.066406 C 54.894531 139.066406 54.707031 138.878906 54.707031 138.644531 L 54.707031 138.25 C 54.660156 138.136719 54.621094 138.019531 54.59375 137.902344 C 54.570312 137.78125 54.558594 137.660156 54.558594 137.535156 L 54.558594 137.261719 C 54.558594 136.253906 55.375 135.4375 56.378906 135.4375 C 56.378906 135.4375 56.523438 135.4375 56.523438 135.4375 L 56.664062 135.4375 C 57.671875 135.4375 58.488281 136.253906 58.488281 137.261719 Z M 58.488281 137.261719 " fill-opacity="1" fill-rule="nonzero"/><path fill="#313b5a" d="M 57.96875 137.660156 C 57.96875 137.921875 57.761719 138.132812 57.5 138.132812 C 57.238281 138.132812 56.898438 137.921875 56.898438 137.660156 C 56.898438 137.402344 57.238281 137.191406 57.5 137.191406 C 57.761719 137.191406 57.96875 137.402344 57.96875 137.660156 Z M 57.96875 137.660156 " fill-opacity="1" fill-rule="nonzero"/><path fill="#313b5a" d="M 56.152344 137.660156 C 56.152344 137.921875 55.808594 138.132812 55.550781 138.132812 C 55.289062 138.132812 55.078125 137.921875 55.078125 137.660156 C 55.078125 137.402344 55.289062 137.191406 55.550781 137.191406 C 55.808594 137.191406 56.152344 137.402344 56.152344 137.660156 Z M 56.152344 137.660156 " fill-opacity="1" fill-rule="nonzero"/><path fill="#313b5a" d="M 56.800781 138.445312 C 56.855469 138.503906 56.816406 138.597656 56.734375 138.597656 L 56.714844 138.597656 C 56.671875 138.597656 56.628906 138.578125 56.601562 138.546875 C 56.578125 138.523438 56.550781 138.511719 56.523438 138.511719 C 56.492188 138.511719 56.464844 138.523438 56.445312 138.546875 C 56.414062 138.578125 56.371094 138.597656 56.328125 138.597656 L 56.308594 138.597656 C 56.230469 138.597656 56.1875 138.503906 56.242188 138.445312 L 56.445312 138.222656 C 56.488281 138.179688 56.558594 138.179688 56.601562 138.222656 Z M 56.800781 138.445312 " fill-opacity="1" fill-rule="nonzero"/><g mask="url(#d375785cc6)"><g transform="matrix(1, 0, 0, 1, 54, 140)"><g clip-path="url(#e0efe403db)"><g fill="#7131ef" fill-opacity="0.302"><g transform="translate(1.405216, 78.074198)"><g><path d="M 27.246094 -57.765625 L 4.089844 -57.765625 L 4.089844 0 L 18.082031 0 L 18.082031 -17.019531 L 27.246094 -17.019531 C 40.664062 -17.019531 47.375 -27.246094 47.375 -37.3125 C 47.375 -47.375 40.664062 -57.765625 27.246094 -57.765625 Z M 27.246094 -30.191406 L 18.082031 -30.191406 L 18.082031 -44.183594 L 27.246094 -44.183594 C 31.582031 -44.183594 33.710938 -40.503906 33.710938 -37.066406 C 33.710938 -33.710938 31.582031 -30.191406 27.246094 -30.191406 Z M 27.246094 -30.191406 "/></g></g></g><g fill="#7131ef" fill-opacity="0.302"><g transform="translate(51.644141, 78.074198)"><g><path d="M 4.089844 -57.277344 L 4.089844 0 L 42.140625 0 L 42.140625 -13.5 L 18.082031 -13.5 L 18.082031 -57.277344 Z M 4.089844 -57.277344 "/></g></g></g><g fill="#7131ef" fill-opacity="0.502"><g transform="translate(4.418084, 79.353095)"><g><path d="M 27.246094 -57.765625 L 4.089844 -57.765625 L 4.089844 0 L 18.082031 0 L 18.082031 -17.019531 L 27.246094 -17.019531 C 40.664062 -17.019531 47.375 -27.246094 47.375 -37.3125 C 47.375 -47.375 40.664062 -57.765625 27.246094 -57.765625 Z M 27.246094 -30.191406 L 18.082031 -30.191406 L 18.082031 -44.183594 L 27.246094 -44.183594 C 31.582031 -44.183594 33.710938 -40.503906 33.710938 -37.066406 C 33.710938 -33.710938 31.582031 -30.191406 27.246094 -30.191406 Z M 27.246094 -30.191406 "/></g></g></g><g fill="#7131ef" fill-opacity="0.502"><g transform="translate(54.657009, 79.353095)"><g><path d="M 4.089844 -57.277344 L 4.089844 0 L 42.140625 0 L 42.140625 -13.5 L 18.082031 -13.5 L 18.082031 -57.277344 Z M 4.089844 -57.277344 "/></g></g></g><g fill="#000000" fill-opacity="1"><g transform="translate(7.430956, 80.631977)"><g><path d="M 27.246094 -57.765625 L 4.089844 -57.765625 L 4.089844 0 L 18.082031 0 L 18.082031 -17.019531 L 27.246094 -17.019531 C 40.664062 -17.019531 47.375 -27.246094 47.375 -37.3125 C 47.375 -47.375 40.664062 -57.765625 27.246094 -57.765625 Z M 27.246094 -30.191406 L 18.082031 -30.191406 L 18.082031 -44.183594 L 27.246094 -44.183594 C 31.582031 -44.183594 33.710938 -40.503906 33.710938 -37.066406 C 33.710938 -33.710938 31.582031 -30.191406 27.246094 -30.191406 Z M 27.246094 -30.191406 "/></g></g></g><g fill="#000000" fill-opacity="1"><g transform="translate(57.669881, 80.631977)"><g><path d="M 4.089844 -57.277344 L 4.089844 0 L 42.140625 0 L 42.140625 -13.5 L 18.082031 -13.5 L 18.082031 -57.277344 Z M 4.089844 -57.277344 "/></g></g></g><g fill="#7131ef" fill-opacity="0.302"><g transform="translate(97.048322, 78.074198)"><g/></g></g><g fill="#7131ef" fill-opacity="0.302"><g transform="translate(117.913036, 78.074198)"><g/></g></g><g fill="#7131ef" fill-opacity="0.302"><g transform="translate(138.777751, 78.074198)"><g/></g></g><g fill="#7131ef" fill-opacity="0.502"><g transform="translate(100.06119, 79.353095)"><g/></g></g><g fill="#7131ef" fill-opacity="0.502"><g transform="translate(120.925905, 79.353095)"><g/></g></g><g fill="#7131ef" fill-opacity="0.502"><g transform="translate(141.790619, 79.353095)"><g/></g></g><g fill="#000000" fill-opacity="1"><g transform="translate(103.074063, 80.631977)"><g/></g></g><g fill="#000000" fill-opacity="1"><g transform="translate(123.938777, 80.631977)"><g/></g></g><g fill="#000000" fill-opacity="1"><g transform="translate(144.803491, 80.631977)"><g/></g></g><g fill="#7131ef" fill-opacity="0.302"><g transform="translate(159.632983, 78.074198)"><g><path d="M 21.519531 -23.074219 L 21.519531 0 L 35.511719 0 L 35.511719 -23.15625 L 56.046875 -55.804688 L 56.046875 -57.277344 L 40.585938 -57.277344 L 35.347656 -48.847656 L 28.554688 -36.410156 L 22.09375 -48.113281 L 16.363281 -57.277344 L 0.980469 -57.277344 L 0.980469 -55.96875 Z M 21.519531 -23.074219 "/></g></g></g><g fill="#7131ef" fill-opacity="0.302"><g transform="translate(217.317739, 78.074198)"><g><path d="M 4.089844 -57.765625 L 4.089844 0 L 41.894531 0 L 41.894531 -13.5 L 18.164062 -13.5 L 18.164062 -22.664062 L 41.320312 -22.664062 L 41.320312 -36.246094 L 18.164062 -36.246094 L 18.164062 -44.265625 L 41.8125 -44.265625 L 41.8125 -57.765625 Z M 4.089844 -57.765625 "/></g></g></g><g fill="#7131ef" fill-opacity="0.302"><g transform="translate(263.301902, 78.074198)"><g><path d="M 4.089844 -57.765625 L 4.089844 0 L 41.894531 0 L 41.894531 -13.5 L 18.164062 -13.5 L 18.164062 -22.664062 L 41.320312 -22.664062 L 41.320312 -36.246094 L 18.164062 -36.246094 L 18.164062 -44.265625 L 41.8125 -44.265625 L 41.8125 -57.765625 Z M 4.089844 -57.765625 "/></g></g></g><g fill="#7131ef" fill-opacity="0.502"><g transform="translate(162.645852, 79.353095)"><g><path d="M 21.519531 -23.074219 L 21.519531 0 L 35.511719 0 L 35.511719 -23.15625 L 56.046875 -55.804688 L 56.046875 -57.277344 L 40.585938 -57.277344 L 35.347656 -48.847656 L 28.554688 -36.410156 L 22.09375 -48.113281 L 16.363281 -57.277344 L 0.980469 -57.277344 L 0.980469 -55.96875 Z M 21.519531 -23.074219 "/></g></g></g><g fill="#7131ef" fill-opacity="0.502"><g transform="translate(220.330607, 79.353095)"><g><path d="M 4.089844 -57.765625 L 4.089844 0 L 41.894531 0 L 41.894531 -13.5 L 18.164062 -13.5 L 18.164062 -22.664062 L 41.320312 -22.664062 L 41.320312 -36.246094 L 18.164062 -36.246094 L 18.164062 -44.265625 L 41.8125 -44.265625 L 41.8125 -57.765625 Z M 4.089844 -57.765625 "/></g></g></g><g fill="#7131ef" fill-opacity="0.502"><g transform="translate(266.314771, 79.353095)"><g><path d="M 4.089844 -57.765625 L 4.089844 0 L 41.894531 0 L 41.894531 -13.5 L 18.164062 -13.5 L 18.164062 -22.664062 L 41.320312 -22.664062 L 41.320312 -36.246094 L 18.164062 -36.246094 L 18.164062 -44.265625 L 41.8125 -44.265625 L 41.8125 -57.765625 Z M 4.089844 -57.765625 "/></g></g></g><g fill="#000000" fill-opacity="1"><g transform="translate(165.658724, 80.631977)"><g><path d="M 21.519531 -23.074219 L 21.519531 0 L 35.511719 0 L 35.511719 -23.15625 L 56.046875 -55.804688 L 56.046875 -57.277344 L 40.585938 -57.277344 L 35.347656 -48.847656 L 28.554688 -36.410156 L 22.09375 -48.113281 L 16.363281 -57.277344 L 0.980469 -57.277344 L 0.980469 -55.96875 Z M 21.519531 -23.074219 "/></g></g></g><g fill="#000000" fill-opacity="1"><g transform="translate(223.343479, 80.631977)"><g><path d="M 4.089844 -57.765625 L 4.089844 0 L 41.894531 0 L 41.894531 -13.5 L 18.164062 -13.5 L 18.164062 -22.664062 L 41.320312 -22.664062 L 41.320312 -36.246094 L 18.164062 -36.246094 L 18.164062 -44.265625 L 41.8125 -44.265625 L 41.8125 -57.765625 Z M 4.089844 -57.765625 "/></g></g></g><g fill="#000000" fill-opacity="1"><g transform="translate(269.327643, 80.631977)"><g><path d="M 4.089844 -57.765625 L 4.089844 0 L 41.894531 0 L 41.894531 -13.5 L 18.164062 -13.5 L 18.164062 -22.664062 L 41.320312 -22.664062 L 41.320312 -36.246094 L 18.164062 -36.246094 L 18.164062 -44.265625 L 41.8125 -44.265625 L 41.8125 -57.765625 Z M 4.089844 -57.765625 "/></g></g></g><g fill="#7131ef" fill-opacity="0.302"><g transform="translate(309.27906, 78.074198)"><g/></g></g><g fill="#7131ef" fill-opacity="0.502"><g transform="translate(312.291928, 79.353095)"><g/></g></g><g fill="#000000" fill-opacity="1"><g transform="translate(315.3048, 80.631977)"><g/></g></g></g></g></g><g clip-path="url(#da2d1a0c98)"><path fill="#5500ff" d="M 221.691406 192.121094 C 221.691406 193.238281 221.636719 194.355469 221.527344 195.46875 C 221.417969 196.578125 221.253906 197.683594 221.035156 198.78125 C 220.816406 199.875 220.546875 200.957031 220.21875 202.027344 C 219.894531 203.097656 219.519531 204.148438 219.09375 205.179688 C 218.664062 206.214844 218.1875 207.222656 217.660156 208.207031 C 217.132812 209.195312 216.558594 210.152344 215.9375 211.082031 C 215.316406 212.011719 214.652344 212.90625 213.945312 213.769531 C 213.234375 214.636719 212.484375 215.460938 211.695312 216.253906 C 210.90625 217.042969 210.078125 217.792969 209.214844 218.5 C 208.347656 219.210938 207.453125 219.875 206.523438 220.496094 C 205.59375 221.117188 204.636719 221.691406 203.652344 222.21875 C 202.664062 222.746094 201.65625 223.222656 200.625 223.648438 C 199.589844 224.078125 198.539062 224.453125 197.46875 224.777344 C 196.402344 225.101562 195.316406 225.375 194.222656 225.59375 C 193.125 225.808594 192.019531 225.972656 190.910156 226.082031 C 189.796875 226.191406 188.683594 226.246094 187.5625 226.246094 C 186.445312 226.246094 185.332031 226.191406 184.21875 226.082031 C 183.105469 225.972656 182.003906 225.808594 180.90625 225.59375 C 179.808594 225.375 178.726562 225.101562 177.65625 224.777344 C 176.589844 224.453125 175.539062 224.078125 174.503906 223.648438 C 173.472656 223.222656 172.464844 222.746094 171.476562 222.21875 C 170.492188 221.691406 169.535156 221.117188 168.605469 220.496094 C 167.675781 219.875 166.777344 219.210938 165.914062 218.5 C 165.050781 217.792969 164.222656 217.042969 163.433594 216.253906 C 162.644531 215.460938 161.894531 214.636719 161.183594 213.769531 C 160.476562 212.90625 159.808594 212.011719 159.191406 211.082031 C 158.570312 210.152344 157.996094 209.195312 157.46875 208.207031 C 156.941406 207.222656 156.464844 206.214844 156.035156 205.179688 C 155.609375 204.148438 155.230469 203.097656 154.90625 202.027344 C 154.582031 200.957031 154.3125 199.875 154.09375 198.78125 C 153.875 197.683594 153.710938 196.578125 153.601562 195.46875 C 153.492188 194.355469 153.4375 193.238281 153.4375 192.121094 C 153.4375 191.003906 153.492188 189.890625 153.601562 188.777344 C 153.710938 187.664062 153.875 186.558594 154.09375 185.464844 C 154.3125 184.367188 154.582031 183.285156 154.90625 182.214844 C 155.230469 181.144531 155.609375 180.09375 156.035156 179.0625 C 156.464844 178.03125 156.941406 177.019531 157.46875 176.035156 C 157.996094 175.050781 158.570312 174.09375 159.191406 173.164062 C 159.808594 172.234375 160.476562 171.335938 161.183594 170.472656 C 161.894531 169.609375 162.644531 168.78125 163.433594 167.992188 C 164.222656 167.199219 165.050781 166.453125 165.914062 165.742188 C 166.777344 165.035156 167.675781 164.367188 168.605469 163.746094 C 169.535156 163.125 170.492188 162.550781 171.476562 162.027344 C 172.464844 161.5 173.472656 161.019531 174.503906 160.59375 C 175.539062 160.164062 176.589844 159.789062 177.65625 159.464844 C 178.726562 159.140625 179.808594 158.871094 180.90625 158.652344 C 182.003906 158.433594 183.105469 158.269531 184.21875 158.160156 C 185.332031 158.050781 186.445312 157.996094 187.5625 157.996094 C 188.683594 157.996094 189.796875 158.050781 190.910156 158.160156 C 192.019531 158.269531 193.125 158.433594 194.222656 158.652344 C 195.316406 158.871094 196.402344 159.140625 197.46875 159.464844 C 198.539062 159.789062 199.589844 160.164062 200.625 160.59375 C 201.65625 161.019531 202.664062 161.5 203.652344 162.027344 C 204.636719 162.550781 205.59375 163.125 206.523438 163.746094 C 207.453125 164.367188 208.347656 165.035156 209.214844 165.742188 C 210.078125 166.453125 210.90625 167.199219 211.695312 167.992188 C 212.484375 168.78125 213.234375 169.609375 213.945312 170.472656 C 214.652344 171.335938 215.316406 172.234375 215.9375 173.164062 C 216.558594 174.09375 217.132812 175.050781 217.660156 176.035156 C 218.1875 177.019531 218.664062 178.03125 219.09375 179.0625 C 219.519531 180.09375 219.894531 181.144531 220.21875 182.214844 C 220.546875 183.285156 220.816406 184.367188 221.035156 185.464844 C 221.253906 186.558594 221.417969 187.664062 221.527344 188.777344 C 221.636719 189.890625 221.691406 191.003906 221.691406 192.121094 Z M 221.691406 192.121094 " fill-opacity="1" fill-rule="nonzero"/></g><path fill="#ffffff" d="M 210.761719 192.867188 L 210.761719 190.726562 L 215.316406 190.726562 C 215.210938 188.035156 214.726562 185.417969 213.859375 182.871094 C 212.988281 180.328125 211.773438 177.957031 210.210938 175.769531 C 213.554688 171.578125 222.179688 159.753906 221.382812 158.40625 C 220.6875 157.226562 208.355469 164.445312 203.128906 168.832031 C 200.945312 167.351562 198.597656 166.207031 196.085938 165.398438 C 193.574219 164.59375 191 164.15625 188.363281 164.085938 L 188.363281 168.347656 L 186.195312 168.347656 L 186.195312 164.085938 C 171.890625 164.785156 160.402344 176.371094 159.871094 190.722656 L 163.820312 190.722656 L 163.820312 192.867188 L 159.871094 192.867188 C 160.429688 207.238281 171.890625 218.804688 186.21875 219.5 L 186.21875 215.261719 L 188.363281 215.261719 L 188.363281 219.5 C 202.953125 219.09375 214.734375 207.410156 215.289062 192.867188 Z M 210.761719 192.867188 " fill-opacity="1" fill-rule="nonzero"/><path fill="#5500ff" d="M 185.511719 189.738281 L 175.398438 181.714844 L 171.882812 185.230469 L 187.804688 203.050781 C 194.929688 189.5625 207.433594 173.09375 217.285156 162.179688 C 211.554688 164.902344 194.050781 180.316406 185.519531 189.734375 Z M 185.511719 189.738281 " fill-opacity="1" fill-rule="evenodd"/><g fill="#000000" fill-opacity="0.4"><g transform="translate(127.62655, 274.094251)"><g><path d="M 2.71875 2.375 C 2.050781 1.914062 1.578125 1.40625 1.296875 0.84375 C 1.023438 0.28125 0.898438 -0.238281 0.921875 -0.71875 C 0.953125 -1.195312 1.054688 -1.59375 1.234375 -1.90625 C 1.429688 -2.300781 1.789062 -2.609375 2.3125 -2.828125 C 2.832031 -3.054688 3.421875 -3.179688 4.078125 -3.203125 C 4.484375 -3.222656 4.738281 -3.203125 4.84375 -3.140625 C 4.914062 -3.078125 4.953125 -2.972656 4.953125 -2.828125 C 4.960938 -2.691406 4.953125 -2.535156 4.921875 -2.359375 C 4.703125 -1.617188 4.613281 -0.957031 4.65625 -0.375 C 4.707031 0.195312 5.023438 0.6875 5.609375 1.09375 C 6.097656 1.4375 6.585938 1.585938 7.078125 1.546875 C 7.578125 1.503906 7.976562 1.273438 8.28125 0.859375 C 8.46875 0.585938 8.601562 0.203125 8.6875 -0.296875 C 8.769531 -0.804688 8.820312 -1.59375 8.84375 -2.65625 L 8.859375 -4.015625 C 8.867188 -5.203125 8.914062 -6.054688 9 -6.578125 C 9.082031 -7.109375 9.269531 -7.578125 9.5625 -7.984375 C 10.132812 -8.796875 10.90625 -9.390625 11.875 -9.765625 C 12.851562 -10.140625 13.875 -10.257812 14.9375 -10.125 C 16.007812 -9.988281 16.992188 -9.609375 17.890625 -8.984375 C 18.671875 -8.429688 19.210938 -7.8125 19.515625 -7.125 C 19.828125 -6.4375 19.796875 -5.832031 19.421875 -5.3125 C 19.148438 -4.925781 18.675781 -4.613281 18 -4.375 C 17.507812 -4.226562 17.1875 -4.210938 17.03125 -4.328125 C 16.945312 -4.390625 16.894531 -4.453125 16.875 -4.515625 C 16.863281 -4.585938 16.859375 -4.675781 16.859375 -4.78125 C 16.859375 -4.894531 16.859375 -4.992188 16.859375 -5.078125 C 16.859375 -6.078125 16.488281 -6.835938 15.75 -7.359375 C 15.269531 -7.691406 14.796875 -7.851562 14.328125 -7.84375 C 13.867188 -7.84375 13.5 -7.640625 13.21875 -7.234375 C 13 -6.929688 12.875 -6.582031 12.84375 -6.1875 C 12.820312 -5.800781 12.828125 -5.273438 12.859375 -4.609375 L 12.90625 -3.59375 L 12.96875 -2.203125 C 12.988281 -1.378906 12.9375 -0.679688 12.8125 -0.109375 C 12.695312 0.453125 12.453125 1 12.078125 1.53125 C 11.398438 2.5 10.484375 3.140625 9.328125 3.453125 C 8.179688 3.773438 7 3.820312 5.78125 3.59375 C 4.5625 3.363281 3.539062 2.957031 2.71875 2.375 Z M 2.71875 2.375 "/></g></g></g><g fill="#000000" fill-opacity="0.4"><g transform="translate(139.103465, 282.199215)"><g><path d="M 3.75 2.28125 C 2.695312 1.757812 2.0625 0.972656 1.84375 -0.078125 C 1.632812 -1.140625 1.890625 -2.390625 2.609375 -3.828125 C 3.492188 -5.617188 4.832031 -7.203125 6.625 -8.578125 C 8.425781 -9.953125 10.300781 -10.890625 12.25 -11.390625 C 14.195312 -11.898438 15.816406 -11.832031 17.109375 -11.1875 C 18.140625 -10.675781 18.753906 -9.890625 18.953125 -8.828125 C 19.148438 -7.765625 18.898438 -6.539062 18.203125 -5.15625 C 17.359375 -3.445312 16.050781 -1.882812 14.28125 -0.46875 C 12.507812 0.945312 10.648438 1.925781 8.703125 2.46875 C 6.765625 3.019531 5.113281 2.957031 3.75 2.28125 Z M 6.96875 0.28125 C 7.582031 0.582031 8.3125 0.535156 9.15625 0.140625 C 10 -0.253906 10.835938 -0.929688 11.671875 -1.890625 C 12.503906 -2.859375 13.25 -4 13.90625 -5.3125 C 14.445312 -6.414062 14.71875 -7.269531 14.71875 -7.875 C 14.71875 -8.488281 14.460938 -8.925781 13.953125 -9.1875 C 13.347656 -9.476562 12.632812 -9.441406 11.8125 -9.078125 C 10.988281 -8.722656 10.148438 -8.097656 9.296875 -7.203125 C 8.453125 -6.304688 7.707031 -5.207031 7.0625 -3.90625 C 5.9375 -1.644531 5.90625 -0.25 6.96875 0.28125 Z M 6.96875 0.28125 "/></g></g></g><g fill="#000000" fill-opacity="0.4"><g transform="translate(152.438678, 288.629412)"><g><path d="M -2.1875 9.046875 C -2.5 8.941406 -2.675781 8.804688 -2.71875 8.640625 C -2.769531 8.484375 -2.71875 8.265625 -2.5625 7.984375 L 14.296875 -24.453125 C 14.398438 -24.703125 14.816406 -24.851562 15.546875 -24.90625 C 16.273438 -24.957031 16.875 -24.90625 17.34375 -24.75 C 17.625 -24.644531 17.789062 -24.503906 17.84375 -24.328125 C 17.90625 -24.160156 17.875 -23.929688 17.75 -23.640625 L 0.859375 8.765625 C 0.734375 9.054688 0.316406 9.21875 -0.390625 9.25 C -1.097656 9.289062 -1.695312 9.222656 -2.1875 9.046875 Z M -2.1875 9.046875 "/></g></g></g><g fill="#000000" fill-opacity="0.4"><g transform="translate(161.225115, 292.091771)"><g><path d="M 4.71875 1.265625 C 3.445312 1.023438 2.988281 -0.0546875 3.34375 -1.984375 C 3.476562 -2.710938 3.78125 -3.710938 4.25 -4.984375 L 6.625 -11.421875 C 6.8125 -11.890625 6.941406 -12.296875 7.015625 -12.640625 C 7.066406 -12.941406 6.976562 -13.113281 6.75 -13.15625 C 6.519531 -13.207031 6.234375 -13.097656 5.890625 -12.828125 C 5.546875 -12.554688 5.054688 -12.023438 4.421875 -11.234375 C 4.273438 -11.054688 4.125 -10.898438 3.96875 -10.765625 C 3.8125 -10.640625 3.675781 -10.585938 3.5625 -10.609375 C 3.320312 -10.648438 3.242188 -10.878906 3.328125 -11.296875 C 3.441406 -11.921875 3.878906 -12.644531 4.640625 -13.46875 C 5.398438 -14.300781 6.257812 -14.984375 7.21875 -15.515625 C 8.1875 -16.054688 9.0625 -16.253906 9.84375 -16.109375 C 10.382812 -16.003906 10.757812 -15.757812 10.96875 -15.375 C 11.1875 -15 11.238281 -14.507812 11.125 -13.90625 C 11.09375 -13.75 11.019531 -13.507812 10.90625 -13.1875 L 7.390625 -3.03125 L 7.328125 -2.671875 C 7.285156 -2.472656 7.28125 -2.320312 7.3125 -2.21875 C 7.351562 -2.125 7.441406 -2.066406 7.578125 -2.046875 C 8.140625 -1.941406 8.882812 -2.265625 9.8125 -3.015625 C 10.75 -3.773438 11.675781 -4.796875 12.59375 -6.078125 C 13.519531 -7.359375 14.242188 -8.679688 14.765625 -10.046875 L 15.5 -11.875 C 15.832031 -12.75 16.414062 -13.398438 17.25 -13.828125 C 18.09375 -14.265625 18.953125 -14.40625 19.828125 -14.25 C 20.015625 -14.207031 20.144531 -14.15625 20.21875 -14.09375 C 20.300781 -14.03125 20.328125 -13.921875 20.296875 -13.765625 C 20.285156 -13.671875 20.1875 -13.488281 20 -13.21875 C 19.820312 -12.945312 19.59375 -12.429688 19.3125 -11.671875 C 18.9375 -10.859375 17.722656 -7.800781 15.671875 -2.5 C 15.441406 -1.976562 15.285156 -1.488281 15.203125 -1.03125 C 15.117188 -0.570312 15.222656 -0.316406 15.515625 -0.265625 C 15.898438 -0.191406 16.265625 -0.335938 16.609375 -0.703125 C 16.960938 -1.078125 17.488281 -1.738281 18.1875 -2.6875 C 18.375 -3.007812 18.554688 -3.15625 18.734375 -3.125 C 18.941406 -3.082031 19.003906 -2.859375 18.921875 -2.453125 C 18.773438 -1.648438 18.347656 -0.8125 17.640625 0.0625 C 16.941406 0.9375 16.117188 1.632812 15.171875 2.15625 C 14.222656 2.6875 13.332031 2.875 12.5 2.71875 C 11.363281 2.507812 10.925781 1.6875 11.1875 0.25 C 11.320312 -0.4375 11.632812 -1.398438 12.125 -2.640625 L 12.046875 -2.6875 C 10.816406 -1.4375 9.539062 -0.421875 8.21875 0.359375 C 6.894531 1.148438 5.726562 1.453125 4.71875 1.265625 Z M 4.71875 1.265625 "/></g></g></g><g fill="#000000" fill-opacity="0.4"><g transform="translate(180.86692, 295.42807)"><g><path d="M 5.15625 0.4375 C 4.332031 0.425781 3.726562 0.160156 3.34375 -0.359375 C 2.957031 -0.890625 2.769531 -1.722656 2.78125 -2.859375 C 2.789062 -3.578125 2.898438 -4.53125 3.109375 -5.71875 L 4.734375 -14.375 L 1.734375 -14.40625 C 1.460938 -14.40625 1.269531 -14.4375 1.15625 -14.5 C 1.039062 -14.5625 0.984375 -14.648438 0.984375 -14.765625 C 0.984375 -14.992188 1.144531 -15.304688 1.46875 -15.703125 C 1.800781 -16.097656 2.171875 -16.453125 2.578125 -16.765625 C 2.992188 -17.078125 3.335938 -17.226562 3.609375 -17.21875 L 5.3125 -17.203125 L 5.625 -19.140625 C 5.8125 -20.046875 6.335938 -20.851562 7.203125 -21.5625 C 8.066406 -22.269531 8.90625 -22.617188 9.71875 -22.609375 C 9.914062 -22.609375 10.078125 -22.570312 10.203125 -22.5 C 10.328125 -22.425781 10.382812 -22.316406 10.375 -22.171875 C 10.375 -22.066406 10.242188 -21.796875 9.984375 -21.359375 C 9.734375 -20.929688 9.539062 -20.335938 9.40625 -19.578125 L 8.984375 -17.171875 L 12.140625 -17.125 C 12.429688 -17.125 12.625 -17.101562 12.71875 -17.0625 C 12.820312 -17.03125 12.867188 -16.953125 12.859375 -16.828125 C 12.859375 -16.585938 12.679688 -16.257812 12.328125 -15.84375 C 11.984375 -15.4375 11.585938 -15.078125 11.140625 -14.765625 C 10.691406 -14.453125 10.359375 -14.300781 10.140625 -14.3125 L 8.46875 -14.328125 L 6.875 -5.515625 C 6.695312 -4.648438 6.609375 -3.984375 6.609375 -3.515625 C 6.597656 -3.171875 6.644531 -2.929688 6.75 -2.796875 C 6.863281 -2.660156 7.035156 -2.59375 7.265625 -2.59375 C 8.078125 -2.582031 8.847656 -3.238281 9.578125 -4.5625 C 9.660156 -4.726562 9.738281 -4.851562 9.8125 -4.9375 C 9.882812 -5.03125 9.96875 -5.078125 10.0625 -5.078125 C 10.3125 -5.066406 10.429688 -4.851562 10.421875 -4.4375 C 10.421875 -3.789062 10.164062 -3.082031 9.65625 -2.3125 C 9.15625 -1.539062 8.5 -0.882812 7.6875 -0.34375 C 6.882812 0.1875 6.039062 0.445312 5.15625 0.4375 Z M 5.15625 0.4375 "/></g></g></g><g fill="#000000" fill-opacity="0.4"><g transform="translate(193.598, 295.526298)"><g><path d="M 3.59375 -19.421875 C 3.414062 -19.398438 3.300781 -19.414062 3.25 -19.46875 C 3.195312 -19.53125 3.171875 -19.648438 3.171875 -19.828125 L 3.359375 -22.796875 C 3.410156 -23.585938 3.679688 -24.253906 4.171875 -24.796875 C 4.660156 -25.347656 5.40625 -25.679688 6.40625 -25.796875 L 6.703125 -25.828125 C 6.972656 -25.859375 7.113281 -25.734375 7.125 -25.453125 L 6.921875 -22.5 C 6.828125 -20.695312 5.800781 -19.679688 3.84375 -19.453125 Z M 4.203125 -0.09375 C 3.003906 0.0390625 2.3125 -0.703125 2.125 -2.328125 C 2.070312 -2.773438 2.066406 -3.367188 2.109375 -4.109375 L 2.875 -13.234375 C 2.863281 -13.679688 2.851562 -13.953125 2.84375 -14.046875 C 2.800781 -14.390625 2.671875 -14.546875 2.453125 -14.515625 C 2.234375 -14.492188 2 -14.289062 1.75 -13.90625 C 1.5 -13.519531 1.1875 -12.894531 0.8125 -12.03125 C 0.78125 -11.96875 0.734375 -11.847656 0.671875 -11.671875 C 0.609375 -11.503906 0.539062 -11.378906 0.46875 -11.296875 C 0.394531 -11.222656 0.320312 -11.179688 0.25 -11.171875 C 0.0390625 -11.148438 -0.0820312 -11.335938 -0.125 -11.734375 C -0.195312 -12.429688 0.00390625 -13.28125 0.484375 -14.28125 C 0.960938 -15.289062 1.601562 -16.191406 2.40625 -16.984375 C 3.21875 -17.773438 4.035156 -18.21875 4.859375 -18.3125 C 5.898438 -18.425781 6.5 -17.796875 6.65625 -16.421875 C 6.695312 -16.023438 6.6875 -15.34375 6.625 -14.375 L 5.84375 -4.65625 C 5.820312 -4.457031 5.8125 -4.320312 5.8125 -4.25 C 5.851562 -3.945312 6.007812 -3.8125 6.28125 -3.84375 C 6.601562 -3.875 6.9375 -4.171875 7.28125 -4.734375 C 7.625 -5.296875 7.929688 -6.039062 8.203125 -6.96875 C 8.285156 -7.320312 8.410156 -7.503906 8.578125 -7.515625 C 8.796875 -7.546875 8.929688 -7.359375 8.984375 -6.953125 C 9.078125 -6.085938 8.894531 -5.140625 8.4375 -4.109375 C 7.988281 -3.078125 7.378906 -2.171875 6.609375 -1.390625 C 5.847656 -0.617188 5.046875 -0.1875 4.203125 -0.09375 Z M 4.203125 -0.09375 "/></g></g></g><g fill="#000000" fill-opacity="0.4"><g transform="translate(204.769784, 294.383078)"><g><path d="M 4.328125 -0.71875 C 3.203125 -0.425781 2.207031 -0.613281 1.34375 -1.28125 C 0.488281 -1.945312 -0.132812 -3.054688 -0.53125 -4.609375 C -1.019531 -6.546875 -1.03125 -8.617188 -0.5625 -10.828125 C -0.09375 -13.035156 0.710938 -14.96875 1.859375 -16.625 C 3.015625 -18.28125 4.289062 -19.285156 5.6875 -19.640625 C 6.800781 -19.929688 7.773438 -19.734375 8.609375 -19.046875 C 9.453125 -18.367188 10.0625 -17.28125 10.4375 -15.78125 C 10.90625 -13.9375 10.929688 -11.898438 10.515625 -9.671875 C 10.109375 -7.453125 9.347656 -5.5 8.234375 -3.8125 C 7.117188 -2.125 5.816406 -1.09375 4.328125 -0.71875 Z M 5.46875 -4.34375 C 6.132812 -4.507812 6.65625 -5.015625 7.03125 -5.859375 C 7.40625 -6.710938 7.59375 -7.773438 7.59375 -9.046875 C 7.601562 -10.328125 7.425781 -11.671875 7.0625 -13.078125 C 6.757812 -14.273438 6.410156 -15.101562 6.015625 -15.5625 C 5.617188 -16.019531 5.140625 -16.179688 4.578125 -16.046875 C 3.929688 -15.878906 3.414062 -15.394531 3.03125 -14.59375 C 2.644531 -13.800781 2.421875 -12.785156 2.359375 -11.546875 C 2.304688 -10.316406 2.457031 -8.992188 2.8125 -7.578125 C 3.4375 -5.128906 4.320312 -4.050781 5.46875 -4.34375 Z M 5.46875 -4.34375 "/></g></g></g><g fill="#000000" fill-opacity="0.4"><g transform="translate(219.917469, 290.671717)"><g><path d="M 2.53125 -0.765625 C 2.175781 -0.597656 1.941406 -0.640625 1.828125 -0.890625 C 1.785156 -0.984375 1.734375 -1.242188 1.671875 -1.671875 C 1.648438 -2.015625 1.550781 -2.648438 1.375 -3.578125 C 1.21875 -4.304688 0.890625 -5.585938 0.390625 -7.421875 C -0.109375 -9.253906 -0.609375 -11.035156 -1.109375 -12.765625 C -1.328125 -13.535156 -1.484375 -14.019531 -1.578125 -14.21875 C -1.734375 -14.5625 -1.914062 -14.6875 -2.125 -14.59375 C -2.320312 -14.5 -2.492188 -14.203125 -2.640625 -13.703125 C -2.796875 -13.210938 -2.894531 -12.546875 -2.9375 -11.703125 C -2.957031 -11.484375 -2.988281 -11.273438 -3.03125 -11.078125 C -3.070312 -10.878906 -3.144531 -10.753906 -3.25 -10.703125 C -3.476562 -10.597656 -3.679688 -10.738281 -3.859375 -11.125 C -4.140625 -11.726562 -4.210938 -12.582031 -4.078125 -13.6875 C -3.953125 -14.789062 -3.648438 -15.835938 -3.171875 -16.828125 C -2.691406 -17.816406 -2.09375 -18.476562 -1.375 -18.8125 C -0.925781 -19.019531 -0.492188 -19.03125 -0.078125 -18.84375 C 0.328125 -18.65625 0.691406 -18.222656 1.015625 -17.546875 C 1.410156 -16.671875 1.78125 -15.628906 2.125 -14.421875 L 2.171875 -14.4375 C 3.035156 -18.851562 4.285156 -21.441406 5.921875 -22.203125 C 7.066406 -22.734375 8.003906 -22.207031 8.734375 -20.625 C 9.054688 -19.925781 9.351562 -19.015625 9.625 -17.890625 C 10.300781 -15.023438 10.789062 -13.003906 11.09375 -11.828125 C 11.394531 -10.660156 11.597656 -9.960938 11.703125 -9.734375 C 11.921875 -9.253906 12.164062 -9.070312 12.4375 -9.1875 C 13.070312 -9.488281 13.300781 -10.660156 13.125 -12.703125 C 13.125 -13.085938 13.195312 -13.3125 13.34375 -13.375 C 13.625 -13.507812 13.867188 -13.285156 14.078125 -12.703125 C 14.347656 -11.867188 14.4375 -10.910156 14.34375 -9.828125 C 14.25 -8.753906 13.96875 -7.769531 13.5 -6.875 C 13.03125 -5.976562 12.425781 -5.359375 11.6875 -5.015625 C 10.582031 -4.503906 9.6875 -4.992188 9 -6.484375 C 8.726562 -7.066406 8.46875 -7.800781 8.21875 -8.6875 C 7.96875 -9.582031 7.675781 -10.742188 7.34375 -12.171875 C 7.113281 -13.117188 6.867188 -14.0625 6.609375 -15 C 6.347656 -15.945312 6.101562 -16.691406 5.875 -17.234375 L 5.75 -17.5 C 5.582031 -17.851562 5.390625 -17.984375 5.171875 -17.890625 C 4.785156 -17.703125 4.441406 -17.054688 4.140625 -15.953125 C 3.835938 -14.859375 3.664062 -13.578125 3.625 -12.109375 C 3.582031 -10.640625 3.707031 -9.304688 4 -8.109375 L 4.734375 -5.140625 C 4.898438 -4.410156 4.753906 -3.582031 4.296875 -2.65625 C 3.835938 -1.726562 3.25 -1.097656 2.53125 -0.765625 Z M 2.53125 -0.765625 "/></g></g></g><g fill="#000000" fill-opacity="0.4"><g transform="translate(237.853386, 282.008889)"><g><path d="M 3.15625 -1.75 C 2.488281 -1.289062 1.84375 -1.023438 1.21875 -0.953125 C 0.601562 -0.878906 0.078125 -0.9375 -0.359375 -1.125 C -0.804688 -1.3125 -1.140625 -1.539062 -1.359375 -1.8125 C -1.679688 -2.125 -1.859375 -2.5625 -1.890625 -3.125 C -1.921875 -3.695312 -1.835938 -4.296875 -1.640625 -4.921875 C -1.523438 -5.316406 -1.414062 -5.546875 -1.3125 -5.609375 C -1.238281 -5.671875 -1.128906 -5.675781 -0.984375 -5.625 C -0.847656 -5.582031 -0.703125 -5.515625 -0.546875 -5.421875 C 0.0664062 -4.972656 0.648438 -4.671875 1.203125 -4.515625 C 1.765625 -4.367188 2.335938 -4.5 2.921875 -4.90625 C 3.410156 -5.25 3.71875 -5.664062 3.84375 -6.15625 C 3.976562 -6.644531 3.894531 -7.097656 3.59375 -7.515625 C 3.40625 -7.785156 3.085938 -8.039062 2.640625 -8.28125 C 2.191406 -8.53125 1.46875 -8.84375 0.46875 -9.21875 L -0.796875 -9.671875 C -1.910156 -10.109375 -2.703125 -10.453125 -3.171875 -10.703125 C -3.640625 -10.960938 -4.019531 -11.296875 -4.3125 -11.703125 C -4.882812 -12.515625 -5.175781 -13.441406 -5.1875 -14.484375 C -5.207031 -15.523438 -4.972656 -16.523438 -4.484375 -17.484375 C -4.003906 -18.441406 -3.316406 -19.234375 -2.421875 -19.859375 C -1.640625 -20.410156 -0.875 -20.71875 -0.125 -20.78125 C 0.613281 -20.84375 1.171875 -20.613281 1.546875 -20.09375 C 1.816406 -19.707031 1.945312 -19.144531 1.9375 -18.40625 C 1.90625 -17.90625 1.8125 -17.597656 1.65625 -17.484375 C 1.570312 -17.421875 1.492188 -17.394531 1.421875 -17.40625 C 1.359375 -17.425781 1.273438 -17.453125 1.171875 -17.484375 C 1.066406 -17.523438 0.972656 -17.554688 0.890625 -17.578125 C -0.046875 -17.910156 -0.882812 -17.816406 -1.625 -17.296875 C -2.101562 -16.960938 -2.414062 -16.578125 -2.5625 -16.140625 C -2.71875 -15.710938 -2.65625 -15.296875 -2.375 -14.890625 C -2.15625 -14.585938 -1.863281 -14.351562 -1.5 -14.1875 C -1.144531 -14.03125 -0.648438 -13.859375 -0.015625 -13.671875 L 0.96875 -13.375 L 2.3125 -12.953125 C 3.082031 -12.691406 3.710938 -12.40625 4.203125 -12.09375 C 4.703125 -11.789062 5.140625 -11.375 5.515625 -10.84375 C 6.191406 -9.875 6.484375 -8.796875 6.390625 -7.609375 C 6.304688 -6.429688 5.953125 -5.304688 5.328125 -4.234375 C 4.703125 -3.160156 3.976562 -2.332031 3.15625 -1.75 Z M 3.15625 -1.75 "/></g></g></g><g fill="#5500ff" fill-opacity="1"><g transform="translate(127.234427, 272.955451)"><g><path d="M 2.71875 2.375 C 2.050781 1.914062 1.578125 1.40625 1.296875 0.84375 C 1.023438 0.28125 0.898438 -0.238281 0.921875 -0.71875 C 0.953125 -1.195312 1.054688 -1.59375 1.234375 -1.90625 C 1.429688 -2.300781 1.789062 -2.609375 2.3125 -2.828125 C 2.832031 -3.054688 3.421875 -3.179688 4.078125 -3.203125 C 4.484375 -3.222656 4.738281 -3.203125 4.84375 -3.140625 C 4.914062 -3.078125 4.953125 -2.972656 4.953125 -2.828125 C 4.960938 -2.691406 4.953125 -2.535156 4.921875 -2.359375 C 4.703125 -1.617188 4.613281 -0.957031 4.65625 -0.375 C 4.707031 0.195312 5.023438 0.6875 5.609375 1.09375 C 6.097656 1.4375 6.585938 1.585938 7.078125 1.546875 C 7.578125 1.503906 7.976562 1.273438 8.28125 0.859375 C 8.46875 0.585938 8.601562 0.203125 8.6875 -0.296875 C 8.769531 -0.804688 8.820312 -1.59375 8.84375 -2.65625 L 8.859375 -4.015625 C 8.867188 -5.203125 8.914062 -6.054688 9 -6.578125 C 9.082031 -7.109375 9.269531 -7.578125 9.5625 -7.984375 C 10.132812 -8.796875 10.90625 -9.390625 11.875 -9.765625 C 12.851562 -10.140625 13.875 -10.257812 14.9375 -10.125 C 16.007812 -9.988281 16.992188 -9.609375 17.890625 -8.984375 C 18.671875 -8.429688 19.210938 -7.8125 19.515625 -7.125 C 19.828125 -6.4375 19.796875 -5.832031 19.421875 -5.3125 C 19.148438 -4.925781 18.675781 -4.613281 18 -4.375 C 17.507812 -4.226562 17.1875 -4.210938 17.03125 -4.328125 C 16.945312 -4.390625 16.894531 -4.453125 16.875 -4.515625 C 16.863281 -4.585938 16.859375 -4.675781 16.859375 -4.78125 C 16.859375 -4.894531 16.859375 -4.992188 16.859375 -5.078125 C 16.859375 -6.078125 16.488281 -6.835938 15.75 -7.359375 C 15.269531 -7.691406 14.796875 -7.851562 14.328125 -7.84375 C 13.867188 -7.84375 13.5 -7.640625 13.21875 -7.234375 C 13 -6.929688 12.875 -6.582031 12.84375 -6.1875 C 12.820312 -5.800781 12.828125 -5.273438 12.859375 -4.609375 L 12.90625 -3.59375 L 12.96875 -2.203125 C 12.988281 -1.378906 12.9375 -0.679688 12.8125 -0.109375 C 12.695312 0.453125 12.453125 1 12.078125 1.53125 C 11.398438 2.5 10.484375 3.140625 9.328125 3.453125 C 8.179688 3.773438 7 3.820312 5.78125 3.59375 C 4.5625 3.363281 3.539062 2.957031 2.71875 2.375 Z M 2.71875 2.375 "/></g></g></g><g fill="#5500ff" fill-opacity="1"><g transform="translate(138.711341, 281.060446)"><g><path d="M 3.75 2.28125 C 2.695312 1.757812 2.0625 0.972656 1.84375 -0.078125 C 1.632812 -1.140625 1.890625 -2.390625 2.609375 -3.828125 C 3.492188 -5.617188 4.832031 -7.203125 6.625 -8.578125 C 8.425781 -9.953125 10.300781 -10.890625 12.25 -11.390625 C 14.195312 -11.898438 15.816406 -11.832031 17.109375 -11.1875 C 18.140625 -10.675781 18.753906 -9.890625 18.953125 -8.828125 C 19.148438 -7.765625 18.898438 -6.539062 18.203125 -5.15625 C 17.359375 -3.445312 16.050781 -1.882812 14.28125 -0.46875 C 12.507812 0.945312 10.648438 1.925781 8.703125 2.46875 C 6.765625 3.019531 5.113281 2.957031 3.75 2.28125 Z M 6.96875 0.28125 C 7.582031 0.582031 8.3125 0.535156 9.15625 0.140625 C 10 -0.253906 10.835938 -0.929688 11.671875 -1.890625 C 12.503906 -2.859375 13.25 -4 13.90625 -5.3125 C 14.445312 -6.414062 14.71875 -7.269531 14.71875 -7.875 C 14.71875 -8.488281 14.460938 -8.925781 13.953125 -9.1875 C 13.347656 -9.476562 12.632812 -9.441406 11.8125 -9.078125 C 10.988281 -8.722656 10.148438 -8.097656 9.296875 -7.203125 C 8.453125 -6.304688 7.707031 -5.207031 7.0625 -3.90625 C 5.9375 -1.644531 5.90625 -0.25 6.96875 0.28125 Z M 6.96875 0.28125 "/></g></g></g><g fill="#5500ff" fill-opacity="1"><g transform="translate(152.046554, 287.490612)"><g><path d="M -2.1875 9.046875 C -2.5 8.941406 -2.675781 8.804688 -2.71875 8.640625 C -2.769531 8.484375 -2.71875 8.265625 -2.5625 7.984375 L 14.296875 -24.453125 C 14.398438 -24.703125 14.816406 -24.851562 15.546875 -24.90625 C 16.273438 -24.957031 16.875 -24.90625 17.34375 -24.75 C 17.625 -24.644531 17.789062 -24.503906 17.84375 -24.328125 C 17.90625 -24.160156 17.875 -23.929688 17.75 -23.640625 L 0.859375 8.765625 C 0.734375 9.054688 0.316406 9.21875 -0.390625 9.25 C -1.097656 9.289062 -1.695312 9.222656 -2.1875 9.046875 Z M -2.1875 9.046875 "/></g></g></g><g fill="#5500ff" fill-opacity="1"><g transform="translate(160.833005, 290.953)"><g><path d="M 4.71875 1.265625 C 3.445312 1.023438 2.988281 -0.0546875 3.34375 -1.984375 C 3.476562 -2.710938 3.78125 -3.710938 4.25 -4.984375 L 6.625 -11.421875 C 6.8125 -11.890625 6.941406 -12.296875 7.015625 -12.640625 C 7.066406 -12.941406 6.976562 -13.113281 6.75 -13.15625 C 6.519531 -13.207031 6.234375 -13.097656 5.890625 -12.828125 C 5.546875 -12.554688 5.054688 -12.023438 4.421875 -11.234375 C 4.273438 -11.054688 4.125 -10.898438 3.96875 -10.765625 C 3.8125 -10.640625 3.675781 -10.585938 3.5625 -10.609375 C 3.320312 -10.648438 3.242188 -10.878906 3.328125 -11.296875 C 3.441406 -11.921875 3.878906 -12.644531 4.640625 -13.46875 C 5.398438 -14.300781 6.257812 -14.984375 7.21875 -15.515625 C 8.1875 -16.054688 9.0625 -16.253906 9.84375 -16.109375 C 10.382812 -16.003906 10.757812 -15.757812 10.96875 -15.375 C 11.1875 -15 11.238281 -14.507812 11.125 -13.90625 C 11.09375 -13.75 11.019531 -13.507812 10.90625 -13.1875 L 7.390625 -3.03125 L 7.328125 -2.671875 C 7.285156 -2.472656 7.28125 -2.320312 7.3125 -2.21875 C 7.351562 -2.125 7.441406 -2.066406 7.578125 -2.046875 C 8.140625 -1.941406 8.882812 -2.265625 9.8125 -3.015625 C 10.75 -3.773438 11.675781 -4.796875 12.59375 -6.078125 C 13.519531 -7.359375 14.242188 -8.679688 14.765625 -10.046875 L 15.5 -11.875 C 15.832031 -12.75 16.414062 -13.398438 17.25 -13.828125 C 18.09375 -14.265625 18.953125 -14.40625 19.828125 -14.25 C 20.015625 -14.207031 20.144531 -14.15625 20.21875 -14.09375 C 20.300781 -14.03125 20.328125 -13.921875 20.296875 -13.765625 C 20.285156 -13.671875 20.1875 -13.488281 20 -13.21875 C 19.820312 -12.945312 19.59375 -12.429688 19.3125 -11.671875 C 18.9375 -10.859375 17.722656 -7.800781 15.671875 -2.5 C 15.441406 -1.976562 15.285156 -1.488281 15.203125 -1.03125 C 15.117188 -0.570312 15.222656 -0.316406 15.515625 -0.265625 C 15.898438 -0.191406 16.265625 -0.335938 16.609375 -0.703125 C 16.960938 -1.078125 17.488281 -1.738281 18.1875 -2.6875 C 18.375 -3.007812 18.554688 -3.15625 18.734375 -3.125 C 18.941406 -3.082031 19.003906 -2.859375 18.921875 -2.453125 C 18.773438 -1.648438 18.347656 -0.8125 17.640625 0.0625 C 16.941406 0.9375 16.117188 1.632812 15.171875 2.15625 C 14.222656 2.6875 13.332031 2.875 12.5 2.71875 C 11.363281 2.507812 10.925781 1.6875 11.1875 0.25 C 11.320312 -0.4375 11.632812 -1.398438 12.125 -2.640625 L 12.046875 -2.6875 C 10.816406 -1.4375 9.539062 -0.421875 8.21875 0.359375 C 6.894531 1.148438 5.726562 1.453125 4.71875 1.265625 Z M 4.71875 1.265625 "/></g></g></g><g fill="#5500ff" fill-opacity="1"><g transform="translate(180.474796, 294.289271)"><g><path d="M 5.15625 0.4375 C 4.332031 0.425781 3.726562 0.160156 3.34375 -0.359375 C 2.957031 -0.890625 2.769531 -1.722656 2.78125 -2.859375 C 2.789062 -3.578125 2.898438 -4.53125 3.109375 -5.71875 L 4.734375 -14.375 L 1.734375 -14.40625 C 1.460938 -14.40625 1.269531 -14.4375 1.15625 -14.5 C 1.039062 -14.5625 0.984375 -14.648438 0.984375 -14.765625 C 0.984375 -14.992188 1.144531 -15.304688 1.46875 -15.703125 C 1.800781 -16.097656 2.171875 -16.453125 2.578125 -16.765625 C 2.992188 -17.078125 3.335938 -17.226562 3.609375 -17.21875 L 5.3125 -17.203125 L 5.625 -19.140625 C 5.8125 -20.046875 6.335938 -20.851562 7.203125 -21.5625 C 8.066406 -22.269531 8.90625 -22.617188 9.71875 -22.609375 C 9.914062 -22.609375 10.078125 -22.570312 10.203125 -22.5 C 10.328125 -22.425781 10.382812 -22.316406 10.375 -22.171875 C 10.375 -22.066406 10.242188 -21.796875 9.984375 -21.359375 C 9.734375 -20.929688 9.539062 -20.335938 9.40625 -19.578125 L 8.984375 -17.171875 L 12.140625 -17.125 C 12.429688 -17.125 12.625 -17.101562 12.71875 -17.0625 C 12.820312 -17.03125 12.867188 -16.953125 12.859375 -16.828125 C 12.859375 -16.585938 12.679688 -16.257812 12.328125 -15.84375 C 11.984375 -15.4375 11.585938 -15.078125 11.140625 -14.765625 C 10.691406 -14.453125 10.359375 -14.300781 10.140625 -14.3125 L 8.46875 -14.328125 L 6.875 -5.515625 C 6.695312 -4.648438 6.609375 -3.984375 6.609375 -3.515625 C 6.597656 -3.171875 6.644531 -2.929688 6.75 -2.796875 C 6.863281 -2.660156 7.035156 -2.59375 7.265625 -2.59375 C 8.078125 -2.582031 8.847656 -3.238281 9.578125 -4.5625 C 9.660156 -4.726562 9.738281 -4.851562 9.8125 -4.9375 C 9.882812 -5.03125 9.96875 -5.078125 10.0625 -5.078125 C 10.3125 -5.066406 10.429688 -4.851562 10.421875 -4.4375 C 10.421875 -3.789062 10.164062 -3.082031 9.65625 -2.3125 C 9.15625 -1.539062 8.5 -0.882812 7.6875 -0.34375 C 6.882812 0.1875 6.039062 0.445312 5.15625 0.4375 Z M 5.15625 0.4375 "/></g></g></g><g fill="#5500ff" fill-opacity="1"><g transform="translate(193.205876, 294.387501)"><g><path d="M 3.59375 -19.421875 C 3.414062 -19.398438 3.300781 -19.414062 3.25 -19.46875 C 3.195312 -19.53125 3.171875 -19.648438 3.171875 -19.828125 L 3.359375 -22.796875 C 3.410156 -23.585938 3.679688 -24.253906 4.171875 -24.796875 C 4.660156 -25.347656 5.40625 -25.679688 6.40625 -25.796875 L 6.703125 -25.828125 C 6.972656 -25.859375 7.113281 -25.734375 7.125 -25.453125 L 6.921875 -22.5 C 6.828125 -20.695312 5.800781 -19.679688 3.84375 -19.453125 Z M 4.203125 -0.09375 C 3.003906 0.0390625 2.3125 -0.703125 2.125 -2.328125 C 2.070312 -2.773438 2.066406 -3.367188 2.109375 -4.109375 L 2.875 -13.234375 C 2.863281 -13.679688 2.851562 -13.953125 2.84375 -14.046875 C 2.800781 -14.390625 2.671875 -14.546875 2.453125 -14.515625 C 2.234375 -14.492188 2 -14.289062 1.75 -13.90625 C 1.5 -13.519531 1.1875 -12.894531 0.8125 -12.03125 C 0.78125 -11.96875 0.734375 -11.847656 0.671875 -11.671875 C 0.609375 -11.503906 0.539062 -11.378906 0.46875 -11.296875 C 0.394531 -11.222656 0.320312 -11.179688 0.25 -11.171875 C 0.0390625 -11.148438 -0.0820312 -11.335938 -0.125 -11.734375 C -0.195312 -12.429688 0.00390625 -13.28125 0.484375 -14.28125 C 0.960938 -15.289062 1.601562 -16.191406 2.40625 -16.984375 C 3.21875 -17.773438 4.035156 -18.21875 4.859375 -18.3125 C 5.898438 -18.425781 6.5 -17.796875 6.65625 -16.421875 C 6.695312 -16.023438 6.6875 -15.34375 6.625 -14.375 L 5.84375 -4.65625 C 5.820312 -4.457031 5.8125 -4.320312 5.8125 -4.25 C 5.851562 -3.945312 6.007812 -3.8125 6.28125 -3.84375 C 6.601562 -3.875 6.9375 -4.171875 7.28125 -4.734375 C 7.625 -5.296875 7.929688 -6.039062 8.203125 -6.96875 C 8.285156 -7.320312 8.410156 -7.503906 8.578125 -7.515625 C 8.796875 -7.546875 8.929688 -7.359375 8.984375 -6.953125 C 9.078125 -6.085938 8.894531 -5.140625 8.4375 -4.109375 C 7.988281 -3.078125 7.378906 -2.171875 6.609375 -1.390625 C 5.847656 -0.617188 5.046875 -0.1875 4.203125 -0.09375 Z M 4.203125 -0.09375 "/></g></g></g><g fill="#5500ff" fill-opacity="1"><g transform="translate(204.37766, 293.244307)"><g><path d="M 4.328125 -0.71875 C 3.203125 -0.425781 2.207031 -0.613281 1.34375 -1.28125 C 0.488281 -1.945312 -0.132812 -3.054688 -0.53125 -4.609375 C -1.019531 -6.546875 -1.03125 -8.617188 -0.5625 -10.828125 C -0.09375 -13.035156 0.710938 -14.96875 1.859375 -16.625 C 3.015625 -18.28125 4.289062 -19.285156 5.6875 -19.640625 C 6.800781 -19.929688 7.773438 -19.734375 8.609375 -19.046875 C 9.453125 -18.367188 10.0625 -17.28125 10.4375 -15.78125 C 10.90625 -13.9375 10.929688 -11.898438 10.515625 -9.671875 C 10.109375 -7.453125 9.347656 -5.5 8.234375 -3.8125 C 7.117188 -2.125 5.816406 -1.09375 4.328125 -0.71875 Z M 5.46875 -4.34375 C 6.132812 -4.507812 6.65625 -5.015625 7.03125 -5.859375 C 7.40625 -6.710938 7.59375 -7.773438 7.59375 -9.046875 C 7.601562 -10.328125 7.425781 -11.671875 7.0625 -13.078125 C 6.757812 -14.273438 6.410156 -15.101562 6.015625 -15.5625 C 5.617188 -16.019531 5.140625 -16.179688 4.578125 -16.046875 C 3.929688 -15.878906 3.414062 -15.394531 3.03125 -14.59375 C 2.644531 -13.800781 2.421875 -12.785156 2.359375 -11.546875 C 2.304688 -10.316406 2.457031 -8.992188 2.8125 -7.578125 C 3.4375 -5.128906 4.320312 -4.050781 5.46875 -4.34375 Z M 5.46875 -4.34375 "/></g></g></g><g fill="#5500ff" fill-opacity="1"><g transform="translate(219.525374, 289.532919)"><g><path d="M 2.53125 -0.765625 C 2.175781 -0.597656 1.941406 -0.640625 1.828125 -0.890625 C 1.785156 -0.984375 1.734375 -1.242188 1.671875 -1.671875 C 1.648438 -2.015625 1.550781 -2.648438 1.375 -3.578125 C 1.21875 -4.304688 0.890625 -5.585938 0.390625 -7.421875 C -0.109375 -9.253906 -0.609375 -11.035156 -1.109375 -12.765625 C -1.328125 -13.535156 -1.484375 -14.019531 -1.578125 -14.21875 C -1.734375 -14.5625 -1.914062 -14.6875 -2.125 -14.59375 C -2.320312 -14.5 -2.492188 -14.203125 -2.640625 -13.703125 C -2.796875 -13.210938 -2.894531 -12.546875 -2.9375 -11.703125 C -2.957031 -11.484375 -2.988281 -11.273438 -3.03125 -11.078125 C -3.070312 -10.878906 -3.144531 -10.753906 -3.25 -10.703125 C -3.476562 -10.597656 -3.679688 -10.738281 -3.859375 -11.125 C -4.140625 -11.726562 -4.210938 -12.582031 -4.078125 -13.6875 C -3.953125 -14.789062 -3.648438 -15.835938 -3.171875 -16.828125 C -2.691406 -17.816406 -2.09375 -18.476562 -1.375 -18.8125 C -0.925781 -19.019531 -0.492188 -19.03125 -0.078125 -18.84375 C 0.328125 -18.65625 0.691406 -18.222656 1.015625 -17.546875 C 1.410156 -16.671875 1.78125 -15.628906 2.125 -14.421875 L 2.171875 -14.4375 C 3.035156 -18.851562 4.285156 -21.441406 5.921875 -22.203125 C 7.066406 -22.734375 8.003906 -22.207031 8.734375 -20.625 C 9.054688 -19.925781 9.351562 -19.015625 9.625 -17.890625 C 10.300781 -15.023438 10.789062 -13.003906 11.09375 -11.828125 C 11.394531 -10.660156 11.597656 -9.960938 11.703125 -9.734375 C 11.921875 -9.253906 12.164062 -9.070312 12.4375 -9.1875 C 13.070312 -9.488281 13.300781 -10.660156 13.125 -12.703125 C 13.125 -13.085938 13.195312 -13.3125 13.34375 -13.375 C 13.625 -13.507812 13.867188 -13.285156 14.078125 -12.703125 C 14.347656 -11.867188 14.4375 -10.910156 14.34375 -9.828125 C 14.25 -8.753906 13.96875 -7.769531 13.5 -6.875 C 13.03125 -5.976562 12.425781 -5.359375 11.6875 -5.015625 C 10.582031 -4.503906 9.6875 -4.992188 9 -6.484375 C 8.726562 -7.066406 8.46875 -7.800781 8.21875 -8.6875 C 7.96875 -9.582031 7.675781 -10.742188 7.34375 -12.171875 C 7.113281 -13.117188 6.867188 -14.0625 6.609375 -15 C 6.347656 -15.945312 6.101562 -16.691406 5.875 -17.234375 L 5.75 -17.5 C 5.582031 -17.851562 5.390625 -17.984375 5.171875 -17.890625 C 4.785156 -17.703125 4.441406 -17.054688 4.140625 -15.953125 C 3.835938 -14.859375 3.664062 -13.578125 3.625 -12.109375 C 3.582031 -10.640625 3.707031 -9.304688 4 -8.109375 L 4.734375 -5.140625 C 4.898438 -4.410156 4.753906 -3.582031 4.296875 -2.65625 C 3.835938 -1.726562 3.25 -1.097656 2.53125 -0.765625 Z M 2.53125 -0.765625 "/></g></g></g><g fill="#5500ff" fill-opacity="1"><g transform="translate(237.461262, 280.870089)"><g><path d="M 3.15625 -1.75 C 2.488281 -1.289062 1.84375 -1.023438 1.21875 -0.953125 C 0.601562 -0.878906 0.078125 -0.9375 -0.359375 -1.125 C -0.804688 -1.3125 -1.140625 -1.539062 -1.359375 -1.8125 C -1.679688 -2.125 -1.859375 -2.5625 -1.890625 -3.125 C -1.921875 -3.695312 -1.835938 -4.296875 -1.640625 -4.921875 C -1.523438 -5.316406 -1.414062 -5.546875 -1.3125 -5.609375 C -1.238281 -5.671875 -1.128906 -5.675781 -0.984375 -5.625 C -0.847656 -5.582031 -0.703125 -5.515625 -0.546875 -5.421875 C 0.0664062 -4.972656 0.648438 -4.671875 1.203125 -4.515625 C 1.765625 -4.367188 2.335938 -4.5 2.921875 -4.90625 C 3.410156 -5.25 3.71875 -5.664062 3.84375 -6.15625 C 3.976562 -6.644531 3.894531 -7.097656 3.59375 -7.515625 C 3.40625 -7.785156 3.085938 -8.039062 2.640625 -8.28125 C 2.191406 -8.53125 1.46875 -8.84375 0.46875 -9.21875 L -0.796875 -9.671875 C -1.910156 -10.109375 -2.703125 -10.453125 -3.171875 -10.703125 C -3.640625 -10.960938 -4.019531 -11.296875 -4.3125 -11.703125 C -4.882812 -12.515625 -5.175781 -13.441406 -5.1875 -14.484375 C -5.207031 -15.523438 -4.972656 -16.523438 -4.484375 -17.484375 C -4.003906 -18.441406 -3.316406 -19.234375 -2.421875 -19.859375 C -1.640625 -20.410156 -0.875 -20.71875 -0.125 -20.78125 C 0.613281 -20.84375 1.171875 -20.613281 1.546875 -20.09375 C 1.816406 -19.707031 1.945312 -19.144531 1.9375 -18.40625 C 1.90625 -17.90625 1.8125 -17.597656 1.65625 -17.484375 C 1.570312 -17.421875 1.492188 -17.394531 1.421875 -17.40625 C 1.359375 -17.425781 1.273438 -17.453125 1.171875 -17.484375 C 1.066406 -17.523438 0.972656 -17.554688 0.890625 -17.578125 C -0.046875 -17.910156 -0.882812 -17.816406 -1.625 -17.296875 C -2.101562 -16.960938 -2.414062 -16.578125 -2.5625 -16.140625 C -2.71875 -15.710938 -2.65625 -15.296875 -2.375 -14.890625 C -2.15625 -14.585938 -1.863281 -14.351562 -1.5 -14.1875 C -1.144531 -14.03125 -0.648438 -13.859375 -0.015625 -13.671875 L 0.96875 -13.375 L 2.3125 -12.953125 C 3.082031 -12.691406 3.710938 -12.40625 4.203125 -12.09375 C 4.703125 -11.789062 5.140625 -11.375 5.515625 -10.84375 C 6.191406 -9.875 6.484375 -8.796875 6.390625 -7.609375 C 6.304688 -6.429688 5.953125 -5.304688 5.328125 -4.234375 C 4.703125 -3.160156 3.976562 -2.332031 3.15625 -1.75 Z M 3.15625 -1.75 "/></g></g></g></svg>