<svg xmlns="http://www.w3.org/2000/svg" xmlns:xlink="http://www.w3.org/1999/xlink" width="500" zoomAndPan="magnify" viewBox="0 0 375 374.999991" height="500" preserveAspectRatio="xMidYMid meet" version="1.0"><defs><filter x="0%" y="0%" width="100%" height="100%" id="1f3a003b86"><feColorMatrix values="0 0 0 0 1 0 0 0 0 1 0 0 0 0 1 0 0 0 1 0" color-interpolation-filters="sRGB"/></filter><mask id="dab4003038"><g filter="url(#1f3a003b86)"><rect x="-37.5" width="450" fill="#000000" y="-37.499999" height="449.999989" fill-opacity="0.8"/></g></mask><clipPath id="a7c6aaac5c"><path d="M 252 101 L 368.761719 101 L 368.761719 217 L 252 217 Z M 252 101 " clip-rule="nonzero"/></clipPath><clipPath id="5a7e6ccffe"><path d="M 0.710938 101 L 117 101 L 117 217 L 0.710938 217 Z M 0.710938 101 " clip-rule="nonzero"/></clipPath><clipPath id="de7aa494fb"><path d="M 69 237 L 296 237 L 296 303.722656 L 69 303.722656 Z M 69 237 " clip-rule="nonzero"/></clipPath><clipPath id="3527bcf3ce"><path d="M 65 0.46875 L 301 0.46875 L 301 75 L 65 75 Z M 65 0.46875 " clip-rule="nonzero"/></clipPath><clipPath id="bca6699a24"><rect x="0" width="369" y="0" height="304"/></clipPath><clipPath id="95b94dcb63"><path d="M 94.035156 101.273438 L 267.515625 101.273438 L 267.515625 274.753906 L 94.035156 274.753906 Z M 94.035156 101.273438 " clip-rule="nonzero"/></clipPath><mask id="e8606b5607"><g filter="url(#1f3a003b86)"><rect x="-37.5" width="450" fill="#000000" y="-37.499999" height="449.999989" fill-opacity="0.4863"/></g></mask><clipPath id="2f79277bf9"><path d="M 0.394531 0.269531 L 61.3125 0.269531 L 61.3125 61.183594 L 0.394531 61.183594 Z M 0.394531 0.269531 " clip-rule="nonzero"/></clipPath><clipPath id="b0a8c0813d"><path d="M 30.851562 0.269531 C 29.855469 0.269531 28.859375 0.316406 27.867188 0.414062 C 26.875 0.511719 25.890625 0.660156 24.910156 0.851562 C 23.933594 1.046875 22.964844 1.289062 22.011719 1.578125 C 21.058594 1.867188 20.121094 2.203125 19.199219 2.585938 C 18.277344 2.96875 17.375 3.394531 16.496094 3.863281 C 15.617188 4.335938 14.761719 4.847656 13.933594 5.402344 C 13.101562 5.953125 12.300781 6.546875 11.53125 7.179688 C 10.761719 7.8125 10.023438 8.484375 9.316406 9.1875 C 8.609375 9.894531 7.941406 10.632812 7.308594 11.402344 C 6.675781 12.175781 6.082031 12.976562 5.527344 13.804688 C 4.972656 14.632812 4.460938 15.488281 3.992188 16.367188 C 3.523438 17.246094 3.09375 18.148438 2.714844 19.070312 C 2.332031 19.992188 1.996094 20.929688 1.707031 21.882812 C 1.417969 22.839844 1.175781 23.804688 0.980469 24.785156 C 0.785156 25.761719 0.640625 26.746094 0.542969 27.742188 C 0.445312 28.734375 0.394531 29.726562 0.394531 30.726562 C 0.394531 31.722656 0.445312 32.71875 0.542969 33.710938 C 0.640625 34.703125 0.785156 35.691406 0.980469 36.667969 C 1.175781 37.644531 1.417969 38.613281 1.707031 39.566406 C 1.996094 40.523438 2.332031 41.460938 2.714844 42.382812 C 3.09375 43.304688 3.523438 44.203125 3.992188 45.082031 C 4.460938 45.964844 4.972656 46.816406 5.527344 47.648438 C 6.082031 48.476562 6.675781 49.277344 7.308594 50.046875 C 7.941406 50.820312 8.609375 51.558594 9.316406 52.261719 C 10.023438 52.96875 10.761719 53.636719 11.53125 54.269531 C 12.300781 54.902344 13.101562 55.496094 13.933594 56.050781 C 14.761719 56.605469 15.617188 57.117188 16.496094 57.585938 C 17.375 58.058594 18.277344 58.484375 19.199219 58.867188 C 20.121094 59.246094 21.058594 59.582031 22.011719 59.871094 C 22.964844 60.164062 23.933594 60.402344 24.910156 60.597656 C 25.890625 60.792969 26.875 60.941406 27.867188 61.039062 C 28.859375 61.136719 29.855469 61.183594 30.851562 61.183594 C 31.851562 61.183594 32.847656 61.136719 33.839844 61.039062 C 34.832031 60.941406 35.816406 60.792969 36.796875 60.597656 C 37.773438 60.402344 38.742188 60.164062 39.695312 59.871094 C 40.648438 59.582031 41.585938 59.246094 42.507812 58.867188 C 43.429688 58.484375 44.332031 58.058594 45.210938 57.585938 C 46.089844 57.117188 46.945312 56.605469 47.773438 56.050781 C 48.605469 55.496094 49.40625 54.902344 50.175781 54.269531 C 50.945312 53.636719 51.683594 52.96875 52.390625 52.261719 C 53.097656 51.558594 53.765625 50.820312 54.398438 50.046875 C 55.03125 49.277344 55.625 48.476562 56.179688 47.648438 C 56.734375 46.816406 57.246094 45.964844 57.714844 45.082031 C 58.183594 44.203125 58.613281 43.304688 58.992188 42.382812 C 59.375 41.460938 59.710938 40.523438 60 39.566406 C 60.289062 38.613281 60.53125 37.644531 60.726562 36.667969 C 60.921875 35.691406 61.066406 34.703125 61.164062 33.710938 C 61.261719 32.71875 61.3125 31.722656 61.3125 30.726562 C 61.308594 29.730469 61.261719 28.734375 61.160156 27.742188 C 61.0625 26.75 60.914062 25.765625 60.71875 24.785156 C 60.523438 23.808594 60.28125 22.84375 59.992188 21.886719 C 59.703125 20.933594 59.367188 19.996094 58.984375 19.074219 C 58.601562 18.15625 58.175781 17.253906 57.703125 16.375 C 57.234375 15.496094 56.722656 14.640625 56.167969 13.8125 C 55.613281 12.984375 55.019531 12.183594 54.386719 11.414062 C 53.753906 10.640625 53.085938 9.90625 52.378906 9.199219 C 51.675781 8.492188 50.9375 7.824219 50.167969 7.191406 C 49.394531 6.558594 48.59375 5.964844 47.765625 5.410156 C 46.9375 4.859375 46.082031 4.34375 45.203125 3.875 C 44.324219 3.402344 43.425781 2.976562 42.503906 2.597656 C 41.582031 2.214844 40.644531 1.878906 39.691406 1.585938 C 38.738281 1.296875 37.769531 1.054688 36.792969 0.859375 C 35.816406 0.664062 34.832031 0.515625 33.835938 0.417969 C 32.84375 0.320312 31.851562 0.269531 30.851562 0.269531 Z M 30.851562 57.601562 C 29.972656 57.601562 29.09375 57.558594 28.21875 57.472656 C 27.34375 57.386719 26.472656 57.257812 25.609375 57.085938 C 24.746094 56.914062 23.894531 56.699219 23.050781 56.445312 C 22.210938 56.1875 21.382812 55.890625 20.570312 55.554688 C 19.753906 55.21875 18.960938 54.84375 18.183594 54.425781 C 17.410156 54.011719 16.65625 53.558594 15.921875 53.070312 C 15.191406 52.582031 14.484375 52.058594 13.804688 51.5 C 13.125 50.941406 12.472656 50.351562 11.851562 49.730469 C 11.226562 49.105469 10.636719 48.457031 10.078125 47.773438 C 9.519531 47.09375 8.996094 46.386719 8.507812 45.65625 C 8.019531 44.925781 7.566406 44.171875 7.152344 43.394531 C 6.738281 42.617188 6.359375 41.824219 6.023438 41.011719 C 5.6875 40.199219 5.390625 39.371094 5.136719 38.527344 C 4.878906 37.683594 4.667969 36.832031 4.496094 35.96875 C 4.324219 35.105469 4.195312 34.234375 4.109375 33.359375 C 4.023438 32.484375 3.980469 31.605469 3.980469 30.726562 C 3.980469 29.847656 4.023438 28.96875 4.109375 28.089844 C 4.195312 27.214844 4.324219 26.347656 4.496094 25.484375 C 4.667969 24.621094 4.878906 23.765625 5.136719 22.925781 C 5.390625 22.082031 5.6875 21.253906 6.023438 20.441406 C 6.359375 19.628906 6.738281 18.832031 7.152344 18.058594 C 7.566406 17.28125 8.019531 16.527344 8.507812 15.796875 C 8.996094 15.0625 9.519531 14.355469 10.078125 13.675781 C 10.636719 12.996094 11.226562 12.34375 11.851562 11.722656 C 12.472656 11.101562 13.125 10.507812 13.804688 9.953125 C 14.484375 9.394531 15.191406 8.871094 15.921875 8.378906 C 16.65625 7.890625 17.410156 7.4375 18.183594 7.023438 C 18.960938 6.609375 19.753906 6.234375 20.570312 5.898438 C 21.382812 5.558594 22.210938 5.265625 23.050781 5.007812 C 23.894531 4.753906 24.746094 4.539062 25.609375 4.367188 C 26.472656 4.195312 27.34375 4.066406 28.21875 3.980469 C 29.09375 3.894531 29.972656 3.851562 30.851562 3.851562 C 31.734375 3.851562 32.613281 3.894531 33.488281 3.980469 C 34.363281 4.066406 35.234375 4.195312 36.097656 4.367188 C 36.960938 4.539062 37.8125 4.753906 38.65625 5.007812 C 39.496094 5.265625 40.324219 5.558594 41.136719 5.898438 C 41.953125 6.234375 42.746094 6.609375 43.523438 7.023438 C 44.296875 7.4375 45.050781 7.890625 45.785156 8.378906 C 46.515625 8.871094 47.222656 9.394531 47.902344 9.953125 C 48.582031 10.507812 49.234375 11.101562 49.855469 11.722656 C 50.480469 12.34375 51.070312 12.996094 51.628906 13.675781 C 52.1875 14.355469 52.710938 15.0625 53.199219 15.796875 C 53.6875 16.527344 54.140625 17.28125 54.554688 18.058594 C 54.96875 18.832031 55.347656 19.628906 55.683594 20.441406 C 56.019531 21.253906 56.316406 22.082031 56.570312 22.925781 C 56.828125 23.765625 57.039062 24.621094 57.210938 25.484375 C 57.382812 26.347656 57.511719 27.214844 57.597656 28.089844 C 57.683594 28.96875 57.726562 29.847656 57.726562 30.726562 C 57.726562 31.605469 57.683594 32.484375 57.597656 33.359375 C 57.511719 34.234375 57.382812 35.105469 57.210938 35.96875 C 57.039062 36.832031 56.828125 37.683594 56.570312 38.527344 C 56.316406 39.371094 56.019531 40.199219 55.683594 41.011719 C 55.347656 41.824219 54.96875 42.617188 54.554688 43.394531 C 54.140625 44.171875 53.6875 44.925781 53.199219 45.65625 C 52.710938 46.386719 52.1875 47.09375 51.628906 47.773438 C 51.070312 48.457031 50.480469 49.105469 49.855469 49.730469 C 49.234375 50.351562 48.582031 50.941406 47.902344 51.5 C 47.222656 52.058594 46.515625 52.582031 45.785156 53.070312 C 45.050781 53.558594 44.296875 54.011719 43.523438 54.425781 C 42.746094 54.84375 41.953125 55.21875 41.136719 55.554688 C 40.324219 55.890625 39.496094 56.1875 38.65625 56.445312 C 37.8125 56.699219 36.960938 56.914062 36.097656 57.085938 C 35.234375 57.257812 34.363281 57.386719 33.488281 57.472656 C 32.613281 57.558594 31.734375 57.601562 30.851562 57.601562 Z M 43.394531 30.726562 C 43.394531 30.964844 43.347656 31.191406 43.257812 31.410156 C 43.167969 31.632812 43.039062 31.824219 42.871094 31.992188 C 42.703125 32.160156 42.507812 32.289062 42.289062 32.382812 C 42.070312 32.472656 41.839844 32.515625 41.601562 32.515625 L 30.851562 32.515625 C 30.617188 32.515625 30.386719 32.472656 30.167969 32.382812 C 29.949219 32.289062 29.753906 32.160156 29.585938 31.992188 C 29.417969 31.824219 29.289062 31.632812 29.199219 31.410156 C 29.105469 31.191406 29.0625 30.964844 29.0625 30.726562 L 29.0625 16.394531 C 29.0625 16.15625 29.105469 15.925781 29.199219 15.707031 C 29.289062 15.488281 29.417969 15.292969 29.585938 15.125 C 29.753906 14.957031 29.949219 14.828125 30.167969 14.738281 C 30.386719 14.644531 30.617188 14.601562 30.851562 14.601562 C 31.089844 14.601562 31.320312 14.644531 31.539062 14.738281 C 31.757812 14.828125 31.953125 14.957031 32.121094 15.125 C 32.289062 15.292969 32.417969 15.488281 32.507812 15.707031 C 32.601562 15.925781 32.644531 16.15625 32.644531 16.394531 L 32.644531 28.933594 L 41.601562 28.933594 C 41.839844 28.933594 42.070312 28.980469 42.289062 29.070312 C 42.507812 29.160156 42.703125 29.289062 42.871094 29.460938 C 43.039062 29.628906 43.167969 29.820312 43.257812 30.039062 C 43.347656 30.261719 43.394531 30.488281 43.394531 30.726562 Z M 32.644531 52.226562 C 32.640625 52.460938 32.59375 52.6875 32.5 52.90625 C 32.40625 53.125 32.277344 53.316406 32.109375 53.484375 C 31.941406 53.648438 31.75 53.78125 31.535156 53.871094 C 31.316406 53.964844 31.089844 54.011719 30.851562 54.015625 C 30.617188 54.015625 30.386719 53.972656 30.167969 53.882812 C 29.949219 53.789062 29.753906 53.660156 29.585938 53.492188 C 29.417969 53.324219 29.289062 53.132812 29.199219 52.910156 C 29.105469 52.691406 29.0625 52.464844 29.0625 52.226562 C 29.0625 51.988281 29.105469 51.757812 29.199219 51.539062 C 29.289062 51.320312 29.417969 51.125 29.585938 50.957031 C 29.753906 50.789062 29.949219 50.660156 30.167969 50.570312 C 30.386719 50.480469 30.617188 50.433594 30.851562 50.433594 C 31.089844 50.433594 31.320312 50.480469 31.539062 50.570312 C 31.757812 50.660156 31.953125 50.789062 32.121094 50.957031 C 32.289062 51.125 32.417969 51.320312 32.507812 51.539062 C 32.601562 51.757812 32.644531 51.988281 32.644531 52.226562 Z M 44.578125 16.644531 C 44.371094 16.445312 44.21875 16.214844 44.121094 15.945312 C 44.019531 15.679688 43.988281 15.402344 44.019531 15.117188 C 44.050781 14.835938 44.140625 14.574219 44.296875 14.332031 C 44.449219 14.089844 44.648438 13.898438 44.894531 13.75 C 45.140625 13.605469 45.40625 13.519531 45.6875 13.496094 C 45.972656 13.472656 46.25 13.515625 46.515625 13.621094 C 46.777344 13.726562 47.007812 13.886719 47.199219 14.097656 C 47.386719 14.3125 47.519531 14.554688 47.597656 14.832031 C 47.671875 15.105469 47.683594 15.382812 47.628906 15.664062 C 47.574219 15.945312 47.460938 16.199219 47.289062 16.425781 C 47.113281 16.652344 46.898438 16.828125 46.644531 16.957031 C 46.386719 17.082031 46.117188 17.144531 45.832031 17.144531 C 45.367188 17.144531 44.972656 16.976562 44.648438 16.644531 Z M 47.265625 44.628906 C 47.433594 44.796875 47.566406 44.992188 47.65625 45.210938 C 47.75 45.433594 47.796875 45.664062 47.796875 45.902344 C 47.796875 46.140625 47.75 46.371094 47.65625 46.589844 C 47.566406 46.8125 47.433594 47.003906 47.265625 47.171875 C 46.921875 47.527344 46.503906 47.707031 46.011719 47.710938 C 45.511719 47.71875 45.09375 47.539062 44.757812 47.171875 C 44.585938 47.003906 44.457031 46.8125 44.363281 46.589844 C 44.273438 46.371094 44.226562 46.140625 44.226562 45.902344 C 44.226562 45.664062 44.273438 45.433594 44.363281 45.210938 C 44.457031 44.992188 44.585938 44.796875 44.757812 44.628906 C 44.929688 44.457031 45.125 44.328125 45.347656 44.234375 C 45.574219 44.140625 45.804688 44.097656 46.046875 44.097656 C 46.289062 44.097656 46.519531 44.140625 46.746094 44.234375 C 46.96875 44.328125 47.164062 44.457031 47.335938 44.628906 Z M 16.914062 44.628906 C 17.078125 44.800781 17.207031 44.996094 17.296875 45.214844 C 17.386719 45.433594 17.429688 45.664062 17.429688 45.902344 C 17.429688 46.140625 17.386719 46.367188 17.296875 46.585938 C 17.207031 46.808594 17.078125 47.003906 16.914062 47.171875 C 16.558594 47.53125 16.128906 47.710938 15.625 47.710938 C 15.144531 47.699219 14.726562 47.53125 14.371094 47.210938 C 14.203125 47.039062 14.078125 46.84375 13.988281 46.625 C 13.898438 46.402344 13.855469 46.175781 13.855469 45.9375 C 13.855469 45.699219 13.898438 45.472656 13.988281 45.25 C 14.078125 45.03125 14.203125 44.835938 14.371094 44.664062 C 14.542969 44.488281 14.742188 44.347656 14.972656 44.253906 C 15.199219 44.160156 15.4375 44.113281 15.6875 44.117188 C 15.933594 44.117188 16.171875 44.171875 16.398438 44.273438 C 16.621094 44.375 16.820312 44.515625 16.984375 44.699219 Z M 29.0625 9.226562 C 29.054688 9.003906 29.089844 8.789062 29.167969 8.582031 C 29.242188 8.375 29.351562 8.1875 29.5 8.019531 C 29.644531 7.855469 29.816406 7.722656 30.011719 7.621094 C 30.210938 7.519531 30.417969 7.457031 30.636719 7.433594 C 30.894531 7.410156 31.140625 7.4375 31.382812 7.515625 C 31.628906 7.59375 31.84375 7.71875 32.035156 7.890625 C 32.226562 8.058594 32.375 8.261719 32.480469 8.492188 C 32.585938 8.726562 32.640625 8.96875 32.644531 9.226562 C 32.644531 9.464844 32.601562 9.691406 32.507812 9.910156 C 32.417969 10.132812 32.289062 10.324219 32.121094 10.492188 C 31.953125 10.660156 31.757812 10.789062 31.539062 10.882812 C 31.320312 10.972656 31.089844 11.019531 30.851562 11.019531 C 30.617188 11.019531 30.386719 10.972656 30.167969 10.882812 C 29.949219 10.789062 29.753906 10.660156 29.585938 10.492188 C 29.417969 10.324219 29.289062 10.132812 29.199219 9.910156 C 29.105469 9.691406 29.0625 9.464844 29.0625 9.226562 Z M 14.296875 16.929688 C 14.128906 16.761719 13.996094 16.570312 13.902344 16.351562 C 13.808594 16.128906 13.761719 15.902344 13.761719 15.664062 C 13.757812 15.425781 13.804688 15.195312 13.894531 14.972656 C 13.984375 14.753906 14.113281 14.558594 14.28125 14.386719 C 14.449219 14.21875 14.644531 14.089844 14.863281 13.996094 C 15.085938 13.90625 15.3125 13.859375 15.550781 13.859375 C 15.792969 13.859375 16.019531 13.90625 16.242188 13.996094 C 16.460938 14.089844 16.65625 14.21875 16.824219 14.386719 C 16.992188 14.558594 17.121094 14.753906 17.210938 14.972656 C 17.300781 15.195312 17.347656 15.425781 17.34375 15.664062 C 17.34375 15.902344 17.296875 16.128906 17.203125 16.351562 C 17.109375 16.570312 16.976562 16.761719 16.808594 16.929688 C 16.464844 17.285156 16.046875 17.464844 15.550781 17.46875 C 15.0625 17.460938 14.644531 17.28125 14.296875 16.929688 Z M 50.5625 30.726562 L 50.5625 30.511719 C 50.558594 30.273438 50.597656 30.042969 50.683594 29.824219 C 50.769531 29.601562 50.894531 29.40625 51.0625 29.234375 C 51.226562 29.0625 51.417969 28.929688 51.632812 28.832031 C 51.851562 28.738281 52.078125 28.6875 52.316406 28.683594 C 52.554688 28.683594 52.78125 28.726562 53 28.816406 C 53.21875 28.902344 53.414062 29.03125 53.585938 29.191406 C 53.753906 29.355469 53.890625 29.546875 53.984375 29.761719 C 54.082031 29.976562 54.136719 30.203125 54.144531 30.4375 L 54.144531 30.726562 C 54.144531 30.964844 54.097656 31.191406 54.007812 31.410156 C 53.917969 31.632812 53.789062 31.824219 53.621094 31.992188 C 53.453125 32.160156 53.257812 32.289062 53.039062 32.382812 C 52.820312 32.472656 52.589844 32.515625 52.351562 32.515625 C 52.117188 32.515625 51.886719 32.472656 51.667969 32.382812 C 51.449219 32.289062 51.253906 32.160156 51.085938 31.992188 C 50.917969 31.824219 50.789062 31.632812 50.699219 31.410156 C 50.605469 31.191406 50.5625 30.964844 50.5625 30.726562 Z M 11.144531 30.726562 C 11.144531 30.964844 11.101562 31.191406 11.007812 31.410156 C 10.917969 31.632812 10.789062 31.824219 10.621094 31.992188 C 10.453125 32.160156 10.257812 32.289062 10.039062 32.382812 C 9.820312 32.472656 9.589844 32.515625 9.355469 32.515625 C 9.117188 32.515625 8.886719 32.472656 8.667969 32.382812 C 8.449219 32.289062 8.253906 32.160156 8.085938 31.992188 C 7.917969 31.824219 7.789062 31.632812 7.699219 31.410156 C 7.605469 31.191406 7.5625 30.964844 7.5625 30.726562 C 7.5625 30.488281 7.605469 30.261719 7.699219 30.039062 C 7.789062 29.820312 7.917969 29.628906 8.085938 29.460938 C 8.253906 29.289062 8.449219 29.160156 8.667969 29.070312 C 8.886719 28.980469 9.117188 28.933594 9.355469 28.933594 C 9.601562 28.933594 9.839844 28.984375 10.066406 29.082031 C 10.292969 29.179688 10.492188 29.316406 10.660156 29.496094 C 10.828125 29.675781 10.957031 29.882812 11.039062 30.113281 C 11.125 30.347656 11.160156 30.585938 11.144531 30.832031 Z M 11.144531 30.726562 " clip-rule="nonzero"/></clipPath><linearGradient x1="0" gradientTransform="matrix(3.583313, 0, 0, 3.583313, 0.395311, 0.267739)" y1="8.5" x2="17" gradientUnits="userSpaceOnUse" y2="8.5" id="ffabfe69ac"><stop stop-opacity="1" stop-color="rgb(44.299316%, 19.198608%, 93.699646%)" offset="0"/><stop stop-opacity="1" stop-color="rgb(44.210815%, 19.046021%, 93.75%)" offset="0.0078125"/><stop stop-opacity="1" stop-color="rgb(44.035339%, 18.739319%, 93.849182%)" offset="0.015625"/><stop stop-opacity="1" stop-color="rgb(43.859863%, 18.434143%, 93.94989%)" offset="0.0234375"/><stop stop-opacity="1" stop-color="rgb(43.684387%, 18.127441%, 94.050598%)" offset="0.03125"/><stop stop-opacity="1" stop-color="rgb(43.508911%, 17.82074%, 94.151306%)" offset="0.0390625"/><stop stop-opacity="1" stop-color="rgb(43.333435%, 17.515564%, 94.252014%)" offset="0.046875"/><stop stop-opacity="1" stop-color="rgb(43.157959%, 17.208862%, 94.352722%)" offset="0.0546875"/><stop stop-opacity="1" stop-color="rgb(42.982483%, 16.902161%, 94.451904%)" offset="0.0625"/><stop stop-opacity="1" stop-color="rgb(42.807007%, 16.596985%, 94.552612%)" offset="0.0703125"/><stop stop-opacity="1" stop-color="rgb(42.633057%, 16.290283%, 94.65332%)" offset="0.078125"/><stop stop-opacity="1" stop-color="rgb(42.457581%, 15.985107%, 94.754028%)" offset="0.0859375"/><stop stop-opacity="1" stop-color="rgb(42.282104%, 15.678406%, 94.854736%)" offset="0.09375"/><stop stop-opacity="1" stop-color="rgb(42.106628%, 15.371704%, 94.955444%)" offset="0.101562"/><stop stop-opacity="1" stop-color="rgb(41.931152%, 15.066528%, 95.054626%)" offset="0.109375"/><stop stop-opacity="1" stop-color="rgb(41.755676%, 14.759827%, 95.155334%)" offset="0.117188"/><stop stop-opacity="1" stop-color="rgb(41.5802%, 14.453125%, 95.256042%)" offset="0.125"/><stop stop-opacity="1" stop-color="rgb(41.404724%, 14.147949%, 95.35675%)" offset="0.132813"/><stop stop-opacity="1" stop-color="rgb(41.229248%, 13.841248%, 95.457458%)" offset="0.140625"/><stop stop-opacity="1" stop-color="rgb(41.053772%, 13.536072%, 95.556641%)" offset="0.148438"/><stop stop-opacity="1" stop-color="rgb(40.878296%, 13.22937%, 95.657349%)" offset="0.15625"/><stop stop-opacity="1" stop-color="rgb(40.70282%, 12.922668%, 95.758057%)" offset="0.164063"/><stop stop-opacity="1" stop-color="rgb(40.527344%, 12.617493%, 95.858765%)" offset="0.171875"/><stop stop-opacity="1" stop-color="rgb(40.351868%, 12.310791%, 95.959473%)" offset="0.179688"/><stop stop-opacity="1" stop-color="rgb(40.176392%, 12.005615%, 96.060181%)" offset="0.1875"/><stop stop-opacity="1" stop-color="rgb(40.000916%, 11.698914%, 96.159363%)" offset="0.195312"/><stop stop-opacity="1" stop-color="rgb(39.826965%, 11.392212%, 96.260071%)" offset="0.203125"/><stop stop-opacity="1" stop-color="rgb(39.651489%, 11.087036%, 96.360779%)" offset="0.210938"/><stop stop-opacity="1" stop-color="rgb(39.476013%, 10.780334%, 96.461487%)" offset="0.21875"/><stop stop-opacity="1" stop-color="rgb(39.300537%, 10.473633%, 96.562195%)" offset="0.226562"/><stop stop-opacity="1" stop-color="rgb(39.125061%, 10.168457%, 96.662903%)" offset="0.234375"/><stop stop-opacity="1" stop-color="rgb(38.949585%, 9.861755%, 96.762085%)" offset="0.242188"/><stop stop-opacity="1" stop-color="rgb(38.774109%, 9.55658%, 96.862793%)" offset="0.25"/><stop stop-opacity="1" stop-color="rgb(38.598633%, 9.249878%, 96.963501%)" offset="0.257813"/><stop stop-opacity="1" stop-color="rgb(38.423157%, 8.943176%, 97.064209%)" offset="0.265625"/><stop stop-opacity="1" stop-color="rgb(38.247681%, 8.638%, 97.164917%)" offset="0.273438"/><stop stop-opacity="1" stop-color="rgb(38.072205%, 8.331299%, 97.265625%)" offset="0.28125"/><stop stop-opacity="1" stop-color="rgb(37.896729%, 8.024597%, 97.364807%)" offset="0.289063"/><stop stop-opacity="1" stop-color="rgb(37.721252%, 7.719421%, 97.465515%)" offset="0.296875"/><stop stop-opacity="1" stop-color="rgb(37.545776%, 7.41272%, 97.566223%)" offset="0.304688"/><stop stop-opacity="1" stop-color="rgb(37.3703%, 7.107544%, 97.666931%)" offset="0.3125"/><stop stop-opacity="1" stop-color="rgb(37.194824%, 6.800842%, 97.767639%)" offset="0.320313"/><stop stop-opacity="1" stop-color="rgb(37.020874%, 6.494141%, 97.868347%)" offset="0.328125"/><stop stop-opacity="1" stop-color="rgb(36.845398%, 6.188965%, 97.967529%)" offset="0.335938"/><stop stop-opacity="1" stop-color="rgb(36.669922%, 5.882263%, 98.068237%)" offset="0.34375"/><stop stop-opacity="1" stop-color="rgb(36.494446%, 5.575562%, 98.168945%)" offset="0.351563"/><stop stop-opacity="1" stop-color="rgb(36.31897%, 5.270386%, 98.269653%)" offset="0.359375"/><stop stop-opacity="1" stop-color="rgb(36.143494%, 4.963684%, 98.370361%)" offset="0.367188"/><stop stop-opacity="1" stop-color="rgb(35.968018%, 4.658508%, 98.471069%)" offset="0.375"/><stop stop-opacity="1" stop-color="rgb(35.792542%, 4.351807%, 98.570251%)" offset="0.382812"/><stop stop-opacity="1" stop-color="rgb(35.617065%, 4.045105%, 98.670959%)" offset="0.390625"/><stop stop-opacity="1" stop-color="rgb(35.441589%, 3.739929%, 98.771667%)" offset="0.398438"/><stop stop-opacity="1" stop-color="rgb(35.266113%, 3.433228%, 98.872375%)" offset="0.40625"/><stop stop-opacity="1" stop-color="rgb(35.090637%, 3.128052%, 98.973083%)" offset="0.414062"/><stop stop-opacity="1" stop-color="rgb(34.915161%, 2.82135%, 99.072266%)" offset="0.421875"/><stop stop-opacity="1" stop-color="rgb(34.739685%, 2.514648%, 99.172974%)" offset="0.429688"/><stop stop-opacity="1" stop-color="rgb(34.564209%, 2.209473%, 99.273682%)" offset="0.4375"/><stop stop-opacity="1" stop-color="rgb(34.388733%, 1.902771%, 99.37439%)" offset="0.445312"/><stop stop-opacity="1" stop-color="rgb(34.213257%, 1.596069%, 99.475098%)" offset="0.453125"/><stop stop-opacity="1" stop-color="rgb(34.039307%, 1.290894%, 99.575806%)" offset="0.460938"/><stop stop-opacity="1" stop-color="rgb(33.863831%, 0.984192%, 99.674988%)" offset="0.46875"/><stop stop-opacity="1" stop-color="rgb(33.688354%, 0.679016%, 99.775696%)" offset="0.476562"/><stop stop-opacity="1" stop-color="rgb(33.512878%, 0.372314%, 99.876404%)" offset="0.484375"/><stop stop-opacity="1" stop-color="rgb(33.493042%, 0.178528%, 99.836731%)" offset="0.492188"/><stop stop-opacity="1" stop-color="rgb(34.025574%, 0.387573%, 99.301147%)" offset="0.496094"/><stop stop-opacity="1" stop-color="rgb(34.490967%, 0.636292%, 98.854065%)" offset="0.5"/><stop stop-opacity="1" stop-color="rgb(34.95636%, 0.88501%, 98.406982%)" offset="0.503906"/><stop stop-opacity="1" stop-color="rgb(35.423279%, 1.133728%, 97.9599%)" offset="0.507813"/><stop stop-opacity="1" stop-color="rgb(35.888672%, 1.382446%, 97.511292%)" offset="0.511719"/><stop stop-opacity="1" stop-color="rgb(36.354065%, 1.63269%, 97.064209%)" offset="0.515625"/><stop stop-opacity="1" stop-color="rgb(36.819458%, 1.881409%, 96.617126%)" offset="0.519531"/><stop stop-opacity="1" stop-color="rgb(37.284851%, 2.130127%, 96.170044%)" offset="0.523438"/><stop stop-opacity="1" stop-color="rgb(37.750244%, 2.378845%, 95.722961%)" offset="0.527344"/><stop stop-opacity="1" stop-color="rgb(38.217163%, 2.627563%, 95.275879%)" offset="0.53125"/><stop stop-opacity="1" stop-color="rgb(38.682556%, 2.876282%, 94.828796%)" offset="0.535156"/><stop stop-opacity="1" stop-color="rgb(39.147949%, 3.126526%, 94.381714%)" offset="0.539063"/><stop stop-opacity="1" stop-color="rgb(39.613342%, 3.375244%, 93.933105%)" offset="0.542969"/><stop stop-opacity="1" stop-color="rgb(40.080261%, 3.623962%, 93.486023%)" offset="0.546875"/><stop stop-opacity="1" stop-color="rgb(40.545654%, 3.872681%, 93.03894%)" offset="0.550781"/><stop stop-opacity="1" stop-color="rgb(41.011047%, 4.121399%, 92.591858%)" offset="0.554688"/><stop stop-opacity="1" stop-color="rgb(41.47644%, 4.370117%, 92.144775%)" offset="0.558594"/><stop stop-opacity="1" stop-color="rgb(41.941833%, 4.618835%, 91.697693%)" offset="0.5625"/><stop stop-opacity="1" stop-color="rgb(42.407227%, 4.867554%, 91.249084%)" offset="0.566406"/><stop stop-opacity="1" stop-color="rgb(42.874146%, 5.117798%, 90.802002%)" offset="0.570313"/><stop stop-opacity="1" stop-color="rgb(43.339539%, 5.366516%, 90.354919%)" offset="0.574219"/><stop stop-opacity="1" stop-color="rgb(43.804932%, 5.615234%, 89.907837%)" offset="0.578125"/><stop stop-opacity="1" stop-color="rgb(44.270325%, 5.863953%, 89.460754%)" offset="0.582031"/><stop stop-opacity="1" stop-color="rgb(44.737244%, 6.112671%, 89.013672%)" offset="0.585938"/><stop stop-opacity="1" stop-color="rgb(45.202637%, 6.361389%, 88.566589%)" offset="0.589844"/><stop stop-opacity="1" stop-color="rgb(45.66803%, 6.610107%, 88.119507%)" offset="0.59375"/><stop stop-opacity="1" stop-color="rgb(46.133423%, 6.858826%, 87.670898%)" offset="0.597656"/><stop stop-opacity="1" stop-color="rgb(46.598816%, 7.10907%, 87.223816%)" offset="0.601563"/><stop stop-opacity="1" stop-color="rgb(47.064209%, 7.357788%, 86.776733%)" offset="0.605469"/><stop stop-opacity="1" stop-color="rgb(47.531128%, 7.606506%, 86.329651%)" offset="0.609375"/><stop stop-opacity="1" stop-color="rgb(47.996521%, 7.855225%, 85.882568%)" offset="0.613281"/><stop stop-opacity="1" stop-color="rgb(48.461914%, 8.103943%, 85.435486%)" offset="0.617188"/><stop stop-opacity="1" stop-color="rgb(48.927307%, 8.352661%, 84.986877%)" offset="0.621094"/><stop stop-opacity="1" stop-color="rgb(49.3927%, 8.602905%, 84.539795%)" offset="0.625"/><stop stop-opacity="1" stop-color="rgb(49.858093%, 8.851624%, 84.092712%)" offset="0.628906"/><stop stop-opacity="1" stop-color="rgb(50.325012%, 9.100342%, 83.64563%)" offset="0.632813"/><stop stop-opacity="1" stop-color="rgb(50.790405%, 9.34906%, 83.198547%)" offset="0.636719"/><stop stop-opacity="1" stop-color="rgb(51.255798%, 9.597778%, 82.751465%)" offset="0.640625"/><stop stop-opacity="1" stop-color="rgb(51.721191%, 9.846497%, 82.304382%)" offset="0.644531"/><stop stop-opacity="1" stop-color="rgb(52.18811%, 10.095215%, 81.8573%)" offset="0.648438"/><stop stop-opacity="1" stop-color="rgb(52.653503%, 10.343933%, 81.408691%)" offset="0.652344"/><stop stop-opacity="1" stop-color="rgb(53.118896%, 10.594177%, 80.961609%)" offset="0.65625"/><stop stop-opacity="1" stop-color="rgb(53.58429%, 10.842896%, 80.514526%)" offset="0.660156"/><stop stop-opacity="1" stop-color="rgb(54.049683%, 11.091614%, 80.067444%)" offset="0.664063"/><stop stop-opacity="1" stop-color="rgb(54.515076%, 11.340332%, 79.620361%)" offset="0.667969"/><stop stop-opacity="1" stop-color="rgb(54.981995%, 11.58905%, 79.173279%)" offset="0.671875"/><stop stop-opacity="1" stop-color="rgb(55.447388%, 11.837769%, 78.72467%)" offset="0.675781"/><stop stop-opacity="1" stop-color="rgb(55.912781%, 12.086487%, 78.277588%)" offset="0.679688"/><stop stop-opacity="1" stop-color="rgb(56.378174%, 12.335205%, 77.830505%)" offset="0.683594"/><stop stop-opacity="1" stop-color="rgb(56.845093%, 12.585449%, 77.383423%)" offset="0.6875"/><stop stop-opacity="1" stop-color="rgb(57.310486%, 12.834167%, 76.93634%)" offset="0.691406"/><stop stop-opacity="1" stop-color="rgb(57.775879%, 13.082886%, 76.489258%)" offset="0.695313"/><stop stop-opacity="1" stop-color="rgb(58.241272%, 13.331604%, 76.042175%)" offset="0.699219"/><stop stop-opacity="1" stop-color="rgb(58.706665%, 13.580322%, 75.595093%)" offset="0.703125"/><stop stop-opacity="1" stop-color="rgb(59.172058%, 13.829041%, 75.146484%)" offset="0.707031"/><stop stop-opacity="1" stop-color="rgb(59.638977%, 14.079285%, 74.699402%)" offset="0.710938"/><stop stop-opacity="1" stop-color="rgb(60.10437%, 14.328003%, 74.252319%)" offset="0.714844"/><stop stop-opacity="1" stop-color="rgb(60.569763%, 14.576721%, 73.805237%)" offset="0.71875"/><stop stop-opacity="1" stop-color="rgb(61.035156%, 14.825439%, 73.358154%)" offset="0.722656"/><stop stop-opacity="1" stop-color="rgb(61.500549%, 15.074158%, 72.911072%)" offset="0.726563"/><stop stop-opacity="1" stop-color="rgb(61.965942%, 15.322876%, 72.462463%)" offset="0.730469"/><stop stop-opacity="1" stop-color="rgb(62.432861%, 15.571594%, 72.015381%)" offset="0.734375"/><stop stop-opacity="1" stop-color="rgb(62.898254%, 15.820312%, 71.568298%)" offset="0.738281"/><stop stop-opacity="1" stop-color="rgb(63.363647%, 16.070557%, 71.121216%)" offset="0.742188"/><stop stop-opacity="1" stop-color="rgb(63.829041%, 16.319275%, 70.674133%)" offset="0.746094"/><stop stop-opacity="1" stop-color="rgb(64.295959%, 16.567993%, 70.227051%)" offset="0.75"/><stop stop-opacity="1" stop-color="rgb(64.761353%, 16.816711%, 69.778442%)" offset="0.753906"/><stop stop-opacity="1" stop-color="rgb(65.226746%, 17.06543%, 69.33136%)" offset="0.757812"/><stop stop-opacity="1" stop-color="rgb(65.692139%, 17.314148%, 68.884277%)" offset="0.761719"/><stop stop-opacity="1" stop-color="rgb(66.157532%, 17.562866%, 68.437195%)" offset="0.765625"/><stop stop-opacity="1" stop-color="rgb(66.622925%, 17.811584%, 67.990112%)" offset="0.769531"/><stop stop-opacity="1" stop-color="rgb(67.089844%, 18.061829%, 67.54303%)" offset="0.773438"/><stop stop-opacity="1" stop-color="rgb(67.555237%, 18.310547%, 67.095947%)" offset="0.777344"/><stop stop-opacity="1" stop-color="rgb(68.02063%, 18.559265%, 66.648865%)" offset="0.78125"/><stop stop-opacity="1" stop-color="rgb(68.486023%, 18.807983%, 66.200256%)" offset="0.785156"/><stop stop-opacity="1" stop-color="rgb(68.951416%, 19.056702%, 65.753174%)" offset="0.789062"/><stop stop-opacity="1" stop-color="rgb(69.416809%, 19.30542%, 65.306091%)" offset="0.792969"/><stop stop-opacity="1" stop-color="rgb(69.883728%, 19.555664%, 64.859009%)" offset="0.796875"/><stop stop-opacity="1" stop-color="rgb(70.349121%, 19.804382%, 64.411926%)" offset="0.800781"/><stop stop-opacity="1" stop-color="rgb(70.814514%, 20.053101%, 63.964844%)" offset="0.804688"/><stop stop-opacity="1" stop-color="rgb(71.279907%, 20.301819%, 63.516235%)" offset="0.808594"/><stop stop-opacity="1" stop-color="rgb(71.746826%, 20.550537%, 63.069153%)" offset="0.8125"/><stop stop-opacity="1" stop-color="rgb(72.212219%, 20.799255%, 62.62207%)" offset="0.816406"/><stop stop-opacity="1" stop-color="rgb(72.677612%, 21.047974%, 62.174988%)" offset="0.820312"/><stop stop-opacity="1" stop-color="rgb(73.143005%, 21.296692%, 61.727905%)" offset="0.824219"/><stop stop-opacity="1" stop-color="rgb(73.608398%, 21.546936%, 61.280823%)" offset="0.828125"/><stop stop-opacity="1" stop-color="rgb(74.073792%, 21.795654%, 60.83374%)" offset="0.832031"/><stop stop-opacity="1" stop-color="rgb(74.54071%, 22.044373%, 60.386658%)" offset="0.835938"/><stop stop-opacity="1" stop-color="rgb(75.006104%, 22.293091%, 59.938049%)" offset="0.839844"/><stop stop-opacity="1" stop-color="rgb(75.471497%, 22.541809%, 59.490967%)" offset="0.84375"/><stop stop-opacity="1" stop-color="rgb(75.93689%, 22.790527%, 59.043884%)" offset="0.847656"/><stop stop-opacity="1" stop-color="rgb(76.403809%, 23.039246%, 58.596802%)" offset="0.851562"/><stop stop-opacity="1" stop-color="rgb(76.869202%, 23.287964%, 58.149719%)" offset="0.855469"/><stop stop-opacity="1" stop-color="rgb(77.334595%, 23.538208%, 57.702637%)" offset="0.859375"/><stop stop-opacity="1" stop-color="rgb(77.799988%, 23.786926%, 57.254028%)" offset="0.863281"/><stop stop-opacity="1" stop-color="rgb(78.265381%, 24.035645%, 56.806946%)" offset="0.867188"/><stop stop-opacity="1" stop-color="rgb(78.730774%, 24.284363%, 56.359863%)" offset="0.871094"/><stop stop-opacity="1" stop-color="rgb(79.197693%, 24.533081%, 55.912781%)" offset="0.875"/><stop stop-opacity="1" stop-color="rgb(79.663086%, 24.781799%, 55.465698%)" offset="0.878906"/><stop stop-opacity="1" stop-color="rgb(80.128479%, 25.032043%, 55.018616%)" offset="0.882812"/><stop stop-opacity="1" stop-color="rgb(80.593872%, 25.280762%, 54.571533%)" offset="0.886719"/><stop stop-opacity="1" stop-color="rgb(81.059265%, 25.52948%, 54.124451%)" offset="0.890625"/><stop stop-opacity="1" stop-color="rgb(81.524658%, 25.778198%, 53.675842%)" offset="0.894531"/><stop stop-opacity="1" stop-color="rgb(81.991577%, 26.026917%, 53.22876%)" offset="0.898438"/><stop stop-opacity="1" stop-color="rgb(82.45697%, 26.275635%, 52.781677%)" offset="0.902344"/><stop stop-opacity="1" stop-color="rgb(82.922363%, 26.524353%, 52.334595%)" offset="0.90625"/><stop stop-opacity="1" stop-color="rgb(83.387756%, 26.773071%, 51.887512%)" offset="0.910156"/><stop stop-opacity="1" stop-color="rgb(83.854675%, 27.023315%, 51.44043%)" offset="0.914062"/><stop stop-opacity="1" stop-color="rgb(84.320068%, 27.272034%, 50.991821%)" offset="0.917969"/><stop stop-opacity="1" stop-color="rgb(84.785461%, 27.520752%, 50.544739%)" offset="0.921875"/><stop stop-opacity="1" stop-color="rgb(85.250854%, 27.76947%, 50.097656%)" offset="0.925781"/><stop stop-opacity="1" stop-color="rgb(85.716248%, 28.018188%, 49.650574%)" offset="0.929688"/><stop stop-opacity="1" stop-color="rgb(86.181641%, 28.266907%, 49.203491%)" offset="0.933594"/><stop stop-opacity="1" stop-color="rgb(86.64856%, 28.517151%, 48.756409%)" offset="0.9375"/><stop stop-opacity="1" stop-color="rgb(87.113953%, 28.765869%, 48.309326%)" offset="0.941406"/><stop stop-opacity="1" stop-color="rgb(87.579346%, 29.014587%, 47.862244%)" offset="0.945312"/><stop stop-opacity="1" stop-color="rgb(88.044739%, 29.263306%, 47.413635%)" offset="0.949219"/><stop stop-opacity="1" stop-color="rgb(88.511658%, 29.512024%, 46.966553%)" offset="0.953125"/><stop stop-opacity="1" stop-color="rgb(88.977051%, 29.760742%, 46.51947%)" offset="0.957031"/><stop stop-opacity="1" stop-color="rgb(89.442444%, 30.00946%, 46.072388%)" offset="0.960938"/><stop stop-opacity="1" stop-color="rgb(89.907837%, 30.258179%, 45.625305%)" offset="0.964844"/><stop stop-opacity="1" stop-color="rgb(90.37323%, 30.508423%, 45.178223%)" offset="0.96875"/><stop stop-opacity="1" stop-color="rgb(90.838623%, 30.757141%, 44.729614%)" offset="0.972656"/><stop stop-opacity="1" stop-color="rgb(91.305542%, 31.005859%, 44.282532%)" offset="0.976562"/><stop stop-opacity="1" stop-color="rgb(91.770935%, 31.254578%, 43.835449%)" offset="0.980469"/><stop stop-opacity="1" stop-color="rgb(92.236328%, 31.503296%, 43.388367%)" offset="0.984375"/><stop stop-opacity="1" stop-color="rgb(92.701721%, 31.752014%, 42.941284%)" offset="0.988281"/><stop stop-opacity="1" stop-color="rgb(93.167114%, 32.000732%, 42.494202%)" offset="0.992188"/><stop stop-opacity="1" stop-color="rgb(93.632507%, 32.249451%, 42.045593%)" offset="0.996094"/><stop stop-opacity="1" stop-color="rgb(94.099426%, 32.499695%, 41.598511%)" offset="1"/></linearGradient><clipPath id="1766a71b2b"><rect x="0" width="62" y="0" height="62"/></clipPath></defs><g mask="url(#dab4003038)"><g transform="matrix(1, 0, 0, 1, 3, 27)"><g clip-path="url(#bca6699a24)"><g clip-path="url(#a7c6aaac5c)"><path fill="#5500ff" d="M 364.289062 141.574219 L 354.015625 140.53125 L 348.628906 131.140625 L 352.925781 121.785156 C 353.421875 120.695312 353.105469 119.40625 352.148438 118.675781 L 339.34375 108.8125 C 338.390625 108.082031 337.0625 108.09375 336.128906 108.855469 L 328.128906 115.355469 L 317.65625 112.523438 L 314.058594 102.882812 C 313.644531 101.761719 312.5 101.074219 311.3125 101.222656 L 295.257812 103.273438 C 294.070312 103.421875 293.136719 104.371094 293.011719 105.566406 L 291.960938 115.800781 L 282.539062 121.171875 L 273.148438 116.890625 C 272.054688 116.394531 270.761719 116.710938 270.027344 117.660156 L 260.128906 130.421875 C 259.398438 131.375 259.410156 132.695312 260.171875 133.625 L 266.699219 141.597656 L 263.855469 152.03125 L 254.175781 155.617188 C 253.054688 156.027344 252.363281 157.171875 252.511719 158.355469 L 254.570312 174.351562 C 254.71875 175.535156 255.671875 176.464844 256.871094 176.589844 L 267.144531 177.636719 L 272.53125 187.027344 L 268.234375 196.382812 C 267.738281 197.472656 268.054688 198.761719 269.011719 199.492188 L 281.816406 209.355469 C 282.769531 210.085938 284.097656 210.074219 285.03125 209.3125 L 293.03125 202.8125 L 303.503906 205.644531 L 307.101562 215.285156 C 307.523438 216.40625 308.660156 217.09375 309.847656 216.945312 L 325.902344 214.894531 C 326.25 214.851562 326.570312 214.738281 326.855469 214.578125 C 327.566406 214.175781 328.054688 213.445312 328.140625 212.601562 L 329.191406 202.367188 L 338.613281 196.996094 L 348 201.277344 C 349.09375 201.773438 350.390625 201.457031 351.121094 200.507812 L 361.019531 187.746094 C 361.753906 186.792969 361.742188 185.472656 360.976562 184.542969 L 354.453125 176.570312 L 357.296875 166.136719 L 366.972656 162.550781 C 368.097656 162.128906 368.785156 160.996094 368.636719 159.8125 L 366.578125 143.816406 C 366.441406 142.621094 365.488281 141.691406 364.289062 141.574219 Z M 325.167969 184.46875 C 311.101562 192.492188 293.160156 187.640625 285.105469 173.609375 C 277.050781 159.589844 281.921875 141.714844 296.003906 133.6875 C 310.070312 125.664062 328.011719 130.515625 336.066406 144.546875 C 344.117188 158.566406 339.238281 176.445312 325.167969 184.46875 Z M 325.167969 184.46875 " fill-opacity="1" fill-rule="nonzero"/></g><g clip-path="url(#5a7e6ccffe)"><path fill="#5500ff" d="M 113.40625 144.546875 L 103.207031 142.941406 L 98.339844 133.277344 L 103.144531 124.175781 C 103.707031 123.117188 103.453125 121.804688 102.550781 121.023438 L 90.304688 110.472656 C 89.394531 109.691406 88.066406 109.636719 87.089844 110.335938 L 78.742188 116.382812 L 68.4375 112.976562 L 65.382812 103.15625 C 65.023438 102.015625 63.929688 101.265625 62.730469 101.347656 L 46.582031 102.511719 C 45.382812 102.597656 44.40625 103.496094 44.21875 104.679688 L 42.605469 114.839844 L 32.90625 119.691406 L 23.769531 114.902344 C 22.710938 114.339844 21.394531 114.59375 20.609375 115.492188 L 10.019531 127.695312 C 9.234375 128.605469 9.183594 129.925781 9.882812 130.898438 L 15.953125 139.21875 L 12.535156 149.484375 L 2.679688 152.527344 C 1.53125 152.886719 0.78125 153.976562 0.863281 155.171875 L 2.03125 171.261719 C 2.117188 172.457031 3.019531 173.429688 4.207031 173.621094 L 14.402344 175.226562 L 19.273438 184.890625 L 14.464844 193.992188 C 13.902344 195.050781 14.160156 196.363281 15.0625 197.144531 L 27.304688 207.695312 C 28.21875 208.476562 29.542969 208.53125 30.519531 207.832031 L 38.871094 201.785156 L 49.171875 205.191406 L 52.226562 215.011719 C 52.589844 216.152344 53.679688 216.902344 54.878906 216.820312 L 71.027344 215.65625 C 71.378906 215.636719 71.707031 215.539062 72.003906 215.390625 C 72.738281 215.03125 73.265625 214.335938 73.40625 213.488281 L 75.019531 203.328125 L 84.714844 198.476562 L 93.851562 203.265625 C 94.910156 203.824219 96.226562 203.574219 97.011719 202.671875 L 107.601562 190.472656 C 108.386719 189.5625 108.4375 188.242188 107.738281 187.269531 L 101.667969 178.949219 L 105.085938 168.683594 L 114.941406 165.640625 C 116.089844 165.28125 116.84375 164.191406 116.757812 162.996094 L 115.589844 146.90625 C 115.496094 145.710938 114.59375 144.726562 113.40625 144.546875 Z M 71.972656 185.230469 C 57.480469 192.472656 39.835938 186.636719 32.566406 172.195312 C 25.300781 157.75 31.15625 140.171875 45.648438 132.929688 C 60.140625 125.6875 77.785156 131.523438 85.054688 145.964844 C 92.324219 160.40625 86.464844 177.988281 71.972656 185.230469 Z M 71.972656 185.230469 " fill-opacity="1" fill-rule="nonzero"/></g><path fill="#737373" d="M 261.203125 151.820312 L 247.164062 147.0625 L 242.65625 132.1875 L 251.695312 120.472656 C 252.746094 119.109375 252.714844 117.207031 251.621094 115.875 L 236.882812 97.945312 C 235.789062 96.613281 233.921875 96.210938 232.363281 96.972656 L 219.058594 103.496094 L 205.308594 96.15625 L 203.386719 81.503906 C 203.164062 79.800781 201.785156 78.46875 200.066406 78.300781 L 176.925781 76.007812 C 175.207031 75.835938 173.59375 76.875 173.042969 78.5 L 168.269531 92.488281 L 153.339844 96.980469 L 141.585938 87.972656 C 140.214844 86.925781 138.304688 86.960938 136.96875 88.046875 L 118.976562 102.734375 C 117.636719 103.820312 117.234375 105.695312 118 107.238281 L 124.546875 120.496094 L 117.179688 134.195312 L 102.476562 136.109375 C 100.769531 136.332031 99.429688 137.707031 99.261719 139.417969 L 96.960938 162.476562 C 96.789062 164.191406 97.828125 165.796875 99.464844 166.347656 L 113.5 171.105469 L 118.007812 185.980469 L 108.96875 197.695312 C 107.917969 199.058594 107.949219 200.960938 109.042969 202.292969 L 123.78125 220.222656 C 124.875 221.554688 126.75 221.957031 128.300781 221.195312 L 141.605469 214.671875 L 155.355469 222.011719 L 157.277344 236.664062 C 157.5 238.367188 158.878906 239.699219 160.597656 239.867188 L 183.738281 242.160156 C 184.238281 242.214844 184.726562 242.160156 185.179688 242.023438 C 186.304688 241.6875 187.230469 240.828125 187.621094 239.675781 L 192.394531 225.691406 L 207.324219 221.195312 L 219.078125 230.203125 C 220.449219 231.25 222.359375 231.230469 223.695312 230.128906 L 241.691406 215.445312 C 243.027344 214.355469 243.429688 212.484375 242.664062 210.941406 L 236.121094 197.683594 L 243.484375 183.980469 L 258.1875 182.066406 C 259.894531 181.847656 261.234375 180.472656 261.402344 178.757812 L 263.707031 155.699219 C 263.863281 153.976562 262.835938 152.371094 261.203125 151.820312 Z M 192.523438 199.320312 C 170.222656 206.046875 146.675781 193.476562 139.929688 171.253906 C 133.179688 149.03125 145.796875 125.570312 168.097656 118.84375 C 190.402344 112.121094 213.945312 124.691406 220.691406 146.914062 C 227.441406 169.136719 214.835938 192.597656 192.523438 199.320312 Z M 192.523438 199.320312 " fill-opacity="1" fill-rule="nonzero"/><g clip-path="url(#de7aa494fb)"><path fill="#737373" d="M 295.757812 261.761719 L 292.4375 243.632812 C 292.035156 241.421875 289.902344 239.953125 287.683594 240.355469 L 269.488281 243.664062 C 267.269531 244.066406 265.796875 246.191406 266.199219 248.398438 C 266.601562 250.609375 268.734375 252.078125 270.953125 251.675781 L 280.246094 249.984375 C 275.40625 255.746094 270.050781 261.097656 264.269531 265.929688 C 256.851562 272.125 248.722656 277.484375 240.121094 281.839844 C 231.367188 286.28125 222.082031 289.695312 212.554688 292 C 202.742188 294.367188 192.585938 295.574219 182.390625 295.574219 C 171.589844 295.574219 160.863281 294.230469 150.507812 291.578125 C 140.460938 288.996094 130.730469 285.191406 121.59375 280.242188 C 112.621094 275.378906 104.214844 269.4375 96.628906 262.566406 C 89.066406 255.714844 82.339844 247.964844 76.621094 239.539062 C 75.355469 237.679688 72.820312 237.183594 70.941406 238.449219 C 69.074219 239.707031 68.578125 242.234375 69.851562 244.105469 C 75.929688 253.070312 83.089844 261.308594 91.132812 268.59375 C 99.207031 275.898438 108.140625 282.230469 117.691406 287.402344 C 127.421875 292.664062 137.777344 296.726562 148.46875 299.464844 C 159.496094 302.285156 170.898438 303.722656 182.390625 303.722656 C 193.234375 303.722656 204.035156 302.445312 214.476562 299.917969 C 224.628906 297.464844 234.496094 293.828125 243.820312 289.101562 C 252.980469 284.460938 261.625 278.773438 269.519531 272.175781 C 275.589844 267.113281 281.210938 261.507812 286.304688 255.472656 L 287.726562 263.230469 C 288.085938 265.199219 289.804688 266.574219 291.738281 266.574219 C 291.980469 266.574219 292.226562 266.550781 292.480469 266.507812 C 294.695312 266.085938 296.160156 263.972656 295.757812 261.761719 Z M 295.757812 261.761719 " fill-opacity="1" fill-rule="nonzero"/></g><g clip-path="url(#3527bcf3ce)"><path fill="#737373" d="M 299.9375 68.085938 C 288.226562 47.90625 271.367188 30.980469 251.207031 19.128906 C 241 13.132812 230.039062 8.492188 218.644531 5.351562 C 206.890625 2.117188 194.6875 0.46875 182.390625 0.46875 C 171.589844 0.46875 160.832031 1.734375 150.433594 4.242188 C 140.320312 6.671875 130.476562 10.289062 121.179688 14.972656 C 112.058594 19.570312 103.429688 25.226562 95.546875 31.773438 C 87.941406 38.082031 81.023438 45.242188 74.976562 53.042969 L 74 44.195312 C 73.753906 41.964844 71.730469 40.347656 69.488281 40.597656 C 67.25 40.84375 65.628906 42.863281 65.882812 45.09375 L 67.910156 63.414062 C 68.140625 65.496094 69.902344 67.039062 71.960938 67.039062 C 72.109375 67.039062 72.257812 67.03125 72.417969 67.019531 L 90.804688 65 C 93.042969 64.757812 94.667969 62.738281 94.414062 60.507812 C 94.167969 58.277344 92.140625 56.660156 89.902344 56.914062 L 81.617188 57.820312 C 87.273438 50.570312 93.710938 43.917969 100.789062 38.042969 C 108.195312 31.886719 116.300781 26.582031 124.882812 22.246094 C 133.617188 17.835938 142.859375 14.453125 152.363281 12.171875 C 162.148438 9.824219 172.246094 8.628906 182.410156 8.628906 C 193.988281 8.628906 205.445312 10.171875 216.492188 13.21875 C 227.195312 16.167969 237.488281 20.523438 247.078125 26.15625 C 266.039062 37.289062 281.878906 53.203125 292.894531 72.179688 C 293.648438 73.480469 295.027344 74.210938 296.4375 74.210938 C 297.125 74.210938 297.835938 74.03125 298.472656 73.660156 C 300.40625 72.527344 301.074219 70.03125 299.9375 68.085938 Z M 299.9375 68.085938 " fill-opacity="1" fill-rule="nonzero"/></g><path fill="#737373" d="M 45.449219 77.347656 C 45.449219 78.140625 45.371094 78.921875 45.214844 79.695312 C 45.0625 80.472656 44.832031 81.222656 44.527344 81.953125 C 44.226562 82.683594 43.851562 83.375 43.414062 84.035156 C 42.972656 84.691406 42.472656 85.296875 41.910156 85.855469 C 41.351562 86.414062 40.742188 86.914062 40.082031 87.351562 C 39.421875 87.792969 38.726562 88.164062 37.992188 88.464844 C 37.261719 88.765625 36.507812 88.996094 35.730469 89.148438 C 34.953125 89.304688 34.167969 89.378906 33.375 89.378906 C 32.582031 89.378906 31.796875 89.304688 31.019531 89.148438 C 30.242188 88.996094 29.484375 88.765625 28.753906 88.464844 C 28.019531 88.164062 27.324219 87.792969 26.664062 87.351562 C 26.007812 86.914062 25.394531 86.414062 24.835938 85.855469 C 24.273438 85.296875 23.773438 84.691406 23.335938 84.035156 C 22.894531 83.375 22.523438 82.683594 22.21875 81.953125 C 21.914062 81.222656 21.6875 80.472656 21.53125 79.695312 C 21.375 78.921875 21.300781 78.140625 21.300781 77.347656 C 21.300781 76.558594 21.375 75.777344 21.53125 75 C 21.6875 74.226562 21.914062 73.476562 22.21875 72.746094 C 22.523438 72.015625 22.894531 71.320312 23.335938 70.664062 C 23.773438 70.007812 24.273438 69.398438 24.835938 68.839844 C 25.394531 68.28125 26.007812 67.785156 26.664062 67.34375 C 27.324219 66.90625 28.019531 66.535156 28.753906 66.234375 C 29.484375 65.929688 30.242188 65.703125 31.019531 65.550781 C 31.796875 65.394531 32.582031 65.316406 33.375 65.316406 C 34.167969 65.316406 34.953125 65.394531 35.730469 65.550781 C 36.507812 65.703125 37.261719 65.929688 37.992188 66.234375 C 38.726562 66.535156 39.421875 66.90625 40.082031 67.34375 C 40.742188 67.785156 41.351562 68.28125 41.910156 68.839844 C 42.472656 69.398438 42.972656 70.007812 43.414062 70.664062 C 43.851562 71.320312 44.226562 72.015625 44.527344 72.746094 C 44.832031 73.476562 45.0625 74.226562 45.214844 75 C 45.371094 75.777344 45.449219 76.558594 45.449219 77.347656 Z M 45.449219 77.347656 " fill-opacity="1" fill-rule="nonzero"/><path fill="#737373" d="M 45.449219 77.347656 C 45.449219 78.140625 45.371094 78.921875 45.214844 79.695312 C 45.0625 80.472656 44.832031 81.222656 44.527344 81.953125 C 44.226562 82.683594 43.851562 83.375 43.414062 84.035156 C 42.972656 84.691406 42.472656 85.296875 41.910156 85.855469 C 41.351562 86.414062 40.742188 86.914062 40.082031 87.351562 C 39.421875 87.792969 38.726562 88.164062 37.992188 88.464844 C 37.261719 88.765625 36.507812 88.996094 35.730469 89.148438 C 34.953125 89.304688 34.167969 89.378906 33.375 89.378906 C 32.582031 89.378906 31.796875 89.304688 31.019531 89.148438 C 30.242188 88.996094 29.484375 88.765625 28.753906 88.464844 C 28.019531 88.164062 27.324219 87.792969 26.664062 87.351562 C 26.007812 86.914062 25.394531 86.414062 24.835938 85.855469 C 24.273438 85.296875 23.773438 84.691406 23.335938 84.035156 C 22.894531 83.375 22.523438 82.683594 22.21875 81.953125 C 21.914062 81.222656 21.6875 80.472656 21.53125 79.695312 C 21.375 78.921875 21.300781 78.140625 21.300781 77.347656 C 21.300781 76.558594 21.375 75.777344 21.53125 75 C 21.6875 74.226562 21.914062 73.476562 22.21875 72.746094 C 22.523438 72.015625 22.894531 71.320312 23.335938 70.664062 C 23.773438 70.007812 24.273438 69.398438 24.835938 68.839844 C 25.394531 68.28125 26.007812 67.785156 26.664062 67.34375 C 27.324219 66.90625 28.019531 66.535156 28.753906 66.234375 C 29.484375 65.929688 30.242188 65.703125 31.019531 65.550781 C 31.796875 65.394531 32.582031 65.316406 33.375 65.316406 C 34.167969 65.316406 34.953125 65.394531 35.730469 65.550781 C 36.507812 65.703125 37.261719 65.929688 37.992188 66.234375 C 38.726562 66.535156 39.421875 66.90625 40.082031 67.34375 C 40.742188 67.785156 41.351562 68.28125 41.910156 68.839844 C 42.472656 69.398438 42.972656 70.007812 43.414062 70.664062 C 43.851562 71.320312 44.226562 72.015625 44.527344 72.746094 C 44.832031 73.476562 45.0625 74.226562 45.214844 75 C 45.371094 75.777344 45.449219 76.558594 45.449219 77.347656 Z M 45.449219 77.347656 " fill-opacity="1" fill-rule="nonzero"/><path fill="#737373" d="M 43.464844 87.285156 C 40.886719 89.886719 37.320312 91.496094 33.375 91.496094 C 29.425781 91.496094 25.851562 89.886719 23.285156 87.285156 C 17.320312 90.753906 13.320312 97.191406 13.320312 104.5625 L 13.320312 105.945312 C 13.320312 108.335938 14.945312 110.417969 17.265625 111 C 27.835938 113.664062 38.910156 113.664062 49.480469 111 C 51.804688 110.417969 53.425781 108.335938 53.425781 105.945312 L 53.425781 104.5625 C 53.4375 97.183594 49.425781 90.746094 43.464844 87.285156 Z M 43.464844 87.285156 " fill-opacity="1" fill-rule="nonzero"/><path fill="#5500ff" d="M 254.644531 77.570312 C 254.644531 78.359375 254.566406 79.144531 254.414062 79.917969 C 254.257812 80.691406 254.027344 81.445312 253.726562 82.175781 C 253.421875 82.90625 253.050781 83.597656 252.609375 84.253906 C 252.167969 84.914062 251.667969 85.519531 251.109375 86.078125 C 250.546875 86.636719 249.9375 87.136719 249.277344 87.574219 C 248.617188 88.011719 247.921875 88.382812 247.191406 88.6875 C 246.457031 88.988281 245.703125 89.21875 244.925781 89.371094 C 244.148438 89.523438 243.363281 89.601562 242.570312 89.601562 C 241.777344 89.601562 240.992188 89.523438 240.214844 89.371094 C 239.4375 89.21875 238.683594 88.988281 237.949219 88.6875 C 237.21875 88.382812 236.519531 88.011719 235.863281 87.574219 C 235.203125 87.136719 234.59375 86.636719 234.03125 86.078125 C 233.472656 85.519531 232.972656 84.914062 232.53125 84.253906 C 232.089844 83.597656 231.71875 82.90625 231.414062 82.175781 C 231.113281 81.445312 230.882812 80.691406 230.726562 79.917969 C 230.574219 79.144531 230.496094 78.359375 230.496094 77.570312 C 230.496094 76.78125 230.574219 76 230.726562 75.222656 C 230.882812 74.449219 231.113281 73.695312 231.414062 72.96875 C 231.71875 72.238281 232.089844 71.542969 232.53125 70.886719 C 232.972656 70.230469 233.472656 69.621094 234.03125 69.0625 C 234.59375 68.503906 235.203125 68.007812 235.863281 67.566406 C 236.519531 67.128906 237.21875 66.757812 237.949219 66.457031 C 238.683594 66.152344 239.4375 65.925781 240.214844 65.769531 C 240.992188 65.617188 241.777344 65.539062 242.570312 65.539062 C 243.363281 65.539062 244.148438 65.617188 244.925781 65.769531 C 245.703125 65.925781 246.457031 66.152344 247.191406 66.457031 C 247.921875 66.757812 248.617188 67.128906 249.277344 67.566406 C 249.9375 68.007812 250.546875 68.503906 251.109375 69.0625 C 251.667969 69.621094 252.167969 70.230469 252.609375 70.886719 C 253.050781 71.542969 253.421875 72.238281 253.726562 72.96875 C 254.027344 73.695312 254.257812 74.449219 254.414062 75.222656 C 254.566406 76 254.644531 76.78125 254.644531 77.570312 Z M 254.644531 77.570312 " fill-opacity="1" fill-rule="nonzero"/><path fill="#5500ff" d="M 254.644531 77.570312 C 254.644531 78.359375 254.566406 79.144531 254.414062 79.917969 C 254.257812 80.691406 254.027344 81.445312 253.726562 82.175781 C 253.421875 82.90625 253.050781 83.597656 252.609375 84.253906 C 252.167969 84.914062 251.667969 85.519531 251.109375 86.078125 C 250.546875 86.636719 249.9375 87.136719 249.277344 87.574219 C 248.617188 88.011719 247.921875 88.382812 247.191406 88.6875 C 246.457031 88.988281 245.703125 89.21875 244.925781 89.371094 C 244.148438 89.523438 243.363281 89.601562 242.570312 89.601562 C 241.777344 89.601562 240.992188 89.523438 240.214844 89.371094 C 239.4375 89.21875 238.683594 88.988281 237.949219 88.6875 C 237.21875 88.382812 236.519531 88.011719 235.863281 87.574219 C 235.203125 87.136719 234.59375 86.636719 234.03125 86.078125 C 233.472656 85.519531 232.972656 84.914062 232.53125 84.253906 C 232.089844 83.597656 231.71875 82.90625 231.414062 82.175781 C 231.113281 81.445312 230.882812 80.691406 230.726562 79.917969 C 230.574219 79.144531 230.496094 78.359375 230.496094 77.570312 C 230.496094 76.78125 230.574219 76 230.726562 75.222656 C 230.882812 74.449219 231.113281 73.695312 231.414062 72.96875 C 231.71875 72.238281 232.089844 71.542969 232.53125 70.886719 C 232.972656 70.230469 233.472656 69.621094 234.03125 69.0625 C 234.59375 68.503906 235.203125 68.007812 235.863281 67.566406 C 236.519531 67.128906 237.21875 66.757812 237.949219 66.457031 C 238.683594 66.152344 239.4375 65.925781 240.214844 65.769531 C 240.992188 65.617188 241.777344 65.539062 242.570312 65.539062 C 243.363281 65.539062 244.148438 65.617188 244.925781 65.769531 C 245.703125 65.925781 246.457031 66.152344 247.191406 66.457031 C 247.921875 66.757812 248.617188 67.128906 249.277344 67.566406 C 249.9375 68.007812 250.546875 68.503906 251.109375 69.0625 C 251.667969 69.621094 252.167969 70.230469 252.609375 70.886719 C 253.050781 71.542969 253.421875 72.238281 253.726562 72.96875 C 254.027344 73.695312 254.257812 74.449219 254.414062 75.222656 C 254.566406 76 254.644531 76.78125 254.644531 77.570312 Z M 254.644531 77.570312 " fill-opacity="1" fill-rule="nonzero"/><path fill="#5500ff" d="M 252.671875 87.507812 C 250.09375 90.109375 246.527344 91.71875 242.582031 91.71875 C 238.632812 91.71875 235.058594 90.109375 232.492188 87.507812 C 226.527344 90.976562 222.527344 97.414062 222.527344 104.785156 L 222.527344 106.167969 C 222.527344 108.558594 224.152344 110.640625 226.476562 111.222656 C 237.042969 113.886719 248.121094 113.886719 258.6875 111.222656 C 261.011719 110.640625 262.632812 108.558594 262.632812 106.167969 L 262.632812 104.785156 C 262.632812 97.414062 258.625 90.976562 252.671875 87.507812 Z M 252.671875 87.507812 " fill-opacity="1" fill-rule="nonzero"/><path fill="#737373" d="M 358.027344 189.320312 C 358.027344 190.109375 357.949219 190.894531 357.796875 191.667969 C 357.640625 192.441406 357.414062 193.195312 357.109375 193.925781 C 356.804688 194.65625 356.433594 195.347656 355.992188 196.003906 C 355.550781 196.660156 355.050781 197.269531 354.492188 197.828125 C 353.929688 198.386719 353.320312 198.886719 352.660156 199.324219 C 352.003906 199.761719 351.308594 200.132812 350.574219 200.4375 C 349.84375 200.738281 349.085938 200.96875 348.308594 201.121094 C 347.53125 201.273438 346.746094 201.351562 345.953125 201.351562 C 345.160156 201.351562 344.375 201.273438 343.597656 201.121094 C 342.820312 200.96875 342.066406 200.738281 341.332031 200.4375 C 340.601562 200.132812 339.90625 199.761719 339.246094 199.324219 C 338.585938 198.886719 337.976562 198.386719 337.417969 197.828125 C 336.855469 197.269531 336.355469 196.660156 335.914062 196.003906 C 335.472656 195.347656 335.101562 194.65625 334.796875 193.925781 C 334.496094 193.195312 334.265625 192.441406 334.113281 191.667969 C 333.957031 190.894531 333.878906 190.109375 333.878906 189.320312 C 333.878906 188.53125 333.957031 187.75 334.113281 186.972656 C 334.265625 186.199219 334.496094 185.445312 334.796875 184.714844 C 335.101562 183.988281 335.472656 183.292969 335.914062 182.636719 C 336.355469 181.980469 336.855469 181.371094 337.417969 180.8125 C 337.976562 180.253906 338.585938 179.757812 339.246094 179.316406 C 339.90625 178.878906 340.601562 178.507812 341.332031 178.207031 C 342.066406 177.902344 342.820312 177.675781 343.597656 177.519531 C 344.375 177.367188 345.160156 177.289062 345.953125 177.289062 C 346.746094 177.289062 347.53125 177.367188 348.308594 177.519531 C 349.085938 177.675781 349.84375 177.902344 350.574219 178.207031 C 351.308594 178.507812 352.003906 178.878906 352.660156 179.316406 C 353.320312 179.757812 353.929688 180.253906 354.492188 180.8125 C 355.050781 181.371094 355.550781 181.980469 355.992188 182.636719 C 356.433594 183.292969 356.804688 183.988281 357.109375 184.714844 C 357.414062 185.445312 357.640625 186.199219 357.796875 186.972656 C 357.949219 187.75 358.027344 188.53125 358.027344 189.320312 Z M 358.027344 189.320312 " fill-opacity="1" fill-rule="nonzero"/><path fill="#737373" d="M 358.027344 189.320312 C 358.027344 190.109375 357.949219 190.894531 357.796875 191.667969 C 357.640625 192.441406 357.414062 193.195312 357.109375 193.925781 C 356.804688 194.65625 356.433594 195.347656 355.992188 196.003906 C 355.550781 196.660156 355.050781 197.269531 354.492188 197.828125 C 353.929688 198.386719 353.320312 198.886719 352.660156 199.324219 C 352.003906 199.761719 351.308594 200.132812 350.574219 200.4375 C 349.84375 200.738281 349.085938 200.96875 348.308594 201.121094 C 347.53125 201.273438 346.746094 201.351562 345.953125 201.351562 C 345.160156 201.351562 344.375 201.273438 343.597656 201.121094 C 342.820312 200.96875 342.066406 200.738281 341.332031 200.4375 C 340.601562 200.132812 339.90625 199.761719 339.246094 199.324219 C 338.585938 198.886719 337.976562 198.386719 337.417969 197.828125 C 336.855469 197.269531 336.355469 196.660156 335.914062 196.003906 C 335.472656 195.347656 335.101562 194.65625 334.796875 193.925781 C 334.496094 193.195312 334.265625 192.441406 334.113281 191.667969 C 333.957031 190.894531 333.878906 190.109375 333.878906 189.320312 C 333.878906 188.53125 333.957031 187.75 334.113281 186.972656 C 334.265625 186.199219 334.496094 185.445312 334.796875 184.714844 C 335.101562 183.988281 335.472656 183.292969 335.914062 182.636719 C 336.355469 181.980469 336.855469 181.371094 337.417969 180.8125 C 337.976562 180.253906 338.585938 179.757812 339.246094 179.316406 C 339.90625 178.878906 340.601562 178.507812 341.332031 178.207031 C 342.066406 177.902344 342.820312 177.675781 343.597656 177.519531 C 344.375 177.367188 345.160156 177.289062 345.953125 177.289062 C 346.746094 177.289062 347.53125 177.367188 348.308594 177.519531 C 349.085938 177.675781 349.84375 177.902344 350.574219 178.207031 C 351.308594 178.507812 352.003906 178.878906 352.660156 179.316406 C 353.320312 179.757812 353.929688 180.253906 354.492188 180.8125 C 355.050781 181.371094 355.550781 181.980469 355.992188 182.636719 C 356.433594 183.292969 356.804688 183.988281 357.109375 184.714844 C 357.414062 185.445312 357.640625 186.199219 357.796875 186.972656 C 357.949219 187.75 358.027344 188.53125 358.027344 189.320312 Z M 358.027344 189.320312 " fill-opacity="1" fill-rule="nonzero"/><path fill="#737373" d="M 356.042969 199.257812 C 353.464844 201.859375 349.902344 203.464844 345.953125 203.464844 C 342.007812 203.464844 338.429688 201.859375 335.863281 199.257812 C 329.902344 202.726562 325.902344 209.164062 325.902344 216.535156 L 325.902344 217.917969 C 325.902344 220.308594 327.523438 222.390625 329.847656 222.972656 C 340.414062 225.636719 351.492188 225.636719 362.058594 222.972656 C 364.382812 222.390625 366.007812 220.308594 366.007812 217.917969 L 366.007812 216.535156 C 366.015625 209.15625 362.007812 202.726562 356.042969 199.257812 Z M 356.042969 199.257812 " fill-opacity="1" fill-rule="nonzero"/></g></g></g><path fill="#8f46da" d="M 234.535156 201.25 L 181.652344 201.25 C 180.675781 201.25 179.898438 200.472656 179.898438 199.496094 L 179.898438 187.332031 C 179.898438 179.589844 187.375 173.28125 196.613281 173.28125 C 202.664062 173.28125 208.453125 173.28125 214.566406 173.28125 L 219.574219 173.28125 C 228.8125 173.28125 236.292969 179.589844 236.292969 187.332031 L 236.292969 199.496094 C 236.292969 200.472656 235.511719 201.25 234.535156 201.25 Z M 234.535156 201.25 " fill-opacity="1" fill-rule="evenodd"/><path fill="#763ab2" d="M 227.511719 194.878906 L 216.777344 194.878906 C 215.800781 194.878906 215.023438 194.097656 215.023438 193.1875 L 215.023438 186.941406 C 215.023438 185.964844 215.800781 185.183594 216.777344 185.183594 L 227.511719 185.183594 C 228.488281 185.183594 229.265625 185.964844 229.265625 186.941406 L 229.265625 193.1875 C 229.265625 194.160156 228.488281 194.878906 227.511719 194.878906 Z M 227.511719 194.878906 " fill-opacity="1" fill-rule="evenodd"/><path fill="#e68f54" d="M 208.0625 191.039062 C 207.410156 191.039062 206.761719 190.648438 206.5 190 L 200.0625 175.882812 C 199.867188 175.492188 199.734375 174.972656 199.929688 174.519531 L 200.972656 170.808594 C 201.230469 169.898438 202.207031 169.378906 203.117188 169.640625 C 203.832031 169.835938 209.425781 170.03125 211.964844 170.484375 C 212.160156 170.09375 212.550781 169.769531 213.003906 169.640625 C 213.914062 169.378906 214.890625 169.898438 215.152344 170.808594 L 216.191406 174.257812 C 216.386719 174.710938 216.386719 175.234375 216.191406 175.6875 L 209.6875 190 C 209.363281 190.648438 208.777344 191.039062 208.0625 191.039062 Z M 208.0625 191.039062 " fill-opacity="1" fill-rule="evenodd"/><path fill="#1aa1ff" d="M 195.3125 238.066406 L 127.015625 238.066406 C 126.039062 238.066406 125.257812 237.289062 125.257812 236.378906 L 125.257812 220.503906 C 125.257812 210.8125 134.6875 202.941406 146.265625 202.941406 C 154.203125 202.941406 161.421875 202.941406 169.488281 202.941406 L 175.992188 202.941406 C 187.570312 202.941406 197.003906 210.8125 197.003906 220.503906 L 197.003906 236.378906 C 197.003906 237.289062 196.222656 238.066406 195.3125 238.066406 Z M 195.3125 238.066406 " fill-opacity="1" fill-rule="evenodd"/><path fill="#1892e6" d="M 145.878906 238.066406 L 134.820312 238.066406 L 134.820312 223.238281 C 134.820312 222 135.601562 220.960938 136.511719 220.960938 C 138.722656 220.960938 141.390625 220.960938 144.121094 220.960938 C 145.097656 220.960938 145.878906 222 145.878906 223.238281 Z M 145.878906 238.066406 " fill-opacity="1" fill-rule="evenodd"/><path fill="#1892e6" d="M 187.703125 238.066406 L 176.644531 238.066406 L 176.644531 223.042969 C 176.644531 221.871094 177.425781 220.960938 178.402344 220.960938 C 180.613281 220.960938 183.214844 220.960938 185.945312 220.960938 C 186.921875 220.960938 187.703125 221.871094 187.703125 223.042969 Z M 187.703125 238.066406 " fill-opacity="1" fill-rule="evenodd"/><path fill="#e68f54" d="M 166.496094 199.691406 C 166.5625 199.039062 167.082031 198.453125 167.734375 198.257812 C 168.644531 198 169.621094 198.519531 169.878906 199.496094 L 171.179688 204.242188 C 171.308594 204.765625 171.179688 205.285156 170.921875 205.675781 L 162.789062 223.824219 C 162.527344 224.472656 161.945312 224.863281 161.226562 224.863281 C 160.578125 224.863281 159.925781 224.472656 159.667969 223.824219 L 151.210938 205.414062 C 151.015625 204.960938 151.015625 204.4375 151.210938 204.050781 L 152.445312 199.496094 C 152.707031 198.519531 153.617188 198 154.527344 198.257812 C 155.242188 198.453125 162.984375 199.039062 166.496094 199.691406 Z M 166.496094 199.691406 " fill-opacity="1" fill-rule="evenodd"/><path fill="#c06000" d="M 219.378906 156.761719 C 218.535156 156.761719 217.820312 156.175781 217.625 155.394531 C 213.265625 156.175781 197.652344 156.761719 196.808594 156.761719 C 195.832031 156.761719 195.050781 155.980469 195.050781 155.070312 L 195.050781 147.261719 C 195.050781 142.125 199.34375 137.898438 204.613281 137.898438 L 217.167969 137.898438 C 219.316406 137.898438 221.070312 139.585938 221.070312 141.605469 L 221.070312 155.070312 C 221.070312 155.980469 220.289062 156.761719 219.378906 156.761719 Z M 219.378906 156.761719 " fill-opacity="1" fill-rule="evenodd"/><path fill="#ff9e5c" d="M 209.167969 171.722656 L 207.019531 171.722656 C 200.320312 171.722656 195.050781 166.582031 195.050781 160.011719 L 195.050781 150.058594 C 195.050781 149.085938 195.832031 148.304688 196.808594 148.304688 L 205.460938 148.304688 C 208.515625 148.304688 209.363281 145.765625 209.425781 145.507812 C 209.621094 144.855469 210.078125 144.464844 210.597656 144.269531 L 210.664062 144.269531 C 210.859375 144.207031 211.054688 144.207031 211.25 144.207031 L 211.378906 144.207031 C 211.445312 144.207031 211.507812 144.207031 211.574219 144.269531 C 211.964844 144.335938 212.289062 144.597656 212.484375 144.855469 L 212.550781 144.855469 C 212.679688 145.050781 212.746094 145.246094 212.808594 145.441406 C 212.875 145.765625 213.722656 148.304688 216.582031 148.304688 C 216.648438 148.304688 216.777344 148.304688 216.84375 148.304688 L 219.378906 148.304688 C 220.289062 148.304688 221.070312 149.085938 221.070312 150.058594 L 221.070312 160.011719 C 221.070312 166.582031 215.867188 171.722656 209.167969 171.722656 Z M 209.167969 171.722656 " fill-opacity="1" fill-rule="evenodd"/><path fill="#c06000" d="M 175.472656 181.804688 C 174.367188 181.804688 173.457031 181.023438 173.261719 180.046875 C 167.667969 181.023438 147.894531 181.804688 146.851562 181.804688 C 145.617188 181.804688 144.640625 180.828125 144.640625 179.589844 L 144.640625 169.703125 C 144.640625 163.199219 150.039062 157.867188 156.738281 157.867188 L 172.675781 157.867188 C 175.410156 157.867188 177.683594 160.011719 177.683594 162.550781 L 177.683594 179.589844 C 177.683594 180.828125 176.644531 181.804688 175.472656 181.804688 Z M 175.472656 181.804688 " fill-opacity="1" fill-rule="evenodd"/><path fill="#ff9e5c" d="M 162.527344 200.796875 L 159.796875 200.796875 C 151.277344 200.796875 144.640625 194.292969 144.640625 185.964844 L 144.640625 173.28125 C 144.640625 172.046875 145.617188 171.070312 146.851562 171.070312 L 157.847656 171.070312 C 161.75 171.070312 162.789062 167.816406 162.855469 167.492188 C 163.050781 166.710938 163.636719 166.125 164.351562 165.929688 L 164.414062 165.929688 C 164.675781 165.867188 164.9375 165.800781 165.195312 165.867188 L 165.324219 165.867188 C 165.390625 165.867188 165.457031 165.867188 165.585938 165.929688 C 166.042969 165.996094 166.433594 166.320312 166.757812 166.648438 L 166.757812 166.710938 C 166.953125 166.90625 167.082031 167.167969 167.148438 167.425781 C 167.277344 167.816406 168.253906 171.070312 171.894531 171.070312 C 172.027344 171.070312 172.15625 171.070312 172.222656 171.070312 L 175.472656 171.070312 C 176.644531 171.070312 177.683594 172.046875 177.683594 173.28125 L 177.683594 185.964844 C 177.683594 194.292969 170.984375 200.796875 162.527344 200.796875 Z M 162.527344 200.796875 " fill-opacity="1" fill-rule="evenodd"/><path fill="#e6ae63" d="M 158.039062 177.703125 C 157.066406 179.007812 155.570312 179.851562 153.878906 179.851562 C 152.1875 179.851562 150.625 179.007812 149.714844 177.703125 C 150.625 176.402344 152.1875 175.558594 153.878906 175.558594 C 155.570312 175.558594 157.066406 176.402344 158.039062 177.703125 Z M 158.039062 177.703125 " fill-opacity="1" fill-rule="evenodd"/><path fill="#ffffff" d="M 157.519531 177.703125 C 156.738281 178.8125 155.375 179.527344 153.878906 179.527344 C 152.382812 179.527344 151.015625 178.8125 150.171875 177.703125 C 151.015625 176.664062 152.382812 175.949219 153.878906 175.949219 C 155.375 175.949219 156.738281 176.664062 157.519531 177.703125 Z M 157.519531 177.703125 " fill-opacity="1" fill-rule="evenodd"/><path fill="#663300" d="M 155.375 177.703125 C 155.375 177.902344 155.335938 178.09375 155.261719 178.277344 C 155.183594 178.460938 155.074219 178.621094 154.9375 178.761719 C 154.796875 178.902344 154.632812 179.011719 154.449219 179.085938 C 154.265625 179.164062 154.078125 179.199219 153.878906 179.199219 C 153.679688 179.199219 153.488281 179.164062 153.304688 179.085938 C 153.121094 179.011719 152.960938 178.902344 152.820312 178.761719 C 152.679688 178.621094 152.570312 178.460938 152.496094 178.277344 C 152.417969 178.09375 152.382812 177.902344 152.382812 177.703125 C 152.382812 177.507812 152.417969 177.316406 152.496094 177.132812 C 152.570312 176.949219 152.679688 176.789062 152.820312 176.648438 C 152.960938 176.507812 153.121094 176.398438 153.304688 176.324219 C 153.488281 176.246094 153.679688 176.207031 153.878906 176.207031 C 154.078125 176.207031 154.265625 176.246094 154.449219 176.324219 C 154.632812 176.398438 154.796875 176.507812 154.9375 176.648438 C 155.074219 176.789062 155.183594 176.949219 155.261719 177.132812 C 155.335938 177.316406 155.375 177.507812 155.375 177.703125 Z M 155.375 177.703125 " fill-opacity="1" fill-rule="nonzero"/><path fill="#1a1a1a" d="M 154.59375 177.703125 C 154.59375 177.902344 154.523438 178.070312 154.382812 178.210938 C 154.246094 178.351562 154.074219 178.421875 153.878906 178.421875 C 153.679688 178.421875 153.511719 178.351562 153.371094 178.210938 C 153.230469 178.070312 153.164062 177.902344 153.164062 177.703125 C 153.164062 177.507812 153.230469 177.339844 153.371094 177.199219 C 153.511719 177.058594 153.679688 176.988281 153.878906 176.988281 C 154.074219 176.988281 154.246094 177.058594 154.382812 177.199219 C 154.523438 177.339844 154.59375 177.507812 154.59375 177.703125 Z M 154.59375 177.703125 " fill-opacity="1" fill-rule="nonzero"/><path fill="#ffffff" d="M 154.527344 177.964844 C 154.464844 178.160156 154.269531 178.355469 154.074219 178.421875 C 153.941406 178.355469 153.878906 178.226562 153.878906 178.09375 C 153.878906 177.898438 154.007812 177.769531 154.203125 177.769531 C 154.332031 177.769531 154.464844 177.835938 154.527344 177.964844 Z M 154.527344 177.964844 " fill-opacity="1" fill-rule="evenodd"/><path fill="#663300" d="M 151.082031 173.476562 C 150.691406 173.476562 150.429688 173.738281 150.429688 174.0625 C 150.429688 174.453125 150.691406 174.710938 151.082031 174.710938 L 156.675781 174.710938 C 157 174.710938 157.324219 174.453125 157.324219 174.0625 C 157.324219 173.738281 157 173.476562 156.675781 173.476562 Z M 151.082031 173.476562 " fill-opacity="1" fill-rule="nonzero"/><path fill="#e6ae63" d="M 172.546875 177.703125 C 171.636719 179.007812 170.140625 179.851562 168.449219 179.851562 C 166.691406 179.851562 165.195312 179.007812 164.285156 177.703125 C 165.195312 176.402344 166.691406 175.558594 168.449219 175.558594 C 170.140625 175.558594 171.636719 176.402344 172.546875 177.703125 Z M 172.546875 177.703125 " fill-opacity="1" fill-rule="evenodd"/><path fill="#ffffff" d="M 172.089844 177.703125 C 171.246094 178.8125 169.945312 179.527344 168.449219 179.527344 C 166.886719 179.527344 165.585938 178.8125 164.742188 177.703125 C 165.585938 176.664062 166.886719 175.949219 168.449219 175.949219 C 169.945312 175.949219 171.246094 176.664062 172.089844 177.703125 Z M 172.089844 177.703125 " fill-opacity="1" fill-rule="evenodd"/><path fill="#663300" d="M 169.945312 177.703125 C 169.945312 177.902344 169.90625 178.09375 169.832031 178.277344 C 169.753906 178.460938 169.648438 178.621094 169.507812 178.761719 C 169.367188 178.902344 169.203125 179.011719 169.019531 179.085938 C 168.835938 179.164062 168.648438 179.199219 168.449219 179.199219 C 168.25 179.199219 168.058594 179.164062 167.875 179.085938 C 167.691406 179.011719 167.53125 178.902344 167.390625 178.761719 C 167.25 178.621094 167.140625 178.460938 167.066406 178.277344 C 166.992188 178.09375 166.953125 177.902344 166.953125 177.703125 C 166.953125 177.507812 166.992188 177.316406 167.066406 177.132812 C 167.140625 176.949219 167.25 176.789062 167.390625 176.648438 C 167.53125 176.507812 167.691406 176.398438 167.875 176.324219 C 168.058594 176.246094 168.25 176.207031 168.449219 176.207031 C 168.648438 176.207031 168.835938 176.246094 169.019531 176.324219 C 169.203125 176.398438 169.367188 176.507812 169.507812 176.648438 C 169.648438 176.789062 169.753906 176.949219 169.832031 177.132812 C 169.90625 177.316406 169.945312 177.507812 169.945312 177.703125 Z M 169.945312 177.703125 " fill-opacity="1" fill-rule="nonzero"/><path fill="#1a1a1a" d="M 169.164062 177.703125 C 169.164062 177.902344 169.09375 178.070312 168.953125 178.210938 C 168.816406 178.351562 168.644531 178.421875 168.449219 178.421875 C 168.25 178.421875 168.082031 178.351562 167.941406 178.210938 C 167.800781 178.070312 167.734375 177.902344 167.734375 177.703125 C 167.734375 177.507812 167.800781 177.339844 167.941406 177.199219 C 168.082031 177.058594 168.25 176.988281 168.449219 176.988281 C 168.644531 176.988281 168.816406 177.058594 168.953125 177.199219 C 169.09375 177.339844 169.164062 177.507812 169.164062 177.703125 Z M 169.164062 177.703125 " fill-opacity="1" fill-rule="nonzero"/><path fill="#ffffff" d="M 169.097656 177.964844 C 168.96875 178.160156 168.839844 178.355469 168.578125 178.421875 C 168.511719 178.355469 168.449219 178.226562 168.449219 178.09375 C 168.449219 177.898438 168.578125 177.769531 168.773438 177.769531 C 168.902344 177.769531 169.035156 177.835938 169.097656 177.964844 Z M 169.097656 177.964844 " fill-opacity="1" fill-rule="evenodd"/><path fill="#663300" d="M 165.585938 173.476562 C 165.261719 173.476562 164.9375 173.738281 164.9375 174.0625 C 164.9375 174.453125 165.261719 174.710938 165.585938 174.710938 L 171.179688 174.710938 C 171.570312 174.710938 171.832031 174.453125 171.832031 174.0625 C 171.832031 173.738281 171.570312 173.476562 171.179688 173.476562 Z M 165.585938 173.476562 " fill-opacity="1" fill-rule="nonzero"/><path fill="#802d40" d="M 153.746094 186.160156 L 168.839844 186.160156 L 168.707031 186.421875 C 168.707031 186.421875 166.105469 192.015625 161.878906 193.1875 C 157.261719 193.1875 153.617188 186.421875 153.554688 186.421875 L 153.421875 186.160156 Z M 153.746094 186.160156 " fill-opacity="1" fill-rule="nonzero"/><path fill="#e6e6e6" d="M 167.734375 186.160156 L 154.59375 186.160156 C 156.414062 186.941406 158.757812 187.398438 161.164062 187.398438 C 163.570312 187.398438 165.847656 186.941406 167.734375 186.160156 Z M 167.734375 186.160156 " fill-opacity="1" fill-rule="evenodd"/><path fill="#fb7b76" d="M 161.421875 190.714844 C 160.058594 190.714844 158.757812 190.972656 157.714844 191.496094 C 158.953125 192.46875 160.316406 193.1875 161.878906 193.1875 C 163.050781 192.859375 164.089844 192.210938 165 191.429688 C 164.023438 190.972656 162.722656 190.714844 161.421875 190.714844 Z M 161.421875 190.714844 " fill-opacity="1" fill-rule="evenodd"/><path fill="#e6ae63" d="M 205.65625 153.574219 C 204.875 154.546875 203.703125 155.265625 202.335938 155.265625 C 201.035156 155.265625 199.800781 154.546875 199.085938 153.574219 C 199.800781 152.53125 201.035156 151.882812 202.335938 151.882812 C 203.703125 151.882812 204.875 152.53125 205.65625 153.574219 Z M 205.65625 153.574219 " fill-opacity="1" fill-rule="evenodd"/><path fill="#ffffff" d="M 205.265625 153.574219 C 204.613281 154.417969 203.574219 154.9375 202.335938 154.9375 C 201.167969 154.9375 200.125 154.417969 199.476562 153.574219 C 200.125 152.726562 201.167969 152.140625 202.335938 152.140625 C 203.574219 152.140625 204.613281 152.726562 205.265625 153.574219 Z M 205.265625 153.574219 " fill-opacity="1" fill-rule="evenodd"/><path fill="#663300" d="M 203.507812 153.574219 C 203.507812 153.726562 203.480469 153.878906 203.417969 154.019531 C 203.359375 154.164062 203.273438 154.289062 203.164062 154.402344 C 203.054688 154.511719 202.929688 154.59375 202.785156 154.65625 C 202.640625 154.714844 202.492188 154.742188 202.335938 154.742188 C 202.183594 154.742188 202.03125 154.714844 201.890625 154.65625 C 201.746094 154.59375 201.621094 154.511719 201.507812 154.402344 C 201.398438 154.289062 201.316406 154.164062 201.257812 154.019531 C 201.195312 153.878906 201.167969 153.726562 201.167969 153.574219 C 201.167969 153.417969 201.195312 153.269531 201.257812 153.125 C 201.316406 152.980469 201.398438 152.855469 201.507812 152.746094 C 201.621094 152.636719 201.746094 152.550781 201.890625 152.492188 C 202.03125 152.429688 202.183594 152.402344 202.335938 152.402344 C 202.492188 152.402344 202.640625 152.429688 202.785156 152.492188 C 202.929688 152.550781 203.054688 152.636719 203.164062 152.746094 C 203.273438 152.855469 203.359375 152.980469 203.417969 153.125 C 203.480469 153.269531 203.507812 153.417969 203.507812 153.574219 Z M 203.507812 153.574219 " fill-opacity="1" fill-rule="nonzero"/><path fill="#1a1a1a" d="M 202.859375 153.574219 C 202.859375 153.714844 202.808594 153.839844 202.707031 153.941406 C 202.605469 154.042969 202.480469 154.09375 202.335938 154.09375 C 202.195312 154.09375 202.070312 154.042969 201.96875 153.941406 C 201.867188 153.839844 201.816406 153.714844 201.816406 153.574219 C 201.816406 153.429688 201.867188 153.304688 201.96875 153.203125 C 202.070312 153.101562 202.195312 153.050781 202.335938 153.050781 C 202.480469 153.050781 202.605469 153.101562 202.707031 153.203125 C 202.808594 153.304688 202.859375 153.429688 202.859375 153.574219 Z M 202.859375 153.574219 " fill-opacity="1" fill-rule="nonzero"/><path fill="#ffffff" d="M 202.859375 153.769531 C 202.792969 153.898438 202.664062 154.027344 202.53125 154.09375 C 202.402344 154.027344 202.402344 153.964844 202.402344 153.898438 C 202.402344 153.703125 202.46875 153.636719 202.664062 153.636719 C 202.726562 153.636719 202.859375 153.636719 202.859375 153.769531 Z M 202.859375 153.769531 " fill-opacity="1" fill-rule="evenodd"/><path fill="#663300" d="M 200.125 150.191406 C 199.867188 150.191406 199.671875 150.449219 199.671875 150.710938 C 199.671875 150.972656 199.867188 151.164062 200.125 151.164062 L 204.550781 151.164062 C 204.808594 151.164062 205.070312 150.972656 205.070312 150.710938 C 205.070312 150.449219 204.808594 150.191406 204.550781 150.191406 Z M 200.125 150.191406 " fill-opacity="1" fill-rule="nonzero"/><path fill="#e6ae63" d="M 217.101562 153.574219 C 216.324219 154.546875 215.152344 155.265625 213.785156 155.265625 C 212.484375 155.265625 211.25 154.546875 210.535156 153.574219 C 211.25 152.53125 212.484375 151.882812 213.785156 151.882812 C 215.152344 151.882812 216.324219 152.53125 217.101562 153.574219 Z M 217.101562 153.574219 " fill-opacity="1" fill-rule="evenodd"/><path fill="#ffffff" d="M 216.714844 153.574219 C 216.0625 154.417969 215.023438 154.9375 213.785156 154.9375 C 212.613281 154.9375 211.574219 154.417969 210.921875 153.574219 C 211.574219 152.726562 212.613281 152.140625 213.785156 152.140625 C 215.023438 152.140625 216.0625 152.726562 216.714844 153.574219 Z M 216.714844 153.574219 " fill-opacity="1" fill-rule="evenodd"/><path fill="#663300" d="M 214.957031 153.574219 C 214.957031 153.726562 214.925781 153.878906 214.867188 154.019531 C 214.808594 154.164062 214.722656 154.289062 214.613281 154.402344 C 214.503906 154.511719 214.378906 154.59375 214.234375 154.65625 C 214.089844 154.714844 213.941406 154.742188 213.785156 154.742188 C 213.628906 154.742188 213.480469 154.714844 213.335938 154.65625 C 213.195312 154.59375 213.066406 154.511719 212.957031 154.402344 C 212.847656 154.289062 212.761719 154.164062 212.703125 154.019531 C 212.644531 153.878906 212.613281 153.726562 212.613281 153.574219 C 212.613281 153.417969 212.644531 153.269531 212.703125 153.125 C 212.761719 152.980469 212.847656 152.855469 212.957031 152.746094 C 213.066406 152.636719 213.195312 152.550781 213.335938 152.492188 C 213.480469 152.429688 213.628906 152.402344 213.785156 152.402344 C 213.941406 152.402344 214.089844 152.429688 214.234375 152.492188 C 214.378906 152.550781 214.503906 152.636719 214.613281 152.746094 C 214.722656 152.855469 214.808594 152.980469 214.867188 153.125 C 214.925781 153.269531 214.957031 153.417969 214.957031 153.574219 Z M 214.957031 153.574219 " fill-opacity="1" fill-rule="nonzero"/><path fill="#1a1a1a" d="M 214.304688 153.574219 C 214.304688 153.714844 214.253906 153.839844 214.152344 153.941406 C 214.050781 154.042969 213.929688 154.09375 213.785156 154.09375 C 213.640625 154.09375 213.519531 154.042969 213.417969 153.941406 C 213.316406 153.839844 213.265625 153.714844 213.265625 153.574219 C 213.265625 153.429688 213.316406 153.304688 213.417969 153.203125 C 213.519531 153.101562 213.640625 153.050781 213.785156 153.050781 C 213.929688 153.050781 214.050781 153.101562 214.152344 153.203125 C 214.253906 153.304688 214.304688 153.429688 214.304688 153.574219 Z M 214.304688 153.574219 " fill-opacity="1" fill-rule="nonzero"/><path fill="#ffffff" d="M 214.304688 153.769531 C 214.242188 153.898438 214.109375 154.027344 213.914062 154.09375 C 213.851562 154.027344 213.851562 153.964844 213.851562 153.898438 C 213.851562 153.703125 213.914062 153.636719 214.109375 153.636719 C 214.175781 153.636719 214.304688 153.636719 214.304688 153.769531 Z M 214.304688 153.769531 " fill-opacity="1" fill-rule="evenodd"/><path fill="#663300" d="M 211.574219 150.191406 C 211.3125 150.191406 211.054688 150.449219 211.054688 150.710938 C 211.054688 150.972656 211.3125 151.164062 211.574219 151.164062 L 215.996094 151.164062 C 216.257812 151.164062 216.519531 150.972656 216.519531 150.710938 C 216.519531 150.449219 216.257812 150.191406 215.996094 150.191406 Z M 211.574219 150.191406 " fill-opacity="1" fill-rule="nonzero"/><path fill="#802d40" d="M 202.273438 160.207031 L 214.109375 160.207031 L 214.046875 160.402344 C 214.046875 160.402344 211.964844 164.824219 208.710938 165.738281 L 208.648438 165.738281 C 205.003906 165.738281 202.140625 160.402344 202.140625 160.402344 L 202.011719 160.207031 Z M 202.273438 160.207031 " fill-opacity="1" fill-rule="nonzero"/><path fill="#e6e6e6" d="M 213.265625 160.207031 L 202.921875 160.207031 C 204.355469 160.859375 206.175781 161.183594 208.0625 161.183594 C 209.949219 161.183594 211.835938 160.859375 213.265625 160.207031 Z M 213.265625 160.207031 " fill-opacity="1" fill-rule="evenodd"/><path fill="#fb7b76" d="M 208.320312 163.785156 C 207.214844 163.785156 206.175781 163.980469 205.394531 164.371094 C 206.371094 165.152344 207.476562 165.738281 208.648438 165.738281 L 208.710938 165.738281 C 209.621094 165.476562 210.402344 164.957031 211.117188 164.371094 C 210.339844 163.980469 209.363281 163.785156 208.320312 163.785156 Z M 208.320312 163.785156 " fill-opacity="1" fill-rule="evenodd"/><g clip-path="url(#95b94dcb63)"><path fill="#8f46da" d="M 180.742188 101.273438 C 228.679688 101.273438 267.515625 140.109375 267.515625 187.980469 C 267.515625 235.921875 228.679688 274.753906 180.742188 274.753906 C 132.867188 274.753906 94.035156 235.921875 94.035156 187.980469 C 94.035156 140.109375 132.867188 101.273438 180.742188 101.273438 Z M 180.742188 108.625 C 224.582031 108.625 260.164062 144.140625 260.164062 187.980469 C 260.164062 231.824219 224.582031 267.402344 180.742188 267.402344 C 136.902344 267.402344 101.386719 231.824219 101.386719 187.980469 C 101.386719 144.140625 136.902344 108.625 180.742188 108.625 Z M 180.742188 108.625 " fill-opacity="1" fill-rule="evenodd"/><path fill="#1aa1ff" d="M 180.742188 101.273438 C 228.679688 101.273438 267.515625 140.109375 267.515625 187.980469 C 267.515625 235.921875 228.679688 274.753906 180.742188 274.753906 C 132.867188 274.753906 94.035156 235.921875 94.035156 187.980469 C 94.035156 140.109375 132.867188 101.273438 180.742188 101.273438 Z M 180.742188 103.878906 C 227.25 103.878906 264.914062 141.539062 264.914062 187.980469 C 264.914062 234.492188 227.25 272.152344 180.742188 272.152344 C 134.300781 272.152344 96.636719 234.492188 96.636719 187.980469 C 96.636719 141.539062 134.300781 103.878906 180.742188 103.878906 Z M 180.742188 103.878906 " fill-opacity="1" fill-rule="evenodd"/></g><g mask="url(#e8606b5607)"><g transform="matrix(1, 0, 0, 1, 30, 157)"><g clip-path="url(#1766a71b2b)"><g clip-path="url(#2f79277bf9)"><g clip-path="url(#b0a8c0813d)"><path fill="url(#ffabfe69ac)" d="M 0.394531 0.269531 L 0.394531 61.183594 L 61.3125 61.183594 L 61.3125 0.269531 Z M 0.394531 0.269531 " fill-rule="nonzero"/></g></g></g></g></g></svg>